<svg width="29" height="29" viewBox="0 0 29 29" fill="none" xmlns="http://www.w3.org/2000/svg">
<circle cx="14.5" cy="14.5" r="14.5" fill="url(#paint0_linear)"/>
<path d="M14.2828 21.8334C13.9822 21.8334 13.7338 21.61 13.6945 21.3202L13.6891 21.2396L13.6891 9.36462C13.6891 9.0367 13.9549 8.77087 14.2828 8.77087C14.5834 8.77087 14.8319 8.99425 14.8712 9.28406L14.8766 9.36462L14.8766 21.2396C14.8766 21.5675 14.6108 21.8334 14.2828 21.8334Z" fill="white"/>
<path d="M9.93432 14.573C9.70295 14.8054 9.32701 14.8062 9.09463 14.5748C8.88339 14.3645 8.86351 14.0346 9.03548 13.8018L9.09283 13.7351L13.8618 8.94553C14.0728 8.73365 14.4038 8.71438 14.6366 8.88771L14.7033 8.94549L19.4731 13.7351C19.7045 13.9674 19.7037 14.3434 19.4713 14.5748C19.2601 14.7851 18.9302 14.8036 18.6981 14.6307L18.6317 14.573L14.2823 10.2062L9.93432 14.573Z" fill="white"/>
<defs>
<linearGradient id="paint0_linear" x1="1.03024e-07" y1="15" x2="29" y2="15" gradientUnits="userSpaceOnUse">
<stop stop-color="#B2B0FF"/>
<stop offset="0.489583" stop-color="#A29CFF"/>
<stop offset="1" stop-color="#7F7CE2"/>
</linearGradient>
</defs>
</svg>
