<svg width="15" height="15" viewBox="0 0 15 15" fill="none" xmlns="http://www.w3.org/2000/svg">
<g id="Iconly/Curved/3 User">
<g id="3 User">
<path id="Stroke 1" fill-rule="evenodd" clip-rule="evenodd" d="M7.4827 12.7302C5.45833 12.7302 3.72895 12.4239 3.72895 11.1977C3.72895 9.97143 5.44708 8.90393 7.4827 8.90393C9.50707 8.90393 11.2364 9.96143 11.2364 11.1871C11.2364 12.4127 9.51832 12.7302 7.4827 12.7302Z" stroke="white" stroke-width="1.2" stroke-linecap="round" stroke-linejoin="round"/>
<path id="Stroke 3" fill-rule="evenodd" clip-rule="evenodd" d="M7.48278 7.1555C8.81153 7.1555 9.88903 6.07863 9.88903 4.74988C9.88903 3.42113 8.81153 2.34363 7.48278 2.34363C6.15403 2.34363 5.07653 3.42113 5.07653 4.74988C5.07278 6.07363 6.14153 7.15113 7.46591 7.1555H7.48278Z" stroke="white" stroke-width="1.2" stroke-linecap="round" stroke-linejoin="round"/>
<path id="Stroke 5" d="M11.4763 6.49477C12.2495 6.2879 12.8195 5.5829 12.8195 4.74352C12.8195 3.8679 12.1988 3.13665 11.3726 2.9679" stroke="white" stroke-width="1.2" stroke-linecap="round" stroke-linejoin="round"/>
<path id="Stroke 7" d="M11.8394 8.46521C12.9357 8.46521 13.8719 9.20833 13.8719 9.87208C13.8719 10.2627 13.5488 10.6883 13.0588 10.8033" stroke="white" stroke-width="1.2" stroke-linecap="round" stroke-linejoin="round"/>
<path id="Stroke 9" d="M3.48977 6.49477C2.71602 6.2879 2.14602 5.5829 2.14602 4.74352C2.14602 3.8679 2.76727 3.13665 3.59289 2.9679" stroke="white" stroke-width="1.2" stroke-linecap="round" stroke-linejoin="round"/>
<path id="Stroke 11" d="M3.12605 8.46521C2.0298 8.46521 1.09355 9.20833 1.09355 9.87208C1.09355 10.2627 1.41668 10.6883 1.9073 10.8033" stroke="white" stroke-width="1.2" stroke-linecap="round" stroke-linejoin="round"/>
</g>
</g>
</svg>
