<svg width="80" height="59" viewBox="0 0 80 59" fill="none" xmlns="http://www.w3.org/2000/svg">
<g clip-path="url(#clip0_5075_3747)">
<path opacity="0.1" d="M0.861084 28.2867C2.12433 33.168 4.79629 37.3875 9.01875 39.4329C17.7968 43.6837 37.5935 41.4914 52.3685 38.9748C60.0113 37.6733 66.729 34.0812 71.6089 29.0262L0.861084 28.2867Z" fill="#968DFF"/>
<path opacity="0.1" d="M78.3405 5.31028H70.2337C69.849 5.31028 69.5334 5.02524 69.5334 4.67695C69.5334 4.32865 69.849 4.04289 70.2337 4.04289H71.6359C71.2504 4.04289 70.9355 3.75786 70.9355 3.40884C70.9355 3.05981 71.2504 2.77551 71.6359 2.77551H70.6352C70.2497 2.77551 69.9341 2.49047 69.9341 2.14145C69.9341 1.79243 70.2497 1.50812 70.6352 1.50812H74.8664C73.9275 1.11329 72.83 0.832617 71.5653 0.68501C60.0274 -0.655089 55.9082 0.231281 54.4551 1.14237C52.6439 2.29214 50.632 3.08994 48.525 3.49391C41.4066 4.82237 28.0941 6.4206 16.0282 2.98492C10.0312 1.27398 5.57381 4.16141 2.90259 8.9881H79.7485C79.6481 7.58546 79.3477 6.28972 78.7965 5.15613C78.6659 5.25691 78.5054 5.31117 78.3405 5.31028Z" fill="#968DFF"/>
<path opacity="0.1" d="M0.173731 18.0982C-0.137648 20.937 -0.0318009 23.8062 0.487907 26.6143L71.6633 28.9695C73.6226 26.9378 75.2873 24.6415 76.6087 22.1476L0.173731 18.0982ZM28.3245 24.1734H26.9231C27.3085 24.1734 27.6241 24.4591 27.6241 24.8074C27.6241 25.1557 27.3085 25.4408 26.9231 25.4408H18.8163C18.4316 25.4408 18.1159 25.1557 18.1159 24.8074C18.1159 24.4591 18.4316 24.1734 18.8163 24.1734H20.2185C19.833 24.1734 19.5181 23.8883 19.5181 23.54C19.5181 23.1917 19.833 22.906 20.2185 22.906H19.217C18.8316 22.906 18.5159 22.6209 18.5159 22.2727C18.5159 21.9244 18.8316 21.6386 19.217 21.6386H27.3238C27.7092 21.6386 28.0241 21.9236 28.0241 22.2727C28.0241 22.6217 27.7092 22.906 27.3238 22.906H28.3245C28.7099 22.906 29.0248 23.191 29.0248 23.54C29.0248 23.8891 28.7099 24.1734 28.3245 24.1734Z" fill="#968DFF"/>
<path opacity="0.1" d="M79.7514 9.03168L2.04514 10.7404C1.0997 12.9385 0.472804 15.4239 0.184082 17.9994H78.3899C78.8989 16.4925 79.2765 14.9445 79.5186 13.3726C79.7521 11.8595 79.8452 10.3958 79.7514 9.03168ZM15.9612 14.6342H14.5598C14.9453 14.6342 15.2609 14.92 15.2609 15.2683C15.2609 15.6166 14.9453 15.9023 14.5598 15.9023H6.45306C6.06834 15.9023 5.75271 15.6166 5.75271 15.2683C5.75271 14.92 6.06834 14.6342 6.45306 14.6342H7.85521C7.46977 14.6342 7.15486 14.3492 7.15486 14.0009C7.15486 13.6526 7.46977 13.3668 7.85521 13.3668H6.85378C6.46833 13.3668 6.1527 13.0818 6.1527 12.7335C6.1527 12.3852 6.46833 12.0994 6.85378 12.0994H14.9605C15.346 12.0994 15.6609 12.3845 15.6609 12.7335C15.6609 13.0825 15.346 13.3668 14.9605 13.3668H15.9612C16.3467 13.3668 16.6616 13.6526 16.6616 14.0009C16.6616 14.3492 16.3467 14.6342 15.9612 14.6342Z" fill="#968DFF"/>
<path opacity="0.1" d="M39.6416 56.7946C57.5947 56.7946 72.1486 55.456 72.1486 53.8047C72.1486 52.1533 57.5947 50.8147 39.6416 50.8147C21.6884 50.8147 7.13452 52.1533 7.13452 53.8047C7.13452 55.456 21.6884 56.7946 39.6416 56.7946Z" fill="#968DFF"/>
<path d="M72.7724 29.1085C72.7721 29.1034 72.7721 29.0983 72.7724 29.0932C72.7724 29.0852 72.7724 29.0779 72.7724 29.0707C72.7579 28.9874 72.7264 28.908 72.6801 28.8372C72.5137 28.5709 72.2818 28.3516 72.0066 28.2003C71.5266 27.9371 70.867 27.8244 70.675 27.3219C70.6161 27.1663 70.6147 26.9969 70.5856 26.834C70.5347 26.5802 70.4179 26.3443 70.247 26.1499C70.076 25.9556 69.857 25.8096 69.6118 25.7266C69.3834 25.6502 69.1369 25.6292 68.915 25.5346C68.4191 25.3238 68.1572 24.8039 67.9354 24.3232C67.6484 23.7027 67.3614 23.082 67.0744 22.461C66.8562 22.5708 66.574 22.5192 66.3696 22.3818C66.1727 22.2352 66.0159 22.0414 65.9136 21.8183C65.6176 21.2438 65.4904 20.5931 65.1427 20.0463C64.7951 19.4994 64.1006 19.0675 63.4868 19.3053C63.3669 19.3652 63.243 19.4164 63.1159 19.4587C62.5901 19.5816 62.0083 18.981 61.5581 19.2726C61.4833 19.3205 61.4224 19.3872 61.3814 19.466C61.381 19.4612 61.381 19.4563 61.3814 19.4515C61.3228 19.5697 61.2901 19.6991 61.2854 19.831C61.2854 19.8579 61.2854 19.8841 61.2854 19.9095C61.2854 19.9139 61.2854 19.9183 61.2854 19.9226C61.2854 20.0273 61.2919 20.1335 61.2934 20.2397C61.295 20.3288 61.2882 20.4179 61.273 20.5058V20.4985C61.2645 20.548 61.2518 20.5966 61.2352 20.644C61.1181 20.9581 60.7937 21.1638 60.6417 21.4591V21.4445C60.6246 21.4766 60.6098 21.5099 60.5974 21.5441C60.5703 21.6215 60.5563 21.7029 60.5559 21.7848C60.5428 22.3396 61.1312 22.8617 61.1995 23.4572C61.2483 23.879 61.345 24.0142 61.7035 24.2527L61.7821 24.305C61.7508 24.305 61.7188 24.3094 61.6832 24.3101C61.6693 24.3104 61.6554 24.3119 61.6417 24.3145C61.5784 24.2971 61.5121 24.2939 61.4475 24.3052C61.3828 24.3166 61.3215 24.3421 61.2679 24.3799C60.993 24.5981 60.3428 24.4301 60.0541 24.3799C59.7654 24.3298 58.7763 24.465 58.6381 25.0133C58.5 25.5615 58.2629 26.6929 58.2629 26.6929C58.2629 26.6929 58.2629 27.4106 58.1749 27.5444C58.1715 27.5538 58.1715 27.5641 58.1749 27.5735C58.1749 27.7749 58.1821 28.9856 57.9872 29.2975C57.9392 29.3702 57.9429 29.5309 57.9785 29.7287C57.7734 29.9927 57.5807 30.301 57.6149 30.5031C57.6774 30.9168 58.5167 32.2177 59.7196 31.5211C59.7196 31.5211 60.4039 30.2697 59.5428 29.6044L59.5799 29.4589C59.8403 29.7789 60.033 30.0087 60.033 30.0087C60.033 30.0087 60.0432 30.0356 60.0592 30.0814H60.033C60.1454 30.3871 60.2135 30.7074 60.2352 31.0325C60.2319 31.1516 60.2103 31.2696 60.1712 31.3822H60.1937C60.1872 31.4069 60.1799 31.4316 60.1712 31.4549C60.1289 31.5777 60.05 31.6846 59.945 31.761C59.3436 32.1871 58.6549 35.2302 58.6549 35.2302C58.6549 35.2302 57.2905 40.1492 57.0178 40.4291C56.7923 40.6589 58.2091 41.3061 59.2723 41.229C59.4207 41.2202 59.5674 41.1923 59.7087 41.1461C59.7152 41.2188 59.7225 41.2915 59.7298 41.3577C59.7523 41.5758 59.7756 41.778 59.7901 41.8412C59.8279 41.9997 59.9028 43.6183 59.9028 43.6183C59.9028 43.6183 59.7494 44.6698 59.7865 45.4013C59.7865 45.4514 59.793 45.4994 59.7974 45.5467L59.665 45.567C59.4643 46.0179 60.2912 49.7793 60.4039 50.0956C60.4786 50.3448 60.5206 50.6027 60.529 50.8627C60.529 50.8627 60.4563 51.1303 60.5166 51.2765C60.5542 51.3658 60.5787 51.4601 60.5894 51.5564C60.5894 51.5564 60.5399 51.7993 60.6148 51.9578C60.6897 52.1163 60.6025 52.3941 60.6025 52.3941C60.6025 52.3941 60.5777 53.4899 60.3523 54.0861C60.2909 54.2465 60.273 54.4204 60.3005 54.59C60.3279 54.7595 60.3998 54.9188 60.5086 55.0517C60.5243 55.0724 60.5413 55.0921 60.5596 55.1106C60.5596 55.1106 61.8032 55.1208 62.0221 55.1106H62.0504C62.1384 55.0983 62.3639 54.1123 62.1632 53.6375C61.9624 53.1626 62.1384 52.578 62.1384 52.578V51.7142C62.1384 51.7142 62.3639 51.5062 62.1384 51.0598C61.913 50.6133 61.9501 50.4781 61.9501 50.4781C61.9501 50.4781 62.201 49.7597 61.9377 49.5285C61.6744 49.2972 61.9879 48.4203 61.9879 48.4203L62.0766 45.4972C62.0302 45.4821 61.9828 45.47 61.9348 45.4609C61.9297 45.4129 61.9246 45.3635 61.9195 45.3111C61.8679 44.7817 61.8235 44.0619 61.9384 43.8568C62.0533 43.6518 62.1086 41.8616 62.1268 40.6175L63.273 40.6611C63.297 41.2428 63.3224 41.7736 63.3384 41.8412C63.3762 41.9997 63.4519 43.6183 63.4519 43.6183C63.4519 43.6183 63.2977 44.6698 63.3348 45.4013C63.3348 45.4514 63.3413 45.4994 63.3457 45.5467L63.2133 45.567C63.0126 46.0179 63.8395 49.7793 63.9522 50.0956C64.0269 50.3449 64.0692 50.6027 64.078 50.8627C64.078 50.8627 64.0053 51.1303 64.065 51.2765C64.1025 51.3658 64.127 51.4601 64.1377 51.5564C64.1377 51.5564 64.0882 51.7993 64.1631 51.9578C64.238 52.1163 64.1508 52.3941 64.1508 52.3941C64.1508 52.3941 64.126 53.4899 63.9006 54.0861C63.8402 54.2468 63.8233 54.4206 63.8516 54.5899C63.88 54.7592 63.9526 54.918 64.062 55.0503C64.0777 55.071 64.0947 55.0907 64.1129 55.1092C64.1129 55.1092 65.3566 55.1194 65.5755 55.1092H65.6038C65.6918 55.0968 65.9173 54.1108 65.7166 53.636C65.5158 53.1612 65.6918 52.5766 65.6918 52.5766V51.7142C65.6918 51.7142 65.9173 51.5062 65.6918 51.0598C65.4664 50.6133 65.5035 50.4781 65.5035 50.4781C65.5035 50.4781 65.7544 49.7597 65.4911 49.5285C65.2278 49.2972 65.5413 48.4203 65.5413 48.4203L65.6315 45.4972C65.5839 45.4819 65.5353 45.4697 65.486 45.4609C65.4809 45.4129 65.4758 45.3635 65.4707 45.3111C65.4191 44.7817 65.3747 44.0619 65.4896 43.8568C65.582 43.6889 65.6351 42.6069 65.6591 41.5504C65.6591 41.4777 65.6591 41.405 65.6649 41.3322C66.1915 41.3103 66.716 41.2515 67.2343 41.1563C67.2343 41.1563 66.6213 38.9887 66.8089 38.636C66.8896 38.4841 66.7733 37.6748 66.614 36.803C66.8361 36.9827 67.1122 37.0826 67.398 37.0865C67.6722 37.6137 68.5063 38.8266 68.9761 39.0134C69.5274 39.2316 69.1136 37.2974 68.851 37.0175C68.7268 36.8646 68.6222 36.6968 68.5398 36.5179C68.5471 36.5092 68.555 36.5019 68.5623 36.4939C68.5696 36.4859 68.5754 34.4361 68.4496 34.4732C68.3238 34.5103 68.174 34.1686 68.174 34.1686L67.7856 30.7605L67.6227 29.3339C67.7587 29.4342 67.9202 29.4982 68.0591 29.5978C68.4372 29.8749 68.5609 30.3613 68.7267 30.7918C68.8634 31.1459 69.0554 31.4971 69.3703 31.7196C69.6852 31.9421 70.147 32.001 70.4612 31.7756C70.7521 31.564 70.8379 31.1822 70.9019 30.8339C71.4299 31.0194 72.0706 30.5235 72.0023 29.9818C71.9855 29.848 71.9361 29.7018 72.0059 29.5847C72.1455 29.3535 72.5877 29.488 72.7332 29.2597C72.7576 29.2202 72.7702 29.1745 72.7695 29.1281C72.7717 29.1179 72.7724 29.1136 72.7724 29.1085ZM65.71 30.983C65.702 31.1132 65.8809 32.1588 66.0264 32.9863C65.9071 32.4707 65.6678 31.9203 65.1966 31.5429C65.1966 31.5429 65.1966 31.5167 65.1907 31.4702H65.1966C65.1966 31.4702 65.1769 31.2622 65.174 30.9663C65.1749 30.704 65.1943 30.442 65.2322 30.1824V30.1759H65.2227C65.2227 30.1541 65.2286 30.1315 65.2322 30.1097C65.2611 29.8907 65.3206 29.6768 65.4089 29.4742C65.448 29.3948 65.4929 29.3185 65.5435 29.2459C65.6213 29.949 65.7173 30.8514 65.71 30.983ZM66.1013 33.4058C66.1653 33.7628 66.2111 34.0137 66.2111 34.0137L66.5973 36.6648V36.6772C66.3893 35.5581 66.1238 34.3787 66.1238 34.3787C66.1509 34.0545 66.1433 33.7284 66.1013 33.4058Z" fill="url(#paint0_linear_5075_3747)"/>
<path d="M61.3683 23.6026C61.2956 22.9307 60.5683 22.3512 60.7865 21.712C60.9051 21.3638 61.276 21.1507 61.4011 20.8046C61.484 20.5763 61.4469 20.3254 61.4476 20.0825C61.4483 19.8397 61.5051 19.5685 61.7072 19.4339C62.1436 19.1431 62.705 19.7415 63.2141 19.6194C63.3372 19.5773 63.457 19.5262 63.5726 19.4667C64.1668 19.2304 64.8388 19.6608 65.1726 20.2047C65.5064 20.7486 65.6315 21.3972 65.9181 21.9687C66.0159 22.1894 66.1674 22.3821 66.3588 22.5293C66.5566 22.666 66.8271 22.7177 67.0409 22.6086L67.8737 24.4628C68.0918 24.9405 68.342 25.4582 68.8191 25.6684C69.0329 25.7622 69.2715 25.7832 69.4925 25.8596C69.7328 25.9443 69.9466 26.0907 70.1126 26.284C70.2785 26.4773 70.3907 26.7109 70.438 26.9612C70.4663 27.1241 70.4671 27.2928 70.5245 27.4476C70.71 27.9479 71.3478 28.0599 71.8125 28.3202C72.0813 28.4718 72.3067 28.6898 72.467 28.9535C72.5398 29.0793 72.6023 29.2444 72.5245 29.368C72.3841 29.5949 71.9572 29.4611 71.822 29.6916C71.7536 29.8079 71.8016 29.9533 71.822 30.0871C71.8881 30.6259 71.2678 31.1196 70.7572 30.935C70.6954 31.2818 70.6118 31.6621 70.3311 31.8722C70.0293 32.0976 69.582 32.038 69.2773 31.817C68.9725 31.5959 68.7878 31.2462 68.6555 30.8935C68.4947 30.4645 68.3747 29.9802 68.0089 29.7046C67.8766 29.6058 67.718 29.5418 67.5886 29.4422C67.2977 29.2197 67.1522 28.8525 67.0482 28.4969C66.9137 28.0533 66.8068 27.5974 66.6119 27.1786C66.417 26.7598 66.1086 26.37 65.6861 26.1788C65.2897 26.0007 64.833 26.0123 64.4235 25.8676C63.7188 25.6189 63.1974 25.0263 62.4963 24.7471C62.2722 24.6529 62.0598 24.5328 61.8636 24.3893C61.5109 24.1574 61.4149 24.0229 61.3683 23.6026Z" fill="#3F3D56"/>
<g opacity="0.1">
<path opacity="0.1" d="M61.4338 20.6621C61.4488 20.6336 61.462 20.6043 61.4731 20.5741C61.5553 20.3458 61.5189 20.0949 61.5197 19.8521C61.5196 19.7711 61.5272 19.6902 61.5422 19.6107C61.4751 19.7543 61.4425 19.9117 61.4469 20.0702C61.4462 20.2658 61.4695 20.4709 61.4338 20.6621Z" fill="black"/>
<path opacity="0.1" d="M70.3995 31.644C70.0977 31.8687 69.6504 31.8098 69.3457 31.588C69.0409 31.3662 68.8555 31.0179 68.7268 30.6638C68.566 30.2348 68.4468 29.7505 68.0802 29.475C67.9486 29.3761 67.7893 29.3113 67.6606 29.2125C67.3697 28.99 67.2243 28.6228 67.1195 28.2708C66.985 27.8273 66.8788 27.3714 66.6832 26.9525C66.4875 26.5337 66.1806 26.144 65.7574 25.9527C65.3617 25.7746 64.905 25.7862 64.4956 25.6415C63.7901 25.3929 63.2687 24.8002 62.5683 24.521C62.3441 24.4266 62.1316 24.3065 61.9349 24.1633C61.5902 23.9255 61.4985 23.791 61.4476 23.3714C61.3749 22.7417 60.7349 22.1928 60.8346 21.5994C60.8183 21.6315 60.804 21.6645 60.7916 21.6983C60.5735 22.3382 61.3007 22.9177 61.3735 23.5889C61.4207 24.0084 61.5189 24.1429 61.8607 24.3807C62.0574 24.5239 62.2699 24.644 62.4942 24.7384C63.1945 25.0177 63.716 25.611 64.4214 25.8589C64.8308 26.0044 65.2876 25.992 65.6832 26.1702C66.1065 26.3614 66.4104 26.7519 66.609 27.17C66.8075 27.5881 66.9137 28.0425 67.0453 28.4882C67.1523 28.8402 67.2926 29.2074 67.5864 29.4299C67.7181 29.5288 67.8773 29.5935 68.0061 29.6924C68.3697 29.9679 68.4919 30.4522 68.6526 30.8812C68.7849 31.2339 68.9704 31.5829 69.2751 31.8039C69.5798 32.025 70.0271 32.0846 70.3289 31.8599C70.5216 31.7145 70.6198 31.4927 70.6845 31.255C70.627 31.4083 70.5284 31.5429 70.3995 31.644Z" fill="black"/>
<path opacity="0.1" d="M71.8939 29.4633C71.8661 29.5155 71.854 29.5746 71.859 29.6335C72.0234 29.4713 72.3943 29.5666 72.5237 29.3579C72.5538 29.3063 72.5656 29.2461 72.5572 29.187C72.3885 29.347 72.0176 29.2517 71.8939 29.4633Z" fill="black"/>
<path opacity="0.1" d="M70.8256 30.7066C70.8118 30.7793 70.798 30.8571 70.7805 30.9327C71.2256 31.0716 71.7398 30.7146 71.8125 30.2638C71.6358 30.6106 71.1994 30.8426 70.8256 30.7066Z" fill="black"/>
</g>
<path d="M62.3079 23.9524C62.3079 23.9524 62.55 24.441 61.8351 24.4512C61.1202 24.4614 62.2955 27.6244 62.2955 27.6244L63.4838 29.1368L64.9624 28.337L65.0474 26.1309L65.1565 24.7981C65.1565 24.7981 63.7747 24.3494 64.0293 23.7561C64.2838 23.1627 62.3079 23.9524 62.3079 23.9524Z" fill="#FBBEBE"/>
<path d="M66.5996 36.8487C66.5996 36.8487 67.4723 37.7075 68.4905 36.5681L67.7087 35.7384H66.7196L66.5996 36.8487Z" fill="#575A89"/>
<path opacity="0.1" d="M66.694 35.7384L66.574 36.8487C66.574 36.8487 67.4467 37.7075 68.4649 36.5681" fill="black"/>
<path d="M68.1623 35.8896C68.1623 35.8896 68.5136 36.8109 68.7681 37.0894C69.0227 37.3679 69.4226 39.2948 68.8896 39.0767C68.3565 38.8585 67.3383 37.2348 67.2772 36.9563C67.2161 36.6779 67.1929 35.8896 67.1929 35.8896H68.1623Z" fill="#FBBEBE"/>
<path d="M60.5386 40.616L65.241 40.7977L64.6956 38.8098L62.3269 38.7618L60.5386 40.616Z" fill="#575A89"/>
<path opacity="0.1" d="M61.1924 40.616L65.8956 40.7977L65.3501 38.8098L62.9807 38.7618L61.1924 40.616Z" fill="black"/>
<path d="M62.0774 43.8975C61.9661 44.1047 62.009 44.8217 62.0592 45.3518C62.0912 45.6891 62.1261 45.9487 62.1261 45.9487C62.1261 45.9487 60.3683 46.4941 60.1021 46.0214C60.0345 45.9015 60.001 45.6913 59.9894 45.4448C59.953 44.7177 60.1021 43.6699 60.1021 43.6699C60.1021 43.6699 60.0294 42.0586 59.993 41.9008C59.9785 41.8375 59.9559 41.6368 59.9341 41.4194C59.9021 41.0966 59.8716 40.7374 59.8716 40.7374L62.2715 39.4649C62.2715 39.4649 62.2715 39.7034 62.2672 40.0706C62.2541 41.2238 62.2155 43.643 62.0774 43.8975Z" fill="#FBBEBE"/>
<path opacity="0.1" d="M62.1262 45.9487C62.1262 45.9487 60.3684 46.4941 60.1022 46.0215C60.0346 45.9015 60.0011 45.6913 59.9895 45.4448C60.3531 45.3896 61.46 45.2369 62.0593 45.3518C62.0913 45.6892 62.1262 45.9487 62.1262 45.9487Z" fill="black"/>
<path d="M62.1864 55.1106H62.1588C61.9472 55.1186 60.7443 55.1106 60.7443 55.1106C60.7267 55.0922 60.7102 55.0727 60.6948 55.0524C60.5885 54.9193 60.5183 54.7611 60.4909 54.593C60.4635 54.4249 60.4799 54.2525 60.5385 54.0926C60.7566 53.4985 60.7806 52.4078 60.7806 52.4078C60.7806 52.4078 60.8657 52.1293 60.793 51.9715C60.7203 51.8138 60.7683 51.5716 60.7683 51.5716C60.7571 51.4759 60.7326 51.3821 60.6955 51.2931C60.6352 51.1477 60.7079 50.8809 60.7079 50.8809C60.6996 50.6223 60.6588 50.3658 60.5865 50.1174C60.4774 49.8025 59.6774 46.0578 59.8716 45.6092C59.8716 45.6092 61.5682 45.3183 62.2111 45.5364L62.1261 48.445C62.1261 48.445 61.8228 49.3175 62.0773 49.548C62.3319 49.7785 62.0897 50.4933 62.0897 50.4933C62.0897 50.4933 62.0533 50.6264 62.2715 51.075C62.4897 51.5236 62.2715 51.7294 62.2715 51.7294V52.5896C62.2715 52.5896 62.1021 53.1713 62.2955 53.6439C62.489 54.1166 62.2715 55.0953 62.1864 55.1106Z" fill="#3F3D56"/>
<path d="M65.5166 43.8975C65.4053 44.1048 65.4482 44.8217 65.4984 45.3518C65.5304 45.6892 65.5653 45.9488 65.5653 45.9488C65.5653 45.9488 63.8075 46.4941 63.5413 46.0215C63.4737 45.9015 63.4402 45.6914 63.4286 45.4449C63.3922 44.7178 63.5413 43.67 63.5413 43.67C63.5413 43.67 63.4686 42.0586 63.4322 41.9008C63.4126 41.8158 63.3784 41.0043 63.3515 40.2764C63.329 39.6555 63.3108 39.0941 63.3108 39.0941L65.7107 39.465C65.7107 39.465 65.7107 40.52 65.6809 41.6042C65.6547 42.6556 65.606 43.7332 65.5166 43.8975Z" fill="#FBBEBE"/>
<path opacity="0.1" d="M65.5654 45.9487C65.5654 45.9487 63.8076 46.4941 63.5414 46.0215C63.4738 45.9015 63.4403 45.6913 63.4287 45.4448C63.7923 45.3896 64.8992 45.2369 65.4985 45.3518C65.5305 45.6892 65.5654 45.9487 65.5654 45.9487Z" fill="black"/>
<path d="M65.6256 55.1105H65.598C65.3864 55.1185 64.1835 55.1105 64.1835 55.1105C64.1659 55.0921 64.1493 55.0727 64.134 55.0524C64.0277 54.9193 63.9575 54.7611 63.9301 54.5929C63.9027 54.4248 63.9191 54.2525 63.9777 54.0926C64.1958 53.4956 64.2176 52.4049 64.2176 52.4049C64.2176 52.4049 64.3027 52.1264 64.23 51.9686C64.1573 51.8108 64.2053 51.5687 64.2053 51.5687C64.1941 51.4729 64.1696 51.3792 64.1326 51.2902C64.0722 51.1448 64.1449 50.8779 64.1449 50.8779C64.1366 50.6193 64.0958 50.3628 64.0235 50.1144C63.9144 49.7996 63.1144 46.0549 63.3086 45.6062C63.3086 45.6062 65.0053 45.3154 65.6482 45.5335L65.5631 48.442C65.5631 48.442 65.2598 49.3146 65.5144 49.5451C65.7689 49.7756 65.5267 50.4904 65.5267 50.4904C65.5267 50.4904 65.4904 50.6234 65.7085 51.0721C65.9267 51.5207 65.7085 51.7265 65.7085 51.7265V52.5867C65.7085 52.5867 65.5391 53.1684 65.7325 53.641C65.926 54.1136 65.7107 55.0953 65.6256 55.1105Z" fill="#3F3D56"/>
<path opacity="0.1" d="M63.2535 24.5239C64.1974 24.5239 64.9626 23.7589 64.9626 22.8151C64.9626 21.8714 64.1974 21.1064 63.2535 21.1064C62.3096 21.1064 61.5444 21.8714 61.5444 22.8151C61.5444 23.7589 62.3096 24.5239 63.2535 24.5239Z" fill="black"/>
<path d="M63.2535 24.4512C64.1974 24.4512 64.9626 23.6862 64.9626 22.7424C64.9626 21.7987 64.1974 21.0337 63.2535 21.0337C62.3096 21.0337 61.5444 21.7987 61.5444 22.7424C61.5444 23.6862 62.3096 24.4512 63.2535 24.4512Z" fill="#FBBEBE"/>
<path opacity="0.1" d="M59.8716 40.7374L62.2715 39.4649C62.2715 39.4649 62.2715 39.7034 62.2672 40.0706C61.9166 40.28 61.3879 40.5949 60.8796 40.8923C60.6032 41.0544 60.3334 41.2115 60.1021 41.3431C60.0484 41.3722 59.9922 41.3966 59.9341 41.4158C59.9021 41.0966 59.8716 40.7374 59.8716 40.7374Z" fill="black"/>
<path opacity="0.1" d="M65.7108 39.4621C65.7108 39.4621 65.7108 40.5171 65.6809 41.6013H65.6722C65.4929 41.6077 65.3134 41.6021 65.1348 41.5846C64.8213 41.5511 64.5704 41.4682 64.4802 41.3039C64.2977 40.984 63.7864 40.5768 63.3544 40.2736C63.3319 39.6526 63.3137 39.0912 63.3137 39.0912L65.7108 39.4621Z" fill="black"/>
<path d="M65.2643 30.2209C65.2035 30.6942 65.1918 31.1726 65.2294 31.6483C66.3319 32.5572 66.1261 34.4717 66.1261 34.4717C66.1261 34.4717 66.9748 38.3502 66.793 38.7014C66.6112 39.0526 67.2046 41.21 67.2046 41.21C66.6988 41.3059 66.1867 41.3647 65.6723 41.386C65.493 41.3924 65.3134 41.3868 65.1348 41.3693C64.8214 41.3358 64.5705 41.2529 64.4803 41.0886C64.1414 40.4952 62.6745 39.6103 62.6745 39.6103C62.6745 39.6103 61.7451 40.1673 60.8797 40.6741C60.6033 40.8363 60.3335 40.9933 60.1022 41.1249C59.9145 41.2245 59.7072 41.2813 59.495 41.2915C58.4659 41.3678 57.095 40.7236 57.3132 40.4953C57.5801 40.216 58.9015 35.3203 58.9015 35.3203C58.9015 35.3203 59.5677 32.2903 60.1495 31.8664C60.2515 31.7894 60.3276 31.6831 60.3677 31.5617C60.5669 31.0084 60.2338 30.1213 60.2338 30.1213C60.2338 30.1213 58.3553 27.8068 58.4397 27.6731C58.5241 27.5393 58.5248 26.8252 58.5248 26.8252C58.5248 26.8252 58.7553 25.6982 58.8884 25.1528C59.0215 24.6075 59.9793 24.4737 60.2578 24.5224C60.5364 24.5711 61.1662 24.7405 61.4324 24.5224C61.6985 24.3043 62.148 24.6075 62.148 24.6075L63.252 24.9114L64.2447 24.3297C64.2447 24.3297 65.2396 24.3806 65.3247 24.5137C65.4097 24.6467 66.7188 24.902 66.7188 24.902C67.385 25.3499 67.361 27.4833 67.361 27.4833C67.361 27.4833 65.761 28.8765 65.4337 29.5919C65.349 29.7929 65.292 30.0045 65.2643 30.2209Z" fill="#575A89"/>
<path d="M66.9989 27.1881L67.3626 27.479L67.7385 30.8601L68.1138 34.2536C68.1138 34.2536 68.2593 34.5932 68.3807 34.5568C68.5022 34.5205 68.4898 36.5681 68.4898 36.5681C68.4898 36.5681 67.0978 35.7122 66.5989 36.8487L66.2106 34.1082C66.2106 34.1082 65.7131 31.3087 65.7255 31.0906C65.7379 30.8725 65.4709 28.5093 65.4709 28.5093L66.9989 27.1881Z" fill="#575A89"/>
<path d="M58.708 27.3459L58.4411 27.6731C58.4411 27.6731 58.4659 29.0786 58.2593 29.4182C58.0528 29.7578 58.8295 31.745 59.1204 31.6236C59.4113 31.5022 60.0658 28.4002 60.0658 28.3639C60.0658 28.3275 58.708 27.3459 58.708 27.3459Z" fill="#575A89"/>
<path d="M58.684 29.3455C58.684 29.3455 57.8353 30.2057 57.8957 30.6179C57.956 31.0302 58.7684 32.3252 59.932 31.6294C59.932 31.6294 61.0112 29.6 58.684 29.3455Z" fill="#575A89"/>
<path opacity="0.1" d="M62.1588 55.1128C61.9472 55.1208 60.7443 55.1128 60.7443 55.1128C60.7267 55.0944 60.7102 55.075 60.6948 55.0546C61.0025 54.9499 61.6672 54.7929 62.1588 55.1128Z" fill="black"/>
<path opacity="0.1" d="M65.5995 55.1128C65.3878 55.1208 64.185 55.1128 64.185 55.1128C64.1673 55.0944 64.1508 55.075 64.1355 55.0546C64.4417 54.9499 65.1064 54.7929 65.5995 55.1128Z" fill="black"/>
<path opacity="0.1" d="M60.9654 33.7984C60.78 35.577 60.8411 39.1064 60.8796 40.6741C60.6033 40.8363 60.3335 40.9934 60.1022 41.125C59.9145 41.2245 59.7071 41.2813 59.4949 41.2915C59.4178 40.8174 60.4855 35.9478 60.9654 33.7984Z" fill="black"/>
<path opacity="0.1" d="M61.1922 32.7892C61.1871 32.8146 61.0991 33.2015 60.9653 33.7984C61.0177 33.2887 61.0904 32.923 61.1922 32.7892Z" fill="black"/>
<path opacity="0.1" d="M64.1451 32.5972C64.1451 32.5972 65.1756 39.0686 62.124 39.8685C62.1233 39.8655 64.2353 39.5449 64.1451 32.5972Z" fill="black"/>
<path opacity="0.1" d="M65.6722 41.3861C65.4929 41.3925 65.3134 41.3869 65.1348 41.3694L64.3115 32.5209C64.8366 32.8641 65.465 39.1436 65.6722 41.3861Z" fill="black"/>
<path opacity="0.1" d="M61.9807 21.7375C62.0353 21.7332 62.0903 21.7389 62.1429 21.7543C62.22 21.7927 62.2895 21.845 62.3479 21.9084C62.4428 21.9877 62.5562 22.0416 62.6775 22.0651C62.7988 22.0886 62.9242 22.081 63.0418 22.0429C63.1247 22.0059 63.2127 21.9814 63.3028 21.9702C63.4417 21.9702 63.5617 22.072 63.6337 22.1884C63.7057 22.3047 63.7428 22.4429 63.8046 22.5672C63.8665 22.6915 63.9654 22.8093 64.1014 22.8399C64.1666 22.8424 64.2307 22.8572 64.2905 22.8835C64.3271 22.9132 64.3552 22.9521 64.3719 22.9962C64.4854 23.2412 64.5755 23.5306 64.8177 23.6506C64.9068 23.6919 65.0039 23.713 65.1021 23.7124C65.2019 23.7198 65.302 23.7017 65.393 23.6601C65.4825 23.6101 65.5565 23.5364 65.6068 23.447C65.7581 23.1969 65.7755 22.8871 65.7399 22.597C65.6955 22.231 65.5651 21.8807 65.3595 21.5747C65.1429 21.2651 64.848 21.0186 64.505 20.8604C64.1619 20.7021 63.7829 20.6377 63.4068 20.6737C63.2755 20.6885 63.1455 20.7128 63.0178 20.7465C62.5552 20.8701 62.1014 21.1013 61.8207 21.4889C61.7528 21.5856 61.6782 21.6775 61.5974 21.7637C61.7247 21.7514 61.8527 21.7404 61.9807 21.7375Z" fill="black"/>
<path d="M61.9807 21.6648C62.0353 21.6605 62.0903 21.6662 62.1429 21.6816C62.22 21.72 62.2895 21.7723 62.3479 21.8357C62.4428 21.915 62.5562 21.9689 62.6775 21.9924C62.7988 22.0159 62.9242 22.0083 63.0418 21.9702C63.1247 21.9332 63.2127 21.9087 63.3028 21.8975C63.4417 21.8975 63.5617 21.9993 63.6337 22.1157C63.7057 22.232 63.7428 22.3702 63.8046 22.4945C63.8665 22.6188 63.9654 22.7366 64.1014 22.7672C64.1666 22.7697 64.2307 22.7845 64.2905 22.8108C64.3271 22.8405 64.3552 22.8794 64.3719 22.9235C64.4854 23.1685 64.5755 23.4579 64.8177 23.5779C64.9068 23.6192 65.0039 23.6403 65.1021 23.6397C65.2019 23.6471 65.302 23.629 65.393 23.5874C65.4825 23.5374 65.5565 23.4637 65.6068 23.3743C65.7581 23.1242 65.7755 22.8144 65.7399 22.5243C65.6955 22.1583 65.5651 21.808 65.3595 21.502C65.1429 21.1924 64.848 20.946 64.505 20.7877C64.1619 20.6294 63.7829 20.565 63.4068 20.6011C63.2755 20.6158 63.1455 20.6401 63.0178 20.6738C62.5552 20.7974 62.1014 21.0286 61.8207 21.4162C61.7528 21.5129 61.6782 21.6048 61.5974 21.691C61.7247 21.6787 61.8527 21.6678 61.9807 21.6648Z" fill="#3F3D56"/>
<path opacity="0.1" d="M60.1263 25.7338C60.1263 25.7338 60.2114 26.4129 59.9205 26.5823C59.6296 26.7517 60.1263 25.7338 60.1263 25.7338Z" fill="black"/>
<path opacity="0.1" d="M66.2954 30.9939C66.2954 30.9939 66.9863 29.9759 67.0837 30.2667C67.1812 30.5576 66.2954 30.9939 66.2954 30.9939Z" fill="black"/>
<path opacity="0.1" d="M66.3442 31.3328C66.3442 31.3328 67.0257 30.4966 67.0911 30.8238C67.1566 31.151 66.3442 31.3328 66.3442 31.3328Z" fill="black"/>
<path opacity="0.1" d="M64.3429 30.3373C64.0958 30.3408 63.8546 30.2614 63.6578 30.1119H63.5982C63.3941 30.2982 63.1262 30.399 62.8499 30.3933C62.7062 30.3966 62.5633 30.3707 62.4299 30.3172C62.2965 30.2637 62.1754 30.1837 62.0739 30.082H61.9946C61.7852 30.2525 61.5222 30.3434 61.2522 30.3385C60.9822 30.3335 60.7227 30.2332 60.5197 30.0551L60.2354 30.05C60.2354 30.05 60.5684 30.9372 60.3692 31.4905L65.2294 31.577C65.1918 31.1013 65.2035 30.623 65.2644 30.1497V30.1431L64.9974 30.138C64.8054 30.2712 64.5765 30.3408 64.3429 30.3373Z" fill="black"/>
<path opacity="0.1" d="M64.3429 30.4828C64.0958 30.4863 63.8546 30.4069 63.6578 30.2574H63.5982C63.3941 30.4438 63.1262 30.5445 62.8499 30.5388C62.7062 30.5421 62.5633 30.5162 62.4299 30.4627C62.2965 30.4092 62.1754 30.3292 62.0739 30.2276H61.9946C61.7852 30.3981 61.5222 30.4889 61.2522 30.484C60.9822 30.479 60.7227 30.3787 60.5197 30.2006L60.2354 30.1956C60.2354 30.1956 60.5684 31.0827 60.3692 31.636L65.2294 31.7225C65.1918 31.2468 65.2035 30.7685 65.2644 30.2952V30.2886L64.9974 30.2835C64.8054 30.4167 64.5765 30.4863 64.3429 30.4828Z" fill="black"/>
<path d="M64.3429 30.41C64.0958 30.4135 63.8546 30.3341 63.6578 30.1845H63.5982C63.3941 30.3709 63.1262 30.4717 62.8499 30.4659C62.7062 30.4693 62.5633 30.4434 62.4299 30.3899C62.2965 30.3364 62.1754 30.2564 62.0739 30.1547H61.9946C61.7852 30.3252 61.5222 30.4161 61.2522 30.4112C60.9822 30.4062 60.7227 30.3059 60.5197 30.1278L60.2354 30.1227C60.2354 30.1227 60.5684 31.0098 60.3692 31.5632L65.2294 31.6497C65.1918 31.174 65.2035 30.6957 65.2644 30.2224V30.2158L64.9974 30.2107C64.8054 30.3439 64.5765 30.4135 64.3429 30.41Z" fill="#3F3D56"/>
<path opacity="0.1" d="M64.127 25.5615C64.127 25.5615 65.1502 25.6269 65.1568 25.7723C65.1633 25.9178 64.127 25.5615 64.127 25.5615Z" fill="black"/>
<path opacity="0.1" d="M61.6409 24.9412C61.6409 24.9412 60.6177 25.0067 60.6111 25.1521C60.6046 25.2975 61.6409 24.9412 61.6409 24.9412Z" fill="black"/>
<path opacity="0.1" d="M65.5515 27.9145C65.5413 27.9072 65.5311 27.9014 65.521 27.8948C65.7828 28.1304 65.7391 28.6452 65.4177 29.0699C65.0962 29.4945 64.6082 29.6712 64.3115 29.4807C64.321 29.4887 64.329 29.4974 64.3392 29.5054C64.6301 29.7279 65.1391 29.5534 65.4751 29.1142C65.8111 28.675 65.8439 28.1377 65.5515 27.9145Z" fill="black"/>
<path opacity="0.1" d="M59.9306 29.0154C59.6717 28.5485 59.7052 28.033 59.9983 27.8374C59.9874 27.8425 59.9757 27.8469 59.9648 27.8527C59.6434 28.0315 59.6012 28.5674 59.8674 29.0503C60.1335 29.5331 60.6135 29.7774 60.935 29.6014C60.9456 29.5953 60.9558 29.5885 60.9655 29.5811C60.6448 29.7265 60.1895 29.4822 59.9306 29.0154Z" fill="black"/>
<path opacity="0.1" d="M60.2767 25.0787L60.1829 25.2242L59.9436 25.0969L60.0694 24.9035C60.1526 24.9428 60.2241 25.0032 60.2767 25.0787Z" fill="black"/>
<path d="M58.7566 30.4602C58.7566 30.4602 58.9697 29.4582 58.6839 29.1398C58.3981 28.8213 58.4897 27.1518 58.9261 27.1881C59.3624 27.2245 60.017 28.545 59.9079 28.8242C59.7988 29.1034 59.3864 30.5329 59.3864 30.5329L58.7566 30.4602Z" fill="#FBBEBE"/>
<path opacity="0.1" d="M65.5995 23.2311C65.5492 23.3204 65.4753 23.3941 65.3857 23.4441C65.2947 23.4858 65.1947 23.5038 65.0948 23.4965C64.9966 23.4971 64.8995 23.476 64.8105 23.4347C64.5683 23.314 64.4781 23.0246 64.3647 22.7803C64.3503 22.7362 64.3247 22.6966 64.2905 22.6654C64.2316 22.6386 64.1682 22.6231 64.1036 22.6196C63.9676 22.589 63.8694 22.4705 63.8068 22.3469C63.7443 22.2233 63.7072 22.0866 63.6359 21.9681C63.5647 21.8495 63.4439 21.7456 63.305 21.7499C63.2146 21.7619 63.1266 21.7877 63.0439 21.8263C62.9263 21.864 62.801 21.8714 62.6797 21.8478C62.5584 21.8241 62.445 21.7702 62.3501 21.691C62.2917 21.6276 62.2222 21.5753 62.1451 21.5369C62.0925 21.5215 62.0375 21.5158 61.9829 21.5202C61.8992 21.5202 61.8163 21.5282 61.7327 21.5347C61.6913 21.589 61.6468 21.641 61.5996 21.6903C61.7269 21.6794 61.8549 21.6685 61.9829 21.6656C62.0375 21.6612 62.0925 21.6669 62.1451 21.6823C62.2222 21.7208 62.2917 21.773 62.3501 21.8365C62.445 21.9156 62.5584 21.9696 62.6797 21.9932C62.801 22.0169 62.9263 22.0095 63.0439 21.9717C63.1266 21.9331 63.2146 21.9073 63.305 21.8954C63.4439 21.8954 63.5639 21.9972 63.6359 22.1135C63.7079 22.2298 63.745 22.368 63.8068 22.4923C63.8687 22.6167 63.9676 22.7345 64.1036 22.765C64.1682 22.7685 64.2316 22.784 64.2905 22.8108C64.3271 22.8405 64.3552 22.8794 64.3719 22.9235C64.4854 23.1686 64.5756 23.458 64.8177 23.5779C64.9068 23.6192 65.0039 23.6403 65.1021 23.6397C65.2019 23.6471 65.302 23.6291 65.393 23.5874C65.4825 23.5374 65.5565 23.4637 65.6068 23.3743C65.7197 23.1688 65.7703 22.9348 65.7523 22.701C65.7467 22.8877 65.6942 23.07 65.5995 23.2311Z" fill="black"/>
<path d="M59.0789 31.255C59.4404 31.255 59.7334 31.0564 59.7334 30.8114C59.7334 30.5664 59.4404 30.3679 59.0789 30.3679C58.7174 30.3679 58.4243 30.5664 58.4243 30.8114C58.4243 31.0564 58.7174 31.255 59.0789 31.255Z" fill="#575A89"/>
<path d="M37.7441 55.5011C50.1351 55.5011 60.18 45.458 60.18 33.0691C60.18 20.6803 50.1351 10.6372 37.7441 10.6372C25.353 10.6372 15.3081 20.6803 15.3081 33.0691C15.3081 45.458 25.353 55.5011 37.7441 55.5011Z" fill="#968DFF"/>
<path d="M49.5162 44.3418C49.5162 47.8829 43.9483 44.6443 37.979 44.6443C32.0096 44.6443 25.9719 47.7491 25.9719 44.208C25.9719 42.1887 27.8963 39.3806 30.6569 37.341C32.7369 35.8038 35.291 34.7029 37.8568 34.7029C40.4953 34.7029 43.08 35.8947 45.1418 37.5307C47.7439 39.5936 49.5162 42.3654 49.5162 44.3418Z" fill="#444053"/>
<path d="M45.1411 37.5293C41.968 37.0516 36.2292 36.4691 30.657 37.3395C32.7369 35.8023 35.2911 34.7015 37.8568 34.7015C40.4946 34.7015 43.0793 35.8932 45.1411 37.5293Z" fill="#F6F8FB"/>
<path opacity="0.05" d="M25.9718 17.2344C25.9718 17.2344 19.2134 21.5543 19.2686 28.3115C19.3239 35.0687 25.9718 17.2344 25.9718 17.2344Z" fill="black"/>
<path d="M60.1713 5.03393C60.1713 5.03393 54.0477 4.66528 54.7699 8.95534C54.7699 8.95534 54.6244 9.71301 55.3139 10.0577C55.3139 10.0577 55.3248 9.73991 55.9415 9.84753C56.1613 9.88429 56.3846 9.89503 56.6069 9.87952C56.9073 9.8591 57.1928 9.74114 57.42 9.54359C57.42 9.54359 59.1415 8.83318 59.8113 6.01992C59.8113 6.01992 60.3065 5.40622 60.2869 5.24916L59.2534 5.6898C59.2534 5.6898 59.6062 6.43511 59.3262 7.05462C59.3262 7.05462 59.2927 5.71743 59.0942 5.74579C59.0542 5.75233 58.5575 6.00392 58.5575 6.00392C58.5575 6.00392 59.1647 7.30257 58.7029 8.24566C58.7029 8.24566 58.8767 6.64598 58.364 6.09772L57.6368 6.52237C57.6368 6.52237 58.3466 7.86319 57.8651 8.95752C57.8651 8.95752 57.9887 7.27931 57.484 6.62562L56.8244 7.1397C56.8244 7.1397 57.4913 8.46162 57.0848 9.36908C57.0848 9.36908 57.0317 7.41528 56.6819 7.26767C56.6819 7.26767 56.1051 7.77666 56.0171 7.98535C56.0171 7.98535 56.4739 8.94443 56.191 9.45051C56.191 9.45051 56.0171 8.14895 55.8746 8.14168C55.8746 8.14168 55.3001 9.00406 55.2397 9.59594C55.2397 9.59594 55.2652 8.71611 55.735 8.05952C55.735 8.05952 55.1793 8.15477 54.8557 8.51543C54.8557 8.51543 54.9452 7.90536 55.8739 7.85228C55.8739 7.85228 56.3488 7.19787 56.476 7.1586C56.476 7.1586 55.5488 7.0808 54.9866 7.33021C54.9866 7.33021 55.4812 6.75505 56.6455 7.01609L57.3 6.48528C57.3 6.48528 56.0797 6.31804 55.5619 6.50273C55.5619 6.50273 56.1575 5.99374 57.4753 6.36458L58.1844 5.94066C58.1844 5.94066 57.1437 5.71671 56.5233 5.79523C56.5233 5.79523 57.1779 5.44258 58.3916 5.82505L58.9007 5.59746C58.9007 5.59746 58.1378 5.44767 57.9146 5.4244C57.6913 5.40113 57.6797 5.3386 57.6797 5.3386C58.1641 5.25984 58.661 5.3175 59.1145 5.50511C59.1145 5.50511 60.1894 5.10155 60.1713 5.03393Z" fill="#968DFF"/>
<path d="M53.8908 3.12661C53.8908 3.12661 51.1272 2.95937 51.4501 4.89789C51.4501 4.89789 51.3853 5.24037 51.6959 5.39598C51.6959 5.39598 51.7002 5.25055 51.9795 5.30145C52.0788 5.31778 52.1795 5.32266 52.2799 5.31599C52.4157 5.3063 52.5448 5.253 52.6479 5.16402C52.6479 5.16402 53.4253 4.84263 53.7279 3.57161C53.7279 3.57161 53.9519 3.29457 53.9461 3.22332L53.4792 3.42255C53.4792 3.42255 53.6391 3.75921 53.5133 4.03915C53.5133 4.03915 53.4981 3.43491 53.4086 3.44945C53.3904 3.44945 53.1657 3.56579 53.1657 3.56579C53.1657 3.56579 53.4406 4.15259 53.2333 4.57868C53.2333 4.57868 53.3119 3.85592 53.0806 3.60797L52.7519 3.79993C52.7519 3.79993 53.0726 4.40635 52.8552 4.9008C52.8552 4.9008 52.9104 4.14241 52.6828 3.84719L52.3846 4.07915C52.3846 4.07915 52.6857 4.67612 52.5024 5.08622C52.5024 5.08622 52.4784 4.20349 52.3199 4.13659C52.3199 4.13659 52.0595 4.36636 52.0195 4.46089C52.0195 4.46089 52.2261 4.89717 52.0981 5.1233C52.0981 5.1233 52.0195 4.53506 51.9526 4.53287C51.9526 4.53287 51.693 4.92189 51.6661 5.18729C51.6786 4.9403 51.7556 4.7009 51.8893 4.49288C51.7397 4.52119 51.6016 4.59273 51.4923 4.69866C51.4923 4.69866 51.5323 4.42308 51.9533 4.39908C51.9533 4.39908 52.1679 4.10387 52.2253 4.08569C52.2253 4.08569 51.8064 4.05079 51.5526 4.16349C51.5526 4.16349 51.7759 3.90318 52.3024 4.01807L52.5933 3.77884C52.5933 3.77884 52.0421 3.70613 51.8079 3.78611C51.8079 3.78611 52.077 3.55634 52.6726 3.72431L52.9926 3.53235C52.9926 3.53235 52.5228 3.43127 52.2421 3.46763C52.2421 3.46763 52.5381 3.30839 53.0864 3.48145L53.3155 3.37819C53.3155 3.37819 52.9708 3.31057 52.8704 3.30039C52.7701 3.29021 52.7635 3.26185 52.7635 3.26185C52.9818 3.22554 53.206 3.25072 53.4108 3.33457C53.4108 3.33457 53.8988 3.15715 53.8908 3.12661Z" fill="#968DFF"/>
<path opacity="0.1" d="M78.0415 53.0812C79.1232 53.0812 80 52.9331 80 52.7503C80 52.5676 79.1232 52.4195 78.0415 52.4195C76.9599 52.4195 76.083 52.5676 76.083 52.7503C76.083 52.9331 76.9599 53.0812 78.0415 53.0812Z" fill="#968DFF"/>
<path opacity="0.1" d="M3.40138 58.5849C4.48304 58.5849 5.35989 58.4367 5.35989 58.254C5.35989 58.0713 4.48304 57.9232 3.40138 57.9232C2.31973 57.9232 1.44287 58.0713 1.44287 58.254C1.44287 58.4367 2.31973 58.5849 3.40138 58.5849Z" fill="#968DFF"/>
<path opacity="0.1" d="M14.7708 59C15.8524 59 16.7293 58.8519 16.7293 58.6692C16.7293 58.4864 15.8524 58.3383 14.7708 58.3383C13.6891 58.3383 12.8123 58.4864 12.8123 58.6692C12.8123 58.8519 13.6891 59 14.7708 59Z" fill="#968DFF"/>
<path d="M73.7551 56.7902C75.3702 56.7902 76.6794 56.5689 76.6794 56.2958C76.6794 56.0227 75.3702 55.8013 73.7551 55.8013C72.1401 55.8013 70.8308 56.0227 70.8308 56.2958C70.8308 56.5689 72.1401 56.7902 73.7551 56.7902Z" fill="#968DFF"/>
<path d="M74.9638 55.488C75.0973 55.3791 75.1946 55.2323 75.2431 55.067C75.2787 54.9005 75.2074 54.6998 75.0482 54.6387C74.8693 54.5704 74.678 54.6947 74.5333 54.8198C74.3885 54.9449 74.222 55.0874 74.0322 55.0612C74.1298 54.9728 74.2028 54.8606 74.2441 54.7356C74.2854 54.6106 74.2936 54.477 74.2678 54.3479C74.2595 54.2944 74.2369 54.2441 74.2024 54.2025C74.1027 54.0963 73.9231 54.1414 73.8038 54.225C73.4256 54.4911 73.3202 55.0045 73.318 55.4669C73.2802 55.3004 73.3122 55.1266 73.3115 54.9579C73.3107 54.7893 73.2635 54.5944 73.1195 54.5049C73.0301 54.4572 72.9298 54.4337 72.8286 54.4366C72.6584 54.4301 72.4693 54.4468 72.3529 54.5711C72.2075 54.726 72.246 54.9848 72.3718 55.1528C72.4976 55.3208 72.6882 55.4299 72.8635 55.5469C73.0045 55.6308 73.1248 55.7453 73.2155 55.8821C73.2261 55.9014 73.2348 55.9216 73.2416 55.9425H74.3071C74.5455 55.8213 74.7664 55.6684 74.9638 55.488Z" fill="#968DFF"/>
<path d="M4.31544 49.3909C4.31544 49.3909 4.71471 49.913 4.13072 50.6998C3.54673 51.4865 3.06528 52.154 3.25801 52.6456C3.25801 52.6456 4.13872 51.1811 4.85798 51.16C5.57724 51.1389 5.10379 50.2715 4.31544 49.3909Z" fill="#968DFF"/>
<path opacity="0.1" d="M4.3156 49.3909C4.35027 49.4414 4.37769 49.4965 4.39705 49.5545C5.09667 50.3762 5.46903 51.1433 4.79704 51.1622C4.17014 51.1804 3.41525 52.3002 3.23853 52.583C3.2447 52.605 3.25199 52.6266 3.26034 52.6477C3.26034 52.6477 4.14105 51.1833 4.86031 51.1622C5.57957 51.1411 5.10395 50.2715 4.3156 49.3909Z" fill="black"/>
<path d="M5.05818 50.0563C5.05818 50.2403 5.03709 50.3893 5.01164 50.3893C4.98618 50.3893 4.96582 50.2439 4.96582 50.0563C4.96582 49.8687 4.99128 49.9589 5.01746 49.9589C5.04364 49.9589 5.05818 49.8723 5.05818 50.0563Z" fill="#FFD037"/>
<path d="M5.30967 50.2759C5.14822 50.3639 5.00786 50.417 4.9955 50.3945C4.98313 50.3719 5.10458 50.2832 5.26604 50.1952C5.42749 50.1072 5.36349 50.1712 5.37585 50.1952C5.38822 50.2192 5.47403 50.1879 5.30967 50.2759Z" fill="#FFD037"/>
<path d="M2.20512 49.3909C2.20512 49.3909 1.80586 49.913 2.38912 50.6998C2.97238 51.4865 3.45455 52.154 3.26183 52.6456C3.26183 52.6456 2.38039 51.1811 1.66186 51.16C0.943327 51.1389 1.41605 50.2715 2.20512 49.3909Z" fill="#968DFF"/>
<path opacity="0.1" d="M2.20496 49.3909C2.16996 49.4412 2.14252 49.4963 2.1235 49.5545C1.42388 50.3762 1.05079 51.1433 1.72351 51.1622C2.34968 51.1804 3.1053 52.3002 3.2813 52.583C3.27537 52.6049 3.26833 52.6265 3.26021 52.6477C3.26021 52.6477 2.37877 51.1833 1.66024 51.1622C0.941706 51.1411 1.41588 50.2715 2.20496 49.3909Z" fill="black"/>
<path d="M1.46265 50.0563C1.46265 50.2403 1.48301 50.3893 1.50846 50.3893C1.53392 50.3893 1.55428 50.2439 1.55428 50.0563C1.55428 49.8687 1.52883 49.9589 1.50337 49.9589C1.47792 49.9589 1.46265 49.8723 1.46265 50.0563Z" fill="#FFD037"/>
<path d="M1.2072 50.2759C1.36865 50.3639 1.50974 50.417 1.5221 50.3945C1.53446 50.3719 1.41301 50.2832 1.25156 50.1952C1.09011 50.1072 1.15338 50.1712 1.14174 50.1952C1.13011 50.2192 1.04575 50.1879 1.2072 50.2759Z" fill="#FFD037"/>
<path d="M1.58984 52.5794C1.58984 52.5794 2.70691 52.5452 3.04436 52.3053C3.38181 52.0653 4.76288 51.7796 4.84651 52.1598C4.93015 52.5401 6.52503 54.0722 5.26396 54.0824C4.00289 54.0926 2.33383 53.8853 1.99784 53.681C1.66184 53.4767 1.58984 52.5794 1.58984 52.5794Z" fill="#A8A8A8"/>
<path opacity="0.2" d="M5.28505 53.9523C4.02398 53.9624 2.35492 53.7552 2.01893 53.5509C1.76293 53.3953 1.66112 52.8361 1.62693 52.578H1.58984C1.58984 52.578 1.66257 53.4789 1.99638 53.6832C2.33019 53.8876 4.00144 54.0948 5.2625 54.0846C5.62613 54.0846 5.75195 53.9515 5.74541 53.7603C5.6945 53.8774 5.55632 53.9501 5.28505 53.9523Z" fill="black"/>
<path d="M29.7675 30.1279C30.1944 30.1039 32.2038 29.9526 33.4801 29.2248C33.6851 29.1042 33.9167 29.036 34.1543 29.0263C34.5601 29.0147 35.027 29.1841 34.7281 30.1322C34.2437 31.6832 31.4314 33.4283 29.686 33.3316C28.0075 33.2385 26.0163 32.5623 24.7014 30.1846C24.5754 29.9558 24.5133 29.6974 24.5217 29.4364C24.537 28.9565 24.7116 28.3551 25.6126 29.0256C26.8301 29.9308 29.1398 30.1024 29.6031 30.1279C29.6578 30.1308 29.7127 30.1308 29.7675 30.1279Z" fill="#444053"/>
<path d="M45.9127 30.1279C46.3396 30.1039 48.349 29.9526 49.6254 29.2248C49.8304 29.1042 50.0619 29.036 50.2995 29.0263C50.7054 29.0147 51.1723 29.1841 50.8734 30.1322C50.389 31.6832 47.5767 33.4283 45.8313 33.3316C44.1528 33.2385 42.1615 32.5623 40.8466 30.1846C40.7207 29.9558 40.6586 29.6974 40.667 29.4364C40.6823 28.9565 40.8568 28.3551 41.7579 29.0256C42.9753 29.9308 45.2851 30.1024 45.7484 30.1279C45.8031 30.1308 45.858 30.1308 45.9127 30.1279Z" fill="#444053"/>
</g>
<defs>
<linearGradient id="paint0_linear_5075_3747" x1="64.8817" y1="55.1157" x2="64.8817" y2="19.1926" gradientUnits="userSpaceOnUse">
<stop stop-color="#808080" stop-opacity="0.25"/>
<stop offset="0.54" stop-color="#808080" stop-opacity="0.12"/>
<stop offset="1" stop-color="#808080" stop-opacity="0.1"/>
</linearGradient>
<clipPath id="clip0_5075_3747">
<rect width="80" height="59" fill="white"/>
</clipPath>
</defs>
</svg>
