<svg width="19" height="19" viewBox="0 0 19 19" fill="none" xmlns="http://www.w3.org/2000/svg">
<path d="M15.1036 10.4259C15.3603 9.08696 15.1448 7.70049 14.4938 6.50268C13.8428 5.30487 12.7966 4.36984 11.5336 3.85689C10.2705 3.34395 8.86859 3.28483 7.56679 3.68962C6.265 4.09441 5.14383 4.93805 4.39433 6.0768C3.64482 7.21556 3.31335 8.57896 3.4564 9.93471C3.59944 11.2905 4.20814 12.5547 5.17879 13.5119C6.14944 14.4692 7.42198 15.0603 8.77959 15.1845C10.1372 15.3087 11.4959 14.9583 12.6241 14.1931L13 14C11.8859 14.7557 10.1269 15.2335 8.78632 15.1109C7.44574 14.9883 6.18916 14.4046 5.23068 13.4593C4.2722 12.5141 3.67112 11.2657 3.52988 9.92696C3.38863 8.58821 3.71594 7.2419 4.45605 6.11743C5.19616 4.99295 6.30326 4.15989 7.58873 3.76018C8.8742 3.36046 10.2585 3.41884 11.5058 3.92535C12.753 4.43186 13.786 5.35517 14.4289 6.53796C15.0717 7.72075 15.2845 9.08984 15.031 10.4119L15.1036 10.4259Z" stroke="white" stroke-width="1.3" stroke-linejoin="round"/>
<path d="M13 13.35C12.641 13.35 12.35 13.641 12.35 14C12.35 14.359 12.641 14.65 13 14.65V13.35ZM16.5 14V14.65C16.7185 14.65 16.9224 14.5402 17.0426 14.3578C17.1629 14.1754 17.1835 13.9448 17.0974 13.744L16.5 14ZM15.5974 10.244C15.456 9.91399 15.0739 9.76114 14.744 9.90256C14.414 10.044 14.2611 10.4261 14.4026 10.756L15.5974 10.244ZM13 14.65H16.5V13.35H13V14.65ZM17.0974 13.744L15.5974 10.244L14.4026 10.756L15.9026 14.256L17.0974 13.744Z" fill="white"/>
</svg>
