<svg width="185" height="64" viewBox="0 0 185 64" fill="none" xmlns="http://www.w3.org/2000/svg">
<path d="M92.2916 17.9V28.4H106.468V35.06H92.2916V46.16H108.278V53H83.8462V11.06H108.278V17.9H92.2916ZM124.579 45.92H143.521V53H114.806V46.52L133.627 18.2H114.806V11.12H143.521V17.6L124.579 45.92ZM184.19 11.12L169.953 38.42V53H161.508V38.42L147.211 11.12H156.742L165.791 30.26L174.779 11.12H184.19Z" fill="url(#paint0_linear)"/>
<path d="M92.2916 17.9V28.4H106.468V35.06H92.2916V46.16H108.278V53H83.8462V11.06H108.278V17.9H92.2916ZM124.579 45.92H143.521V53H114.806V46.52L133.627 18.2H114.806V11.12H143.521V17.6L124.579 45.92ZM184.19 11.12L169.953 38.42V53H161.508V38.42L147.211 11.12H156.742L165.791 30.26L174.779 11.12H184.19Z" fill="url(#paint1_linear)"/>
<path d="M36.2026 30.8215C36.1687 29.4605 36.8869 28.1913 38.0711 27.5195L59.5926 15.31C62.1023 13.8862 65.2237 15.6525 65.2955 18.537C65.3309 19.9597 64.5724 21.2841 63.3273 21.9734L41.6801 33.9587C39.2555 35.3011 36.2715 33.5921 36.2026 30.8215Z" fill="#825EFF"/>
<path d="M36.2026 30.8215C36.1687 29.4605 36.8869 28.1913 38.0711 27.5195L59.5926 15.31C62.1023 13.8862 65.2237 15.6525 65.2955 18.537C65.3309 19.9597 64.5724 21.2841 63.3273 21.9734L41.6801 33.9587C39.2555 35.3011 36.2715 33.5921 36.2026 30.8215Z" fill="url(#paint2_linear)"/>
<path d="M36.5256 43.8036C36.4917 42.4425 37.2099 41.1733 38.3941 40.5015L59.9156 28.292C62.4253 26.8682 65.5467 28.6345 65.6185 31.519C65.6539 32.9417 64.8954 34.2661 63.6503 34.9554L42.0031 46.9407C39.5785 48.2831 36.5945 46.5741 36.5256 43.8036Z" fill="#825EFF"/>
<path d="M36.5256 43.8036C36.4917 42.4425 37.2099 41.1733 38.3941 40.5015L59.9156 28.292C62.4253 26.8682 65.5467 28.6345 65.6185 31.519C65.6539 32.9417 64.8954 34.2661 63.6503 34.9554L42.0031 46.9407C39.5785 48.2831 36.5945 46.5741 36.5256 43.8036Z" fill="url(#paint3_linear)"/>
<path d="M36.8511 56.8832C36.8172 55.5222 37.5354 54.253 38.7196 53.5812L60.2411 41.3716C62.7508 39.9479 65.8722 41.7142 65.944 44.5986C65.9794 46.0213 65.2209 47.3457 63.9758 48.0351L42.3286 60.0204C39.904 61.3628 36.92 59.6538 36.8511 56.8832Z" fill="#825EFF"/>
<path d="M36.8511 56.8832C36.8172 55.5222 37.5354 54.253 38.7196 53.5812L60.2411 41.3716C62.7508 39.9479 65.8722 41.7142 65.944 44.5986C65.9794 46.0213 65.2209 47.3457 63.9758 48.0351L42.3286 60.0204C39.904 61.3628 36.92 59.6538 36.8511 56.8832Z" fill="url(#paint4_linear)"/>
<path d="M37.8613 60.4568C36.6114 59.7761 35.8378 58.4625 35.8485 57.0393L36.044 31.1734C36.0668 28.1572 39.2974 26.2545 41.9463 27.6972C43.2529 28.4088 44.0554 29.7877 44.0287 31.2752L43.5645 57.1377C43.5125 60.0344 40.4056 61.8426 37.8613 60.4568Z" fill="#825EFF"/>
<path d="M37.8613 60.4568C36.6114 59.7761 35.8378 58.4625 35.8485 57.0393L36.044 31.1734C36.0668 28.1572 39.2974 26.2545 41.9463 27.6972C43.2529 28.4088 44.0554 29.7877 44.0287 31.2752L43.5645 57.1377C43.5125 60.0344 40.4056 61.8426 37.8613 60.4568Z" fill="url(#paint5_linear)"/>
<path d="M25.3101 24.8417C25.2762 23.4807 25.9944 22.2115 27.1786 21.5397L48.7001 9.33012C51.2097 7.90637 54.3312 9.67267 54.403 12.5571C54.4384 13.9798 53.6798 15.3042 52.4348 15.9936L30.7875 27.9789C28.363 29.3213 25.379 27.6123 25.3101 24.8417Z" fill="#2E29FF"/>
<path d="M25.3101 24.8417C25.2762 23.4807 25.9944 22.2115 27.1786 21.5397L48.7001 9.33012C51.2097 7.90637 54.3312 9.67267 54.403 12.5571C54.4384 13.9798 53.6798 15.3042 52.4348 15.9936L30.7875 27.9789C28.363 29.3213 25.379 27.6123 25.3101 24.8417Z" fill="url(#paint6_linear)"/>
<path d="M26.9688 54.477C25.7189 53.7963 24.9453 52.4827 24.956 51.0595L25.1515 25.1936C25.1743 22.1774 28.4049 20.2747 31.0538 21.7174C32.3603 22.4289 33.1629 23.8079 33.1362 25.2954L32.672 51.1579C32.62 54.0546 29.5131 55.8627 26.9688 54.477Z" fill="#2E29FF"/>
<path d="M26.9688 54.477C25.7189 53.7963 24.9453 52.4827 24.956 51.0595L25.1515 25.1936C25.1743 22.1774 28.4049 20.2747 31.0538 21.7174C32.3603 22.4289 33.1629 23.8079 33.1362 25.2954L32.672 51.1579C32.62 54.0546 29.5131 55.8627 26.9688 54.477Z" fill="url(#paint7_linear)"/>
<path d="M14.8032 18.657C14.7694 17.2959 15.4875 16.0267 16.6717 15.3549L38.1933 3.14537C40.7029 1.72161 43.8244 3.48792 43.8961 6.37239C43.9315 7.79509 43.173 9.11949 41.928 9.80882L20.2807 21.7941C17.8561 23.1365 14.8722 21.4275 14.8032 18.657Z" fill="#0033FF"/>
<path d="M14.8032 18.657C14.7694 17.2959 15.4875 16.0267 16.6717 15.3549L38.1933 3.14537C40.7029 1.72161 43.8244 3.48792 43.8961 6.37239C43.9315 7.79509 43.173 9.11949 41.928 9.80882L20.2807 21.7941C17.8561 23.1365 14.8722 21.4275 14.8032 18.657Z" fill="url(#paint8_linear)"/>
<path d="M16.462 48.2923C15.2121 47.6115 14.4384 46.2979 14.4492 44.8747L14.6446 19.0088C14.6674 15.9926 17.8981 14.0899 20.547 15.5326C21.8535 16.2442 22.656 17.6232 22.6293 19.1107L22.1651 44.9731C22.1131 47.8698 19.0062 49.678 16.462 48.2923Z" fill="#0033FF"/>
<path d="M16.462 48.2923C15.2121 47.6115 14.4384 46.2979 14.4492 44.8747L14.6446 19.0088C14.6674 15.9926 17.8981 14.0899 20.547 15.5326C21.8535 16.2442 22.656 17.6232 22.6293 19.1107L22.1651 44.9731C22.1131 47.8698 19.0062 49.678 16.462 48.2923Z" fill="url(#paint9_linear)"/>
<defs>
<linearGradient id="paint0_linear" x1="79.6838" y1="32" x2="185" y2="32" gradientUnits="userSpaceOnUse">
<stop stop-color="#6B40FF"/>
<stop offset="0.510417" stop-color="#1F1AFF"/>
<stop offset="1" stop-color="#8099FF"/>
</linearGradient>
<linearGradient id="paint1_linear" x1="132.342" y1="-13" x2="132.342" y2="77" gradientUnits="userSpaceOnUse">
<stop stop-color="white"/>
<stop offset="1" stop-color="white" stop-opacity="0"/>
</linearGradient>
<linearGradient id="paint2_linear" x1="50.4467" y1="12.5301" x2="51.0442" y2="36.542" gradientUnits="userSpaceOnUse">
<stop stop-color="white"/>
<stop offset="1" stop-color="white" stop-opacity="0"/>
</linearGradient>
<linearGradient id="paint3_linear" x1="50.7697" y1="25.5121" x2="51.3672" y2="49.524" gradientUnits="userSpaceOnUse">
<stop stop-color="white"/>
<stop offset="1" stop-color="white" stop-opacity="0"/>
</linearGradient>
<linearGradient id="paint4_linear" x1="51.0952" y1="38.5918" x2="51.6927" y2="62.6037" gradientUnits="userSpaceOnUse">
<stop stop-color="white"/>
<stop offset="1" stop-color="white" stop-opacity="0"/>
</linearGradient>
<linearGradient id="paint5_linear" x1="28.7469" y1="38.0005" x2="50.7978" y2="50.0103" gradientUnits="userSpaceOnUse">
<stop stop-color="white"/>
<stop offset="1" stop-color="white" stop-opacity="0"/>
</linearGradient>
<linearGradient id="paint6_linear" x1="39.5542" y1="6.55029" x2="40.1517" y2="30.5622" gradientUnits="userSpaceOnUse">
<stop stop-color="white"/>
<stop offset="1" stop-color="white" stop-opacity="0"/>
</linearGradient>
<linearGradient id="paint7_linear" x1="17.8543" y1="32.0206" x2="39.9053" y2="44.0305" gradientUnits="userSpaceOnUse">
<stop stop-color="white"/>
<stop offset="1" stop-color="white" stop-opacity="0"/>
</linearGradient>
<linearGradient id="paint8_linear" x1="29.0474" y1="0.365539" x2="29.6449" y2="24.3774" gradientUnits="userSpaceOnUse">
<stop stop-color="white"/>
<stop offset="1" stop-color="white" stop-opacity="0"/>
</linearGradient>
<linearGradient id="paint9_linear" x1="7.3475" y1="25.8359" x2="29.3984" y2="37.8457" gradientUnits="userSpaceOnUse">
<stop stop-color="white"/>
<stop offset="1" stop-color="white" stop-opacity="0"/>
</linearGradient>
</defs>
</svg>
