<svg width="13" height="14" viewBox="0 0 13 14" fill="none" xmlns="http://www.w3.org/2000/svg">
<path fill-rule="evenodd" clip-rule="evenodd" d="M6.16432 13.6666C5.26098 13.6666 4.38032 13.6566 3.50898 13.6386C2.39432 13.6166 1.62298 12.8939 1.49698 11.7526C1.28698 9.85927 0.927651 5.3966 0.924317 5.35194C0.901651 5.0766 1.10698 4.83527 1.38232 4.81327C1.65365 4.80594 1.89898 4.9966 1.92098 5.27127C1.92432 5.3166 2.28298 9.76394 2.49098 11.6426C2.56232 12.2913 2.91232 12.6259 3.52965 12.6386C5.19632 12.6739 6.89698 12.6759 8.73032 12.6426C9.38632 12.6299 9.74098 12.3019 9.81432 11.6379C10.021 9.77527 10.381 5.3166 10.385 5.27127C10.407 4.9966 10.6503 4.8046 10.923 4.81327C11.1983 4.83594 11.4037 5.0766 11.3817 5.35194C11.3777 5.39727 11.0163 9.87127 10.8083 11.7479C10.679 12.9126 9.90965 13.6213 8.74832 13.6426C7.85965 13.6579 7.00232 13.6666 6.16432 13.6666" fill="white"/>
<path fill-rule="evenodd" clip-rule="evenodd" d="M11.8053 3.65942H0.5C0.224 3.65942 0 3.43542 0 3.15942C0 2.88342 0.224 2.65942 0.5 2.65942H11.8053C12.0813 2.65942 12.3053 2.88342 12.3053 3.15942C12.3053 3.43542 12.0813 3.65942 11.8053 3.65942" fill="white"/>
<path fill-rule="evenodd" clip-rule="evenodd" d="M9.62689 3.6595C8.86822 3.6595 8.20956 3.11883 8.06022 2.37483L7.89822 1.56416C7.86422 1.44083 7.72356 1.3335 7.56356 1.3335H4.74156C4.58156 1.3335 4.44089 1.44083 4.40022 1.59483L4.24489 2.37483C4.09622 3.11883 3.43689 3.6595 2.67822 3.6595C2.40222 3.6595 2.17822 3.4355 2.17822 3.1595C2.17822 2.8835 2.40222 2.6595 2.67822 2.6595C2.96222 2.6595 3.20889 2.45683 3.26489 2.17816L3.42689 1.3675C3.59156 0.746163 4.12956 0.333496 4.74156 0.333496H7.56356C8.17556 0.333496 8.71356 0.746163 8.87156 1.3375L9.04089 2.17816C9.09622 2.45683 9.34289 2.6595 9.62689 2.6595C9.90289 2.6595 10.1269 2.8835 10.1269 3.1595C10.1269 3.4355 9.90289 3.6595 9.62689 3.6595" fill="white"/>
</svg>
