<svg width="24" height="24" viewBox="0 0 24 24" fill="none" xmlns="http://www.w3.org/2000/svg">
<path d="M20 12.2743C20 12.654 19.7178 12.9678 19.3518 13.0174L19.25 13.0243L4.25 13.0243C3.83579 13.0243 3.5 12.6885 3.5 12.2743C3.5 11.8946 3.78215 11.5808 4.14823 11.5311L4.25 11.5243L19.25 11.5243C19.6642 11.5243 20 11.8601 20 12.2743Z" fill="#AAA8FF"/>
<path d="M10.829 17.7672C11.1225 18.0595 11.1235 18.5344 10.8313 18.8279C10.5656 19.0947 10.149 19.1198 9.85489 18.9026L9.77062 18.8302L3.72062 12.8062C3.45298 12.5397 3.42863 12.1216 3.64759 11.8275L3.72057 11.7433L9.77057 5.71827C10.0641 5.42598 10.5389 5.42696 10.8312 5.72046C11.0969 5.98728 11.1203 6.40399 10.9018 6.69715L10.829 6.78112L5.313 12.275L10.829 17.7672Z" fill="#AAA8FF"/>
</svg>
