<?xml version="1.0"?>
<svg xmlns="http://www.w3.org/2000/svg" xmlns:xlink="http://www.w3.org/1999/xlink" xmlns:svgjs="http://svgjs.com/svgjs" version="1.1" width="512" height="512" x="0" y="0" viewBox="0 0 379.2 379.2" style="enable-background:new 0 0 512 512" xml:space="preserve" class=""><g>
<g xmlns="http://www.w3.org/2000/svg">
	<g>
		<path d="M378.4,146.4c0,0,0,0,0-0.8c-0.8-0.8-0.8-1.6-1.6-1.6L196,34.4c-0.8-0.8-1.6-0.8-2.4-0.8L6.4,24c-3.2,0-4.8,1.6-6.4,4    c0,0.8,0,1.6,0,1.6v53.6c0,2.4,0.8,4,3.2,4.8l46.4,28.8L8.8,143.2c-1.6,1.6-2.4,3.2-2.4,5.6l2.4,82.4c0,1.6,0.8,4,2.4,4.8    l179.2,118.4c0.8,0,1.6,0.8,2.4,0.8s1.6,0,2.4-0.8L374.4,236c1.6-0.8,2.4-3.2,2.4-4.8l2.4-82.4C379.2,148,379.2,147.2,378.4,146.4    z M191.2,45.6l160.8,96l-165.6-4L28.8,36.8L191.2,45.6z M354.4,153.6l-43.2,27.2H210.4l-16-31.2L354.4,153.6z M12,80V40.8    l162.4,104l-21.6,20.8L12,80z M61.6,123.2l36,23.2l-36.8,24.8L24,148L61.6,123.2z M187.2,338.4L20,227.2l-1.6-68L187.2,264V338.4z     M193.6,253.6L72,178.4l37.6-24.8l41.6,25.6c2.4,1.6,5.6,0.8,7.2-0.8l24.8-24l18.4,36c0.8,2.4,3.2,3.2,5.6,3.2H292L193.6,253.6z     M366.4,227.2L199.2,338.4V264L368,159.2L366.4,227.2z" fill="#8d8d8d" data-original="#000000" style=""/>
	</g>
</g>
<g xmlns="http://www.w3.org/2000/svg">
</g>
<g xmlns="http://www.w3.org/2000/svg">
</g>
<g xmlns="http://www.w3.org/2000/svg">
</g>
<g xmlns="http://www.w3.org/2000/svg">
</g>
<g xmlns="http://www.w3.org/2000/svg">
</g>
<g xmlns="http://www.w3.org/2000/svg">
</g>
<g xmlns="http://www.w3.org/2000/svg">
</g>
<g xmlns="http://www.w3.org/2000/svg">
</g>
<g xmlns="http://www.w3.org/2000/svg">
</g>
<g xmlns="http://www.w3.org/2000/svg">
</g>
<g xmlns="http://www.w3.org/2000/svg">
</g>
<g xmlns="http://www.w3.org/2000/svg">
</g>
<g xmlns="http://www.w3.org/2000/svg">
</g>
<g xmlns="http://www.w3.org/2000/svg">
</g>
<g xmlns="http://www.w3.org/2000/svg">
</g>
</g></svg>
