<svg width="20" height="20" viewBox="0 0 20 20" fill="none" xmlns="http://www.w3.org/2000/svg">
<g id="&#236;&#136;&#152;&#236;&#160;&#149; &#235;&#178;&#132;&#237;&#138;&#188;">
<g id="Edit">
<path id="Fill 1" fill-rule="evenodd" clip-rule="evenodd" d="M17.2925 18.2831H11.2483C10.9033 18.2831 10.6233 18.0031 10.6233 17.6581C10.6233 17.3131 10.9033 17.0331 11.2483 17.0331H17.2925C17.6375 17.0331 17.9175 17.3131 17.9175 17.6581C17.9175 18.0031 17.6375 18.2831 17.2925 18.2831Z" fill="#968DFF"/>
<g id="Group 5">
<mask id="mask0" mask-type="alpha" maskUnits="userSpaceOnUse" x="1" y="2" width="15" height="17">
<path id="Clip 4" fill-rule="evenodd" clip-rule="evenodd" d="M1.66699 2.50012H15.9841V18.2831H1.66699V2.50012Z" fill="white"/>
</mask>
<g mask="url(#mask0)">
<path id="Fill 3" fill-rule="evenodd" clip-rule="evenodd" d="M10.9256 4.18066L3.07974 13.9932C2.93724 14.1715 2.88474 14.4015 2.93724 14.6223L3.50474 17.0265L6.03724 16.9948C6.27807 16.9923 6.50057 16.8848 6.64807 16.7015C9.32891 13.3473 14.4397 6.95232 14.5847 6.76482C14.7214 6.54316 14.7747 6.22982 14.7031 5.92816C14.6297 5.61899 14.4372 5.35649 14.1597 5.18899C14.1006 5.14816 12.6964 4.05816 12.6531 4.02399C12.1247 3.60066 11.3539 3.67399 10.9256 4.18066ZM3.01139 18.2832C2.72222 18.2832 2.47055 18.0848 2.40305 17.8023L1.72055 14.9098C1.57972 14.3107 1.71972 13.6923 2.10389 13.2123L9.95389 3.39399C9.95722 3.39066 9.95972 3.38649 9.96305 3.38316C10.8239 2.35399 12.3806 2.20232 13.4306 3.04482C13.4722 3.07732 14.8664 4.16066 14.8664 4.16066C15.3731 4.46232 15.7689 5.00149 15.9189 5.63983C16.0681 6.27149 15.9597 6.92316 15.6122 7.47399C15.5864 7.51483 15.5639 7.54983 7.62389 17.4832C7.24139 17.9598 6.66805 18.2373 6.05222 18.2448L3.01972 18.2832H3.01139Z" fill="#968DFF"/>
</g>
</g>
<path id="Fill 6" fill-rule="evenodd" clip-rule="evenodd" d="M13.5196 9.73735C13.3863 9.73735 13.2529 9.69485 13.1388 9.60818L8.59543 6.11818C8.3221 5.90818 8.27043 5.51652 8.48043 5.24152C8.69126 4.96818 9.08293 4.91735 9.3571 5.12735L13.9013 8.61651C14.1746 8.82651 14.2263 9.21901 14.0154 9.49318C13.8929 9.65318 13.7071 9.73735 13.5196 9.73735Z" fill="#968DFF"/>
</g>
</g>
</svg>
