<svg width="135" height="80" viewBox="0 0 135 80" fill="none" xmlns="http://www.w3.org/2000/svg">
<g clip-path="url(#clip0_7074:4886)">
<path d="M85.3877 22.4487H68.6423V19.3345C68.6423 19.137 68.551 18.9475 68.3886 18.8078C68.2261 18.6681 68.0058 18.5897 67.776 18.5897H62.8587V15.2725C62.8587 15.1481 62.8013 15.0289 62.699 14.9409C62.5967 14.853 62.458 14.8036 62.3134 14.8036H55.9793C55.8346 14.8036 55.6959 14.853 55.5936 14.9409C55.4914 15.0289 55.4339 15.1481 55.4339 15.2725V18.5908H49.6529C49.4232 18.5908 49.2028 18.6693 49.0404 18.809C48.8779 18.9487 48.7866 19.1381 48.7866 19.3357V22.4498H32.8189C32.7724 22.4501 32.7279 22.4662 32.6952 22.4945C32.6624 22.5229 32.644 22.5613 32.644 22.6012V63.9407C32.644 63.9807 32.6624 64.0191 32.6952 64.0474C32.7279 64.0758 32.7724 64.0919 32.8189 64.0922H43.431C43.4777 64.0922 43.5225 64.0762 43.5555 64.0478C43.5886 64.0194 43.6071 63.9809 43.6071 63.9407V58.3788C43.6075 58.3388 43.6261 58.3004 43.6591 58.2721C43.6921 58.2437 43.7367 58.2277 43.7833 58.2274H48.2661C48.3127 58.2277 48.3573 58.2437 48.3902 58.2721C48.4232 58.3004 48.4419 58.3388 48.4422 58.3788V63.9407C48.4422 63.9807 48.4606 64.0191 48.4933 64.0474C48.5261 64.0758 48.5705 64.0919 48.617 64.0922H69.5869C69.6335 64.0919 69.6781 64.0758 69.7111 64.0475C69.744 64.0192 69.7627 63.9808 69.763 63.9407V58.3788C69.763 58.3389 69.7814 58.3005 69.8141 58.2722C69.8469 58.2438 69.8914 58.2277 69.9378 58.2274H74.4207C74.4674 58.2274 74.5122 58.2434 74.5452 58.2718C74.5782 58.3002 74.5968 58.3387 74.5968 58.3788V63.9407C74.5971 63.9808 74.6158 64.0192 74.6488 64.0475C74.6817 64.0758 74.7263 64.0919 74.7729 64.0922H85.3851C85.4317 64.0919 85.4763 64.0758 85.5092 64.0475C85.5422 64.0192 85.5609 63.9808 85.5612 63.9407V22.6001C85.5609 22.5604 85.5426 22.5224 85.5102 22.4941C85.4778 22.4658 85.4338 22.4495 85.3877 22.4487ZM41.7075 56.2957C41.7075 56.3355 41.6891 56.3738 41.6563 56.402C41.6235 56.4301 41.5791 56.446 41.5327 56.446H34.9781C34.955 56.4461 34.9321 56.4424 34.9108 56.4349C34.8894 56.4274 34.87 56.4163 34.8536 56.4024C34.8372 56.3884 34.8243 56.3718 34.8154 56.3534C34.8065 56.3351 34.802 56.3155 34.802 56.2957V54.3763C34.802 54.3564 34.8065 54.3367 34.8154 54.3183C34.8242 54.2999 34.8372 54.2832 34.8535 54.2692C34.8699 54.2551 34.8893 54.2439 34.9107 54.2363C34.9321 54.2287 34.955 54.2248 34.9781 54.2248H41.5366C41.5831 54.2251 41.6276 54.2412 41.6603 54.2696C41.6931 54.2979 41.7115 54.3363 41.7115 54.3763L41.7075 56.2957ZM41.7075 51.3216C41.7077 51.3414 41.7033 51.3611 41.6946 51.3795C41.6859 51.3978 41.6731 51.4145 41.6568 51.4286C41.6405 51.4427 41.6212 51.4539 41.5999 51.4615C41.5786 51.4691 41.5558 51.473 41.5327 51.473H34.9781C34.9549 51.4732 34.9319 51.4694 34.9105 51.4618C34.889 51.4543 34.8695 51.4431 34.8532 51.429C34.8368 51.4149 34.8238 51.3982 34.815 51.3797C34.8062 51.3613 34.8018 51.3415 34.802 51.3216V49.3977C34.8018 49.3778 34.8062 49.358 34.815 49.3396C34.8238 49.3211 34.8368 49.3044 34.8532 49.2903C34.8695 49.2762 34.889 49.265 34.9105 49.2575C34.9319 49.2499 34.9549 49.2461 34.9781 49.2463H41.5366C41.5597 49.2463 41.5825 49.2502 41.6038 49.2578C41.6251 49.2654 41.6445 49.2766 41.6607 49.2907C41.677 49.3048 41.6898 49.3215 41.6985 49.3398C41.7072 49.3582 41.7116 49.3779 41.7115 49.3977L41.7075 51.3216ZM41.7075 46.3486C41.7075 46.3886 41.6892 46.427 41.6564 46.4553C41.6237 46.4837 41.5792 46.4998 41.5327 46.5001H34.9781C34.955 46.5001 34.9321 46.4962 34.9107 46.4886C34.8893 46.4809 34.8699 46.4698 34.8535 46.4557C34.8372 46.4417 34.8242 46.425 34.8154 46.4066C34.8065 46.3882 34.802 46.3685 34.802 46.3486V44.4236C34.802 44.4037 34.8065 44.3841 34.8154 44.3657C34.8242 44.3473 34.8372 44.3306 34.8535 44.3165C34.8699 44.3025 34.8893 44.2913 34.9107 44.2837C34.9321 44.2761 34.955 44.2722 34.9781 44.2722H41.5366C41.5831 44.2725 41.6276 44.2886 41.6603 44.3169C41.6931 44.3453 41.7115 44.3837 41.7115 44.4236L41.7075 46.3486ZM41.7075 41.3746C41.7077 41.3944 41.7033 41.4141 41.6946 41.4324C41.6859 41.4508 41.6731 41.4675 41.6568 41.4816C41.6405 41.4957 41.6212 41.5068 41.5999 41.5145C41.5786 41.5221 41.5558 41.526 41.5327 41.526H34.9781C34.9549 41.5262 34.9319 41.5224 34.9105 41.5148C34.889 41.5072 34.8695 41.4961 34.8532 41.482C34.8368 41.4679 34.8238 41.4511 34.815 41.4327C34.8062 41.4143 34.8018 41.3945 34.802 41.3746V39.4563C34.8018 39.4364 34.8062 39.4166 34.815 39.3982C34.8238 39.3797 34.8368 39.363 34.8532 39.3489C34.8695 39.3348 34.889 39.3236 34.9105 39.3161C34.9319 39.3085 34.9549 39.3047 34.9781 39.3049H41.5366C41.5597 39.3049 41.5825 39.3088 41.6038 39.3164C41.6251 39.324 41.6445 39.3352 41.6607 39.3493C41.677 39.3634 41.6898 39.3801 41.6985 39.3984C41.7072 39.4168 41.7116 39.4365 41.7115 39.4563L41.7075 41.3746ZM41.7075 36.4016C41.7075 36.4416 41.6892 36.48 41.6564 36.5083C41.6237 36.5367 41.5792 36.5528 41.5327 36.5531H34.9781C34.955 36.5531 34.9321 36.5492 34.9107 36.5415C34.8893 36.5339 34.8699 36.5228 34.8535 36.5087C34.8372 36.4947 34.8242 36.478 34.8154 36.4596C34.8065 36.4412 34.802 36.4215 34.802 36.4016V34.4766C34.802 34.4568 34.8065 34.4371 34.8154 34.4188C34.8243 34.4005 34.8372 34.3839 34.8536 34.3699C34.87 34.356 34.8894 34.3449 34.9108 34.3374C34.9321 34.3299 34.955 34.3261 34.9781 34.3263H41.5366C41.583 34.3263 41.6275 34.3421 41.6602 34.3703C41.693 34.3985 41.7115 34.4368 41.7115 34.4766L41.7075 36.4016ZM41.7075 31.4287C41.7075 31.4686 41.6891 31.5068 41.6563 31.535C41.6235 31.5632 41.5791 31.579 41.5327 31.579H34.9781C34.955 31.5792 34.9321 31.5754 34.9108 31.5679C34.8894 31.5604 34.87 31.5494 34.8536 31.5354C34.8372 31.5214 34.8243 31.5048 34.8154 31.4865C34.8065 31.4682 34.802 31.4485 34.802 31.4287V29.5037C34.802 29.4838 34.8065 29.4641 34.8154 29.4457C34.8242 29.4273 34.8372 29.4107 34.8535 29.3966C34.8699 29.3825 34.8893 29.3714 34.9107 29.3638C34.9321 29.3561 34.955 29.3522 34.9781 29.3522H41.5366C41.5831 29.3525 41.6276 29.3686 41.6603 29.397C41.6931 29.4254 41.7115 29.4637 41.7115 29.5037L41.7075 31.4287ZM41.7075 26.4546C41.7077 26.4745 41.7033 26.4941 41.6946 26.5125C41.6859 26.5309 41.6731 26.5476 41.6568 26.5616C41.6405 26.5757 41.6212 26.5869 41.5999 26.5945C41.5786 26.6021 41.5558 26.6061 41.5327 26.6061H34.9781C34.9549 26.6062 34.9319 26.6024 34.9105 26.5948C34.889 26.5873 34.8695 26.5761 34.8532 26.562C34.8368 26.5479 34.8238 26.5312 34.815 26.5127C34.8062 26.4943 34.8018 26.4745 34.802 26.4546V24.5363C34.8018 24.5164 34.8062 24.4966 34.815 24.4782C34.8238 24.4598 34.8368 24.443 34.8532 24.4289C34.8695 24.4148 34.889 24.4037 34.9105 24.3961C34.9319 24.3886 34.9549 24.3847 34.9781 24.3849H41.5366C41.5597 24.3849 41.5825 24.3888 41.6038 24.3964C41.6251 24.4041 41.6445 24.4152 41.6607 24.4293C41.677 24.4434 41.6898 24.4601 41.6985 24.4785C41.7072 24.4968 41.7116 24.5165 41.7115 24.5363L41.7075 26.4546ZM57.2474 56.2945C57.2474 56.3144 57.2428 56.334 57.234 56.3523C57.2251 56.3706 57.2121 56.3873 57.1957 56.4012C57.1793 56.4152 57.1599 56.4263 57.1386 56.4337C57.1172 56.4412 57.0943 56.445 57.0713 56.4449H50.5166C50.4701 56.4449 50.4255 56.4291 50.3925 56.4009C50.3596 56.3727 50.3408 56.3345 50.3405 56.2945V54.3763C50.3408 54.3362 50.3595 54.2978 50.3925 54.2695C50.4254 54.2412 50.47 54.2251 50.5166 54.2248H57.0713C57.0944 54.2248 57.1173 54.2287 57.1387 54.2363C57.16 54.2439 57.1794 54.2551 57.1958 54.2692C57.2122 54.2832 57.2251 54.2999 57.234 54.3183C57.2428 54.3367 57.2474 54.3564 57.2474 54.3763V56.2945ZM57.2474 51.3205C57.2476 51.3404 57.2431 51.3602 57.2343 51.3786C57.2255 51.397 57.2126 51.4138 57.1962 51.4279C57.1798 51.442 57.1603 51.4531 57.1389 51.4607C57.1174 51.4682 57.0944 51.4721 57.0713 51.4719H50.5166C50.4699 51.4719 50.4251 51.456 50.3921 51.4276C50.3591 51.3992 50.3405 51.3606 50.3405 51.3205V49.3977C50.3405 49.3575 50.3591 49.319 50.3921 49.2906C50.4251 49.2622 50.4699 49.2463 50.5166 49.2463H57.0713C57.0944 49.2461 57.1174 49.2499 57.1389 49.2575C57.1603 49.265 57.1798 49.2762 57.1962 49.2903C57.2126 49.3044 57.2255 49.3211 57.2343 49.3396C57.2431 49.358 57.2476 49.3778 57.2474 49.3977V51.3205ZM57.2474 46.3475C57.2474 46.3674 57.2428 46.3871 57.234 46.4055C57.2251 46.4239 57.2122 46.4405 57.1958 46.4546C57.1794 46.4687 57.16 46.4798 57.1387 46.4874C57.1173 46.4951 57.0944 46.499 57.0713 46.499H50.5166C50.47 46.4987 50.4254 46.4826 50.3925 46.4543C50.3595 46.426 50.3408 46.3876 50.3405 46.3475V44.4236C50.3408 44.3836 50.3595 44.3452 50.3925 44.3169C50.4254 44.2885 50.47 44.2725 50.5166 44.2722H57.0713C57.0944 44.2722 57.1173 44.2761 57.1387 44.2837C57.16 44.2913 57.1794 44.3025 57.1958 44.3165C57.2122 44.3306 57.2251 44.3473 57.234 44.3657C57.2428 44.3841 57.2474 44.4037 57.2474 44.4236V46.3475ZM57.2474 41.3735C57.2476 41.3934 57.2431 41.4131 57.2343 41.4316C57.2255 41.45 57.2126 41.4668 57.1962 41.4809C57.1798 41.495 57.1603 41.5061 57.1389 41.5137C57.1174 41.5212 57.0944 41.525 57.0713 41.5249H50.5166C50.4699 41.5249 50.4251 41.5089 50.3921 41.4805C50.3591 41.4521 50.3405 41.4136 50.3405 41.3735V39.4563C50.3405 39.4161 50.3591 39.3776 50.3921 39.3492C50.4251 39.3208 50.4699 39.3049 50.5166 39.3049H57.0713C57.0944 39.3047 57.1174 39.3085 57.1389 39.3161C57.1603 39.3236 57.1798 39.3348 57.1962 39.3489C57.2126 39.363 57.2255 39.3797 57.2343 39.3982C57.2431 39.4166 57.2476 39.4364 57.2474 39.4563V41.3735ZM57.2474 36.4005C57.2474 36.4204 57.2428 36.4401 57.234 36.4585C57.2251 36.4768 57.2122 36.4935 57.1958 36.5076C57.1794 36.5217 57.16 36.5328 57.1387 36.5404C57.1173 36.548 57.0944 36.552 57.0713 36.552H50.5166C50.47 36.5517 50.4254 36.5356 50.3925 36.5073C50.3595 36.4789 50.3408 36.4406 50.3405 36.4005V34.4766C50.3408 34.4366 50.3596 34.3984 50.3925 34.3703C50.4255 34.3421 50.4701 34.3263 50.5166 34.3263H57.0713C57.0943 34.3261 57.1172 34.3299 57.1386 34.3374C57.1599 34.3449 57.1793 34.356 57.1957 34.3699C57.2121 34.3839 57.2251 34.4005 57.234 34.4188C57.2428 34.4371 57.2474 34.4568 57.2474 34.4766V36.4005ZM57.2474 31.4276C57.2474 31.4474 57.2428 31.467 57.234 31.4854C57.2251 31.5037 57.2121 31.5203 57.1957 31.5343C57.1793 31.5482 57.1599 31.5593 57.1386 31.5668C57.1172 31.5743 57.0943 31.578 57.0713 31.5779H50.5166C50.4701 31.5779 50.4255 31.5621 50.3925 31.5339C50.3596 31.5058 50.3408 31.4675 50.3405 31.4276V29.5037C50.3408 29.4636 50.3595 29.4253 50.3925 29.3969C50.4254 29.3686 50.47 29.3525 50.5166 29.3522H57.0713C57.0944 29.3522 57.1173 29.3561 57.1387 29.3638C57.16 29.3714 57.1794 29.3825 57.1958 29.3966C57.2122 29.4107 57.2251 29.4273 57.234 29.4457C57.2428 29.4641 57.2474 29.4838 57.2474 29.5037V31.4276ZM57.2474 26.4535C57.2476 26.4734 57.2431 26.4932 57.2343 26.5116C57.2255 26.5301 57.2126 26.5468 57.1962 26.5609C57.1798 26.575 57.1603 26.5862 57.1389 26.5937C57.1174 26.6013 57.0944 26.6051 57.0713 26.6049H50.5166C50.4699 26.6049 50.4251 26.589 50.3921 26.5606C50.3591 26.5322 50.3405 26.4937 50.3405 26.4535V24.5363C50.3405 24.4962 50.3591 24.4577 50.3921 24.4293C50.4251 24.4009 50.4699 24.3849 50.5166 24.3849H57.0713C57.0944 24.3847 57.1174 24.3886 57.1389 24.3961C57.1603 24.4037 57.1798 24.4148 57.1962 24.4289C57.2126 24.443 57.2255 24.4598 57.2343 24.4782C57.2431 24.4966 57.2476 24.5164 57.2474 24.5363V26.4535ZM67.866 56.2934C67.866 56.3133 67.8615 56.3329 67.8526 56.3512C67.8437 56.3695 67.8307 56.3861 67.8144 56.4001C67.798 56.4141 67.7786 56.4251 67.7572 56.4326C67.7359 56.4401 67.713 56.4439 67.6899 56.4437H61.1353C61.0888 56.4437 61.0442 56.4279 61.0112 56.3998C60.9782 56.3716 60.9595 56.3334 60.9592 56.2934V54.3763C60.9595 54.3362 60.9782 54.2978 61.0111 54.2695C61.0441 54.2412 61.0887 54.2251 61.1353 54.2248H67.6899C67.7366 54.2248 67.7814 54.2408 67.8145 54.2692C67.8475 54.2976 67.866 54.3361 67.866 54.3763V56.2934ZM67.866 51.3193C67.8662 51.3393 67.8618 51.359 67.853 51.3775C67.8442 51.3959 67.8312 51.4127 67.8148 51.4268C67.7985 51.4409 67.779 51.452 67.7575 51.4596C67.7361 51.4671 67.7131 51.4709 67.6899 51.4708H61.1353C61.0886 51.4708 61.0438 51.4548 61.0107 51.4264C60.9777 51.398 60.9592 51.3595 60.9592 51.3193V49.3977C60.9592 49.3575 60.9777 49.319 61.0107 49.2906C61.0438 49.2622 61.0886 49.2463 61.1353 49.2463H67.6899C67.7131 49.2461 67.7361 49.2499 67.7575 49.2575C67.779 49.265 67.7985 49.2762 67.8148 49.2903C67.8312 49.3044 67.8442 49.3211 67.853 49.3396C67.8618 49.358 67.8662 49.3778 67.866 49.3977V51.3193ZM67.866 46.3464C67.866 46.3866 67.8475 46.4251 67.8145 46.4535C67.7814 46.4819 67.7366 46.4978 67.6899 46.4978H61.1353C61.0887 46.4975 61.0441 46.4815 61.0111 46.4532C60.9782 46.4248 60.9595 46.3865 60.9592 46.3464V44.4236C60.9595 44.3836 60.9782 44.3452 61.0111 44.3169C61.0441 44.2885 61.0887 44.2725 61.1353 44.2722H67.6899C67.7366 44.2722 67.7814 44.2881 67.8145 44.3165C67.8475 44.3449 67.866 44.3835 67.866 44.4236V46.3464ZM67.866 41.3723C67.8662 41.3923 67.8618 41.412 67.853 41.4305C67.8442 41.4489 67.8312 41.4657 67.8148 41.4798C67.7985 41.4938 67.779 41.505 67.7575 41.5126C67.7361 41.5201 67.7131 41.5239 67.6899 41.5238H61.1353C61.0886 41.5238 61.0438 41.5078 61.0107 41.4794C60.9777 41.451 60.9592 41.4125 60.9592 41.3723V39.4563C60.9592 39.4161 60.9777 39.3776 61.0107 39.3492C61.0438 39.3208 61.0886 39.3049 61.1353 39.3049H67.6899C67.7131 39.3047 67.7361 39.3085 67.7575 39.3161C67.779 39.3236 67.7985 39.3348 67.8148 39.3489C67.8312 39.363 67.8442 39.3797 67.853 39.3982C67.8618 39.4166 67.8662 39.4364 67.866 39.4563V41.3723ZM67.866 36.3994C67.866 36.4396 67.8475 36.4781 67.8145 36.5065C67.7814 36.5349 67.7366 36.5508 67.6899 36.5508H61.1353C61.0887 36.5505 61.0441 36.5345 61.0111 36.5061C60.9782 36.4778 60.9595 36.4395 60.9592 36.3994V34.4766C60.9595 34.4366 60.9782 34.3984 61.0112 34.3703C61.0442 34.3421 61.0888 34.3263 61.1353 34.3263H67.6899C67.713 34.3261 67.7359 34.3299 67.7572 34.3374C67.7786 34.3449 67.798 34.356 67.8144 34.3699C67.8307 34.3839 67.8437 34.4005 67.8526 34.4188C67.8615 34.4371 67.866 34.4568 67.866 34.4766V36.3994ZM67.866 31.4264C67.866 31.4463 67.8615 31.4659 67.8526 31.4842C67.8437 31.5025 67.8307 31.5192 67.8144 31.5331C67.798 31.5471 67.7786 31.5582 67.7572 31.5656C67.7359 31.5731 67.713 31.5769 67.6899 31.5768H61.1353C61.0888 31.5768 61.0442 31.561 61.0112 31.5328C60.9782 31.5046 60.9595 31.4664 60.9592 31.4264V29.5037C60.9595 29.4636 60.9782 29.4253 61.0111 29.3969C61.0441 29.3686 61.0887 29.3525 61.1353 29.3522H67.6899C67.7366 29.3522 67.7814 29.3682 67.8145 29.3966C67.8475 29.425 67.866 29.4635 67.866 29.5037V31.4264ZM67.866 26.4524C67.8662 26.4723 67.8618 26.4921 67.853 26.5105C67.8442 26.5289 67.8312 26.5457 67.8148 26.5598C67.7985 26.5739 67.779 26.585 67.7575 26.5926C67.7361 26.6002 67.7131 26.604 67.6899 26.6038H61.1353C61.0886 26.6038 61.0438 26.5879 61.0107 26.5595C60.9777 26.5311 60.9592 26.4925 60.9592 26.4524V24.5363C60.9592 24.4962 60.9777 24.4577 61.0107 24.4293C61.0438 24.4009 61.0886 24.3849 61.1353 24.3849H67.6899C67.7131 24.3847 67.7361 24.3886 67.7575 24.3961C67.779 24.4037 67.7985 24.4148 67.8148 24.4289C67.8312 24.443 67.8442 24.4598 67.853 24.4782C67.8618 24.4966 67.8662 24.5164 67.866 24.5363V26.4524ZM83.4059 56.2923C83.4055 56.3323 83.3868 56.3705 83.3538 56.3987C83.3208 56.4268 83.2762 56.4426 83.2298 56.4426H76.6751C76.6521 56.4428 76.6292 56.439 76.6078 56.4315C76.5865 56.424 76.567 56.413 76.5507 56.399C76.5343 56.385 76.5213 56.3684 76.5124 56.3501C76.5036 56.3318 76.499 56.3121 76.499 56.2923V54.3763C76.499 54.3361 76.5176 54.2976 76.5506 54.2692C76.5836 54.2408 76.6284 54.2248 76.6751 54.2248H83.2298C83.2764 54.2251 83.321 54.2412 83.3539 54.2695C83.3869 54.2978 83.4055 54.3362 83.4059 54.3763V56.2923ZM83.4059 51.3182C83.4059 51.3584 83.3873 51.3969 83.3543 51.4253C83.3213 51.4537 83.2765 51.4697 83.2298 51.4697H76.6751C76.652 51.4698 76.629 51.466 76.6075 51.4584C76.5861 51.4509 76.5666 51.4397 76.5502 51.4256C76.5338 51.4116 76.5208 51.3948 76.5121 51.3764C76.5033 51.3579 76.4988 51.3382 76.499 51.3182V49.3977C76.4988 49.3778 76.5033 49.358 76.5121 49.3396C76.5208 49.3211 76.5338 49.3044 76.5502 49.2903C76.5666 49.2762 76.5861 49.265 76.6075 49.2575C76.629 49.2499 76.652 49.2461 76.6751 49.2463H83.2298C83.2765 49.2463 83.3213 49.2622 83.3543 49.2906C83.3873 49.319 83.4059 49.3575 83.4059 49.3977V51.3182ZM83.4059 46.3453C83.4055 46.3854 83.3869 46.4237 83.3539 46.452C83.321 46.4804 83.2764 46.4964 83.2298 46.4967H76.6751C76.6284 46.4967 76.5836 46.4808 76.5506 46.4524C76.5176 46.424 76.499 46.3854 76.499 46.3453V44.4236C76.499 44.3835 76.5176 44.3449 76.5506 44.3165C76.5836 44.2881 76.6284 44.2722 76.6751 44.2722H83.2298C83.2764 44.2725 83.321 44.2885 83.3539 44.3169C83.3869 44.3452 83.4055 44.3836 83.4059 44.4236V46.3453ZM83.4059 41.3712C83.4059 41.4114 83.3873 41.4499 83.3543 41.4783C83.3213 41.5067 83.2765 41.5227 83.2298 41.5227H76.6751C76.6294 41.5224 76.5857 41.5067 76.5533 41.479C76.5208 41.4514 76.5023 41.4139 76.5016 41.3746V39.4563C76.5014 39.4364 76.5059 39.4166 76.5147 39.3982C76.5234 39.3797 76.5364 39.363 76.5528 39.3489C76.5692 39.3348 76.5887 39.3236 76.6101 39.3161C76.6316 39.3085 76.6546 39.3047 76.6777 39.3049H83.2324C83.2791 39.3049 83.3239 39.3208 83.3569 39.3492C83.3899 39.3776 83.4085 39.4161 83.4085 39.4563L83.4059 41.3712ZM83.4059 36.3983C83.4055 36.4383 83.3869 36.4767 83.3539 36.505C83.321 36.5334 83.2764 36.5494 83.2298 36.5497H76.6751C76.6284 36.5497 76.5836 36.5338 76.5506 36.5054C76.5176 36.4769 76.499 36.4384 76.499 36.3983V34.4766C76.499 34.4568 76.5036 34.4371 76.5124 34.4188C76.5213 34.4005 76.5343 34.3839 76.5507 34.3699C76.567 34.356 76.5865 34.3449 76.6078 34.3374C76.6292 34.3299 76.6521 34.3261 76.6751 34.3263H83.2298C83.2762 34.3263 83.3208 34.3421 83.3538 34.3703C83.3868 34.3984 83.4055 34.4366 83.4059 34.4766V36.3983ZM83.4059 31.4253C83.4055 31.4653 83.3868 31.5035 83.3538 31.5317C83.3208 31.5598 83.2762 31.5756 83.2298 31.5756H76.6751C76.6521 31.5758 76.6292 31.572 76.6078 31.5645C76.5865 31.557 76.567 31.546 76.5507 31.532C76.5343 31.518 76.5213 31.5014 76.5124 31.4831C76.5036 31.4648 76.499 31.4452 76.499 31.4253V29.5037C76.499 29.4635 76.5176 29.425 76.5506 29.3966C76.5836 29.3682 76.6284 29.3522 76.6751 29.3522H83.2298C83.2764 29.3525 83.321 29.3686 83.3539 29.3969C83.3869 29.4253 83.4055 29.4636 83.4059 29.5037V31.4253ZM83.4059 26.4513C83.4059 26.4711 83.4013 26.4908 83.3925 26.5092C83.3836 26.5276 83.3707 26.5443 83.3543 26.5583C83.3379 26.5724 83.3185 26.5836 83.2972 26.5912C83.2758 26.5988 83.2529 26.6027 83.2298 26.6027H76.6751C76.6294 26.6024 76.5857 26.5867 76.5533 26.5591C76.5208 26.5314 76.5023 26.4939 76.5016 26.4546V24.5363C76.5014 24.5164 76.5059 24.4966 76.5147 24.4782C76.5234 24.4598 76.5364 24.443 76.5528 24.4289C76.5692 24.4148 76.5887 24.4037 76.6101 24.3961C76.6316 24.3886 76.6546 24.3847 76.6777 24.3849H83.2324C83.2791 24.3849 83.3239 24.4009 83.3569 24.4293C83.3899 24.4577 83.4085 24.4962 83.4085 24.5363L83.4059 26.4513Z" fill="#F2F2F2"/>
<path d="M34.8539 5.22885L32.829 6.33271L34.058 4.40994C33.71 4.17119 33.2794 4.03896 32.8343 4.03414H32.8016C32.661 4.03595 32.5204 4.02694 32.3815 4.00721L31.6953 4.38077L31.9888 3.92083C31.5022 3.77493 31.0819 3.49998 30.7885 3.13557L29.5609 3.80865L30.3358 2.59599C29.6183 1.85448 28.6502 1.40015 27.5843 1.40015C26.307 1.40015 25.1694 2.05303 24.4348 3.07051C24.2176 3.37602 23.9098 3.62637 23.543 3.7959C23.1762 3.96543 22.7636 4.04804 22.3474 4.03526H22.2795C20.8692 4.03526 19.7263 5.41058 19.7263 7.10563C19.7263 8.80067 20.8744 10.1771 22.2848 10.1771C22.5946 10.1757 22.8994 10.1099 23.1732 9.98529C23.6532 9.78448 24.1783 9.67586 24.712 9.66694C25.2457 9.65803 25.7753 9.74905 26.264 9.93369C26.6773 10.0927 27.125 10.1748 27.5778 10.1748C28.0306 10.1748 28.4783 10.0927 28.8916 9.93369C29.3764 9.7529 29.9008 9.66394 30.4291 9.67284C30.9575 9.68175 31.4774 9.78831 31.9536 9.98529C32.2251 10.1089 32.5271 10.1747 32.8343 10.1771C34.2446 10.1771 35.3875 8.80179 35.3875 7.10563C35.3959 6.45142 35.2123 5.80595 34.8539 5.22885Z" fill="#F2F2F2"/>
<path opacity="0.03" d="M31.0377 9.72179C30.301 9.60118 29.5392 9.67227 28.8497 9.92596C28.4365 10.0846 27.9891 10.1665 27.5366 10.1665C27.0841 10.1665 26.6367 10.0846 26.2234 9.92596C25.7346 9.74184 25.2051 9.65111 24.6715 9.66002C24.1379 9.66892 23.6129 9.77727 23.1327 9.97756C22.8587 10.1028 22.5533 10.1687 22.2429 10.1694C20.9904 10.1694 19.948 9.08461 19.7314 7.65319C19.9818 7.49601 20.1945 7.29869 20.3577 7.0721C21.0922 6.05462 22.2299 5.40173 23.5071 5.40173C24.7844 5.40173 25.9077 6.04677 26.6383 7.05415C26.8571 7.3584 27.1637 7.6088 27.5284 7.781C27.893 7.95319 28.3033 8.04133 28.7193 8.03685H28.7519C29.7539 8.03124 30.6176 8.7189 31.0377 9.72179Z" fill="black"/>
<path d="M106.217 2.17642L105.204 2.72722L105.817 1.76808C105.644 1.64911 105.429 1.5832 105.207 1.58074H105.191C105.121 1.58193 105.05 1.57742 104.981 1.56728L104.639 1.75462L104.785 1.53026C104.543 1.45722 104.334 1.32068 104.187 1.13987L103.575 1.47642L103.966 0.871764C103.804 0.689271 103.597 0.540156 103.36 0.435342C103.123 0.330527 102.861 0.272665 102.595 0.265991C101.958 0.265991 101.391 0.592436 101.029 1.09949C100.92 1.25204 100.766 1.37699 100.583 1.46155C100.4 1.54611 100.193 1.58725 99.9855 1.58074H99.9516C99.2484 1.58074 98.6782 2.26616 98.6782 3.112C98.6782 3.95784 99.2484 4.64326 99.9516 4.64326C100.106 4.64283 100.258 4.61011 100.395 4.54791C100.634 4.44791 100.896 4.39381 101.162 4.38936C101.428 4.3849 101.692 4.4302 101.936 4.52211C102.142 4.60127 102.366 4.64219 102.592 4.64219C102.817 4.64219 103.041 4.60127 103.247 4.52211C103.489 4.4321 103.751 4.38782 104.014 4.39227C104.278 4.39672 104.537 4.4498 104.775 4.54791C104.91 4.60875 105.061 4.64069 105.213 4.64102C105.917 4.64102 106.487 3.9556 106.487 3.10976C106.489 2.78414 106.396 2.46326 106.217 2.17642Z" fill="#F2F2F2"/>
<path opacity="0.03" d="M104.313 4.41662C103.945 4.35717 103.565 4.39269 103.221 4.51871C103.016 4.59725 102.793 4.63776 102.569 4.63762C102.344 4.63662 102.122 4.59536 101.916 4.51646C101.673 4.42453 101.408 4.37923 101.142 4.38368C100.876 4.38814 100.614 4.44225 100.374 4.54227C100.238 4.60459 100.085 4.63732 99.9307 4.63762C99.3058 4.63762 98.7865 4.09691 98.6782 3.38232C98.8032 3.30397 98.9095 3.20572 98.9913 3.0929C99.3567 2.58584 99.9242 2.2594 100.557 2.2594C101.19 2.2594 101.755 2.58136 102.123 3.08392C102.232 3.23641 102.386 3.36176 102.569 3.44771C102.752 3.53365 102.958 3.57722 103.166 3.57415H103.183C103.672 3.57415 104.103 3.91742 104.313 4.41662Z" fill="black"/>
<path d="M80.8657 12.2648L79.6784 12.9121L80.3986 11.7903C80.1952 11.6488 79.9426 11.5699 79.681 11.5659H79.6615C79.5789 11.5669 79.4964 11.5616 79.4149 11.5502L79.0131 11.7745L79.1853 11.5042C78.9001 11.4188 78.6536 11.2582 78.4808 11.0454L77.7606 11.438L78.2159 10.7268C78.0244 10.514 77.7802 10.3407 77.5011 10.2192C77.2219 10.0977 76.9148 10.0312 76.602 10.0245C75.8532 10.0245 75.1852 10.4082 74.7546 11.005C74.6268 11.1828 74.4464 11.3284 74.232 11.4269C74.0175 11.5254 73.7765 11.5734 73.5335 11.5659H73.493C72.6659 11.5659 71.9966 12.3725 71.9966 13.3608C71.9966 14.3491 72.6659 15.1613 73.493 15.1613C73.675 15.161 73.8542 15.1225 74.0149 15.0491C74.2964 14.9315 74.6042 14.8679 74.9171 14.8626C75.23 14.8574 75.5405 14.9107 75.8271 15.0188C76.0696 15.1116 76.332 15.1596 76.5975 15.1596C76.8629 15.1596 77.1254 15.1116 77.3679 15.0188C77.6524 14.9129 77.96 14.8607 78.27 14.866C78.5799 14.8712 78.885 14.9336 79.1644 15.0491C79.3253 15.122 79.5043 15.1605 79.6863 15.1613C80.5134 15.1613 81.184 14.3558 81.184 13.3608C81.1861 12.9783 81.0766 12.6015 80.8657 12.2648Z" fill="#F2F2F2"/>
<path opacity="0.03" d="M78.6282 14.8999C78.1959 14.8295 77.749 14.8713 77.3444 15.0199C77.1019 15.1127 76.8394 15.1607 76.574 15.1607C76.3086 15.1607 76.0461 15.1127 75.8036 15.0199C75.517 14.9118 75.2065 14.8585 74.8936 14.8638C74.5807 14.869 74.2729 14.9326 73.9914 15.0502C73.8306 15.1235 73.6515 15.162 73.4696 15.1624C72.735 15.1624 72.1231 14.5263 71.9966 13.6872C72.1428 13.5964 72.2673 13.4821 72.3632 13.3507C72.7937 12.7539 73.4617 12.3713 74.2106 12.3713C74.9595 12.3713 75.6196 12.7494 76.0502 13.3395C76.1782 13.518 76.3579 13.665 76.5717 13.766C76.7855 13.8671 77.0261 13.9188 77.27 13.9161H77.2844C77.8741 13.9082 78.3816 14.3121 78.6282 14.8999Z" fill="black"/>
<path d="M123.584 64.1189C123.584 64.3118 123.584 64.5048 123.57 64.6955C123.536 65.4378 123.433 66.1765 123.259 66.9043C122.402 70.5064 119.927 73.3064 116.818 74.1332C116.2 74.2988 115.556 74.3831 114.908 74.3833C110.116 74.3833 106.232 69.7839 106.232 64.1189C106.232 58.4538 110.116 53.8544 114.908 53.8544C119.403 53.8544 123.1 57.8996 123.54 63.0812C123.57 63.4222 123.584 63.7688 123.584 64.1189Z" fill="#36334A"/>
<path opacity="0.1" d="M123.57 64.6966C123.536 65.4389 123.433 66.1777 123.259 66.9054C122.402 70.5075 119.927 73.3076 116.818 74.1343C114.411 73.1819 112.625 69.6123 112.625 65.354C112.625 60.3665 115.078 56.3235 118.105 56.3235C120.645 56.3235 122.782 59.1751 123.402 63.0442C123.488 63.5748 123.544 64.129 123.57 64.6966Z" fill="black"/>
<path d="M80.0083 41.4025C80.0083 41.4025 103.492 37.2518 115.887 41.066C115.887 41.066 117.713 41.8512 115.887 43.1974C115.887 43.1974 117.614 44.7679 114.598 45.3288L102.614 45.9626L80.0083 43.9826V41.4025Z" fill="#3F3D56"/>
<path opacity="0.1" d="M84.1182 41.924C84.1182 41.924 104.224 38.3701 114.836 41.6357C114.836 41.6357 116.402 42.3088 114.836 43.4609C114.836 43.4609 116.315 44.807 113.733 45.286L103.473 45.8279L84.1182 44.1351V41.924Z" fill="black"/>
<path d="M107.015 48.1332L105.449 45.4409C105.449 45.4409 106.136 42.7172 100.557 41.9162C100.248 40.7282 98.8465 39.8319 97.1648 39.8319C95.5235 39.8319 94.151 40.6845 93.7961 41.8287C92.9951 41.8882 92.1418 41.9689 91.2285 42.0755L89.9526 47.9582L89.7934 47.6845C89.7934 47.6845 90.6036 44.4672 83.3014 43.9972C83.6995 43.5823 83.9188 43.062 83.9224 42.5242C83.9224 41.0984 82.3738 39.9441 80.4651 39.9441C78.5563 39.9441 77.0077 41.0984 77.0077 42.5242C77.0127 43.11 77.2713 43.6731 77.7331 44.1037C77.0503 44.1598 76.3302 44.2316 75.5726 44.3191L74.1375 50.9377L80.7912 51.723L91.359 50.3768L90.4236 48.767L96.4472 49.4783L107.015 48.1332Z" fill="#968DFF"/>
<path opacity="0.2" d="M107.015 48.1332L105.449 45.4409C105.449 45.4409 106.136 42.7172 100.557 41.9162C100.248 40.7282 98.8465 39.8319 97.1648 39.8319C95.5235 39.8319 94.151 40.6845 93.7961 41.8287C92.9951 41.8882 92.1418 41.9689 91.2285 42.0755L89.9526 47.9582L89.7934 47.6845C89.7934 47.6845 90.6036 44.4672 83.3014 43.9972C83.6995 43.5823 83.9188 43.062 83.9224 42.5242C83.9224 41.0984 82.3738 39.9441 80.4651 39.9441C78.5563 39.9441 77.0077 41.0984 77.0077 42.5242C77.0127 43.11 77.2713 43.6731 77.7331 44.1037C77.0503 44.1598 76.3302 44.2316 75.5726 44.3191L74.1375 50.9377L80.7912 51.723L91.359 50.3768L90.4236 48.767L96.4472 49.4783L107.015 48.1332Z" fill="black"/>
<path d="M84.5723 42.1741C84.5723 42.1741 83.5286 37.1394 88.3558 37.0273C93.1831 36.9151 91.6175 44.319 91.6175 44.319C91.6175 44.319 95.2705 44.9921 95.5315 46.226C95.7924 47.46 82.8762 47.7966 82.8762 47.7966L84.5723 42.1741Z" fill="#968DFF"/>
<path d="M76.0944 68.7742C76.0944 74.7198 70.954 79.5435 64.6134 79.5435C58.2727 79.5435 53.1323 74.7198 53.1323 68.7742C53.1323 62.8287 58.3366 57.0514 64.6786 57.0514C71.0206 57.0514 76.0944 62.8264 76.0944 68.7742Z" fill="#36334A"/>
<path opacity="0.1" d="M64.6136 78.3086C69.6574 78.3086 73.7462 74.2409 73.7462 69.2232C73.7462 64.2054 69.6574 60.1377 64.6136 60.1377C59.5698 60.1377 55.481 64.2054 55.481 69.2232C55.481 74.2409 59.5698 78.3086 64.6136 78.3086Z" fill="black"/>
<path d="M14.1229 78.533C20.4637 78.533 25.6039 73.7114 25.6039 67.7637C25.6039 61.816 20.4637 56.9944 14.1229 56.9944C7.78208 56.9944 2.64185 61.816 2.64185 67.7637C2.64185 73.7114 7.78208 78.533 14.1229 78.533Z" fill="#36334A"/>
<path d="M33.6929 42.0756C33.6929 42.0756 28.3438 42.2999 28.6047 44.7679C28.8656 47.2359 33.171 45.441 33.171 45.441L33.6929 42.0756Z" fill="#36334A"/>
<path d="M78.1976 46.187L80.3998 33.5499C80.3998 33.5499 80.9217 31.9794 73.8765 31.9794C73.8765 31.9794 51.3058 30.7454 45.5653 32.7646C45.5653 32.7646 38.9115 34.896 29.6484 45.8897C29.6484 45.8897 77.2843 46.86 78.1976 46.187Z" fill="#3F3D56"/>
<path d="M77.3992 32.9888L73.3548 46.7869L70.8185 46.7342L58.8156 46.4829L32.0452 45.922C31.9709 44.8316 44.6483 33.5497 44.6483 33.5497L77.3992 32.9888Z" fill="#36334A"/>
<path opacity="0.2" d="M58.8196 46.4829L59.9129 42.8483C59.9129 42.8483 58.8692 37.8125 63.6964 37.7004C68.5237 37.5882 66.9581 44.9921 66.9581 44.9921C66.9581 44.9921 70.285 45.6057 70.8147 46.7342L58.8196 46.4829Z" fill="#968DFF"/>
<path d="M123.649 63.3336C122.867 56.8272 117.974 55.4249 117.974 55.4249C113.277 55.2006 110.146 70.5692 110.146 70.5692L74.007 73.3737C74.007 73.3737 75.2464 60.3048 66.5052 58.1733C57.764 56.0419 55.4808 71.3545 55.0894 73.4859C54.698 75.6173 2.38101 73.2616 0.945881 72.3641C-0.489249 71.4667 0.0326166 62.8288 0.424015 62.1557C0.815414 61.4827 1.85914 58.4538 1.85914 58.4538C1.85914 57.7313 2.26098 56.8182 2.59497 56.1844C2.82981 55.7357 3.03334 55.4249 3.03334 55.4249C4.16709 49.8967 10.0537 48.5584 10.449 48.4698H10.4699C12.0355 47.1236 26.5173 46.2262 26.5173 46.2262L31.9969 45.3287L76.5472 46.0814L78.4429 46.114L101.092 45.1773L116.409 44.5435C119.931 44.5435 121.758 52.1717 121.758 52.1717C125.019 58.9025 123.649 63.3336 123.649 63.3336Z" fill="#3F3D56"/>
<path opacity="0.1" d="M50.2029 56.727C53.6441 55.5364 55.7309 53.0694 54.864 51.217C53.997 49.3645 50.5046 48.828 47.0634 50.0187C43.6222 51.2093 41.5353 53.6763 42.4023 55.5287C43.2692 57.3812 46.7617 57.9177 50.2029 56.727Z" fill="black"/>
<path d="M49.9421 56.2778C53.3833 55.0872 55.4702 52.6202 54.6032 50.7677C53.7363 48.9153 50.2438 48.3788 46.8026 49.5695C43.3614 50.7601 41.2746 53.2271 42.1415 55.0795C43.0085 56.932 46.5009 57.4685 49.9421 56.2778Z" fill="#F2F2F2"/>
<path opacity="0.1" d="M10.7098 48.6986C10.6432 49.9326 10 51.4896 8.84281 52.9895C6.98106 55.4036 4.42783 56.8249 2.85571 56.4087C3.09055 55.96 3.29408 55.6493 3.29408 55.6493C4.42783 50.121 10.3145 48.7827 10.7098 48.6986Z" fill="black"/>
<path d="M10.3187 48.4741C10.2521 49.7081 9.60893 51.2652 8.4517 52.765C6.58994 55.1791 4.03672 56.6005 2.4646 56.1843C2.69944 55.7356 2.90297 55.4248 2.90297 55.4248C4.03672 49.8966 9.92336 48.5583 10.3187 48.4741Z" fill="#F2F2F2"/>
<path d="M28.6046 51.8341H18.2977L17.7759 50.6001H30.3006L28.6046 51.8341Z" fill="#36334A"/>
<path d="M26.2563 60.9208H9.29565V65.1836H26.2563V60.9208Z" fill="#36334A"/>
<path opacity="0.1" d="M44.5217 69.3341C45.8187 69.3341 46.8701 68.4301 46.8701 67.3149C46.8701 66.1997 45.8187 65.2957 44.5217 65.2957C43.2248 65.2957 42.1733 66.1997 42.1733 67.3149C42.1733 68.4301 43.2248 69.3341 44.5217 69.3341Z" fill="black"/>
<path d="M44.2607 68.9977C45.5577 68.9977 46.6091 68.0937 46.6091 66.9785C46.6091 65.8633 45.5577 64.9592 44.2607 64.9592C42.9638 64.9592 41.9124 65.8633 41.9124 66.9785C41.9124 68.0937 42.9638 68.9977 44.2607 68.9977Z" fill="#F2F2F2"/>
<path opacity="0.1" d="M1.85926 67.8759C2.50775 67.8759 3.03345 66.9216 3.03345 65.7445C3.03345 64.5673 2.50775 63.613 1.85926 63.613C1.21076 63.613 0.685059 64.5673 0.685059 65.7445C0.685059 66.9216 1.21076 67.8759 1.85926 67.8759Z" fill="black"/>
<path d="M1.46765 67.7637C2.11614 67.7637 2.64185 66.8094 2.64185 65.6323C2.64185 64.4551 2.11614 63.5009 1.46765 63.5009C0.819163 63.5009 0.293457 64.4551 0.293457 65.6323C0.293457 66.8094 0.819163 67.7637 1.46765 67.7637Z" fill="#F2F2F2"/>
<path d="M104.928 56.659C103.493 60.4731 103.362 66.4187 103.362 66.4187L102.84 67.9892L77.3993 70.4572C77.3993 70.4572 77.5298 59.4635 77.9212 54.3032C78.1965 50.663 77.1749 47.5814 76.5474 46.0815L78.443 46.1141L101.092 45.1774C104.876 47.458 106.215 53.2341 104.928 56.659Z" fill="#36334A"/>
<path d="M99.1269 49.7823C99.0378 49.7873 98.951 49.8084 98.8719 49.844C98.7929 49.8797 98.7233 49.9291 98.6678 49.9892C98.6123 50.0493 98.572 50.1187 98.5495 50.193C98.527 50.2673 98.5228 50.3448 98.5372 50.4206C98.5496 50.484 98.5798 50.5438 98.6253 50.5948C98.6708 50.6459 98.7301 50.6866 98.7981 50.7133C99.2195 50.8939 102.025 50.489 103.088 50.3274C103.245 50.3055 103.39 50.2393 103.499 50.1393C103.608 50.0392 103.675 49.9109 103.691 49.7744C103.704 49.6151 103.636 49.4794 103.364 49.4794L99.1269 49.7823Z" fill="#F2F2F2"/>
<path d="M76.4861 45.6652C76.4861 45.6652 77.1384 48.1332 80.2696 47.3479L81.3133 43.8703L79.2259 42.8607L76.4861 45.6652Z" fill="#36334A"/>
<path d="M80.3204 40.6541C81.7556 39.9227 84.0322 39.2832 86.284 40.819C86.7527 41.1372 87.0834 41.5817 87.2228 42.081C87.3621 42.5803 87.3022 43.1054 87.0525 43.5719C86.3153 44.9439 84.5658 46.4325 80.4809 44.6499C80.0799 44.475 79.7377 44.2147 79.4867 43.8938L79.4659 43.8669C79.2682 43.6099 79.1333 43.3211 79.0693 43.0179C79.0052 42.7148 79.0134 42.4036 79.0933 42.1032C79.1732 41.8028 79.3231 41.5195 79.534 41.2705C79.745 41.0214 80.0125 40.8117 80.3204 40.6541Z" fill="#36334A"/>
<path d="M64.6787 70.9608C66.1198 70.9608 67.288 69.9563 67.288 68.7172C67.288 67.4781 66.1198 66.4736 64.6787 66.4736C63.2376 66.4736 62.0693 67.4781 62.0693 68.7172C62.0693 69.9563 63.2376 70.9608 64.6787 70.9608Z" fill="#F2F2F2"/>
<path d="M118.561 66.9224C119.354 66.9224 119.996 65.9179 119.996 64.6788C119.996 63.4397 119.354 62.4352 118.561 62.4352C117.769 62.4352 117.126 63.4397 117.126 64.6788C117.126 65.9179 117.769 66.9224 118.561 66.9224Z" fill="#F2F2F2"/>
<path d="M64.744 61.8182H64.4831C63.6184 61.8182 62.9175 62.4209 62.9175 63.1644V64.3984C62.9175 65.1418 63.6184 65.7445 64.4831 65.7445H64.744C65.6087 65.7445 66.3096 65.1418 66.3096 64.3984V63.1644C66.3096 62.4209 65.6087 61.8182 64.744 61.8182Z" fill="#36334A"/>
<path d="M118.561 57.4991C118.681 57.4991 118.8 57.5195 118.911 57.5589C119.021 57.5984 119.122 57.6562 119.207 57.7291C119.292 57.8021 119.359 57.8886 119.405 57.9839C119.451 58.0792 119.474 58.1813 119.474 58.2844V60.0793C119.474 60.4363 119.31 60.7787 119.016 61.0312C118.722 61.2836 118.324 61.4255 117.909 61.4255C117.667 61.4255 117.434 61.3427 117.263 61.1955C117.092 61.0482 116.996 60.8485 116.996 60.6402V58.8453C116.996 58.4883 117.161 58.1459 117.454 57.8934C117.748 57.641 118.146 57.4991 118.561 57.4991Z" fill="#36334A"/>
<path d="M118.561 71.8593C118.146 71.8593 117.748 71.7175 117.454 71.465C117.161 71.2126 116.996 70.8702 116.996 70.5131V69.2791C116.996 68.9221 117.161 68.5797 117.454 68.3273C117.748 68.0748 118.146 67.933 118.561 67.933C119.422 67.933 119.344 68.5388 119.344 69.2791V70.5131C119.343 71.2535 119.425 71.8593 118.561 71.8593Z" fill="#36334A"/>
<path d="M114.647 62.6595C115.063 62.6595 115.461 62.8014 115.755 63.0538C116.048 63.3063 116.213 63.6487 116.213 64.0057V65.6884C116.213 65.9264 116.103 66.1547 115.907 66.323C115.712 66.4913 115.446 66.5859 115.169 66.5859C114.754 66.5859 114.356 66.444 114.062 66.1916C113.769 65.9391 113.604 65.5967 113.604 65.2397V63.557C113.604 63.319 113.714 63.0907 113.909 62.9224C114.105 62.7541 114.371 62.6595 114.647 62.6595Z" fill="#36334A"/>
<path d="M123.584 64.1191C123.584 64.3121 123.584 64.505 123.57 64.6957C123.537 65.4381 123.433 66.1768 123.259 66.9046C123.173 66.9171 123.086 66.9235 122.998 66.9236C122.583 66.9236 122.185 66.7818 121.891 66.5294C121.598 66.2769 121.433 65.9345 121.433 65.5775V64.3435C121.433 63.9865 121.598 63.6441 121.891 63.3916C122.185 63.1392 122.583 62.9973 122.998 62.9973C123.135 62.997 123.271 63.0125 123.403 63.0433C123.45 63.0545 123.497 63.0669 123.541 63.0815C123.57 63.4225 123.584 63.7691 123.584 64.1191Z" fill="#36334A"/>
<path d="M71.3324 66.5857H71.0715C70.2068 66.5857 69.5059 67.1884 69.5059 67.9319V69.1658C69.5059 69.9093 70.2068 70.512 71.0715 70.512H71.3324C72.197 70.512 72.898 69.9093 72.898 69.1658V67.9319C72.898 67.1884 72.197 66.5857 71.3324 66.5857Z" fill="#36334A"/>
<path d="M58.5467 66.5857H58.2858C57.4212 66.5857 56.7202 67.1884 56.7202 67.9319V69.1658C56.7202 69.9093 57.4212 70.512 58.2858 70.512H58.5467C59.4114 70.512 60.1123 69.9093 60.1123 69.1658V67.9319C60.1123 67.1884 59.4114 66.5857 58.5467 66.5857Z" fill="#36334A"/>
<path d="M64.8092 72.4192H64.5483C63.6836 72.4192 62.9827 73.0219 62.9827 73.7654V74.9993C62.9827 75.7428 63.6836 76.3455 64.5483 76.3455H64.8092C65.6738 76.3455 66.3748 75.7428 66.3748 74.9993V73.7654C66.3748 73.0219 65.6738 72.4192 64.8092 72.4192Z" fill="#36334A"/>
<path d="M110.245 23.3763C110.245 23.5902 110.2 23.8024 110.115 24.0034C109.966 24.3604 109.694 24.6699 109.335 24.8904C108.976 25.1109 108.548 25.2319 108.107 25.2373C107.666 25.2427 107.233 25.1321 106.867 24.9204C106.501 24.7087 106.219 24.406 106.059 24.0527C105.96 23.8384 105.91 23.61 105.91 23.3796C105.91 22.8858 106.138 22.4121 106.544 22.0629C106.95 21.7137 107.501 21.5175 108.076 21.5175C108.65 21.5175 109.201 21.7137 109.607 22.0629C110.013 22.4121 110.241 22.8858 110.241 23.3796L110.245 23.3763Z" fill="#6B40FF"/>
<path d="M106.35 23.8407C106.212 23.6269 106.124 23.3917 106.092 23.1488C106.059 22.9058 106.083 22.6598 106.161 22.4246C106.239 22.1895 106.371 21.97 106.548 21.7785C106.725 21.5871 106.944 21.4274 107.192 21.3088C107.434 21.1911 107.7 21.1149 107.975 21.0844C107.677 21.0753 107.379 21.1194 107.102 21.2138C106.824 21.3082 106.572 21.451 106.362 21.6332C106.151 21.8153 105.987 22.0329 105.879 22.2723C105.771 22.5117 105.722 22.7677 105.735 23.0242C105.747 23.2807 105.821 23.5322 105.952 23.7629C106.084 23.9936 106.269 24.1985 106.496 24.3647C106.724 24.5309 106.989 24.6549 107.275 24.7288C107.561 24.8027 107.861 24.825 108.158 24.7942C107.787 24.7821 107.425 24.688 107.109 24.521C106.792 24.354 106.531 24.1197 106.35 23.8407Z" fill="#6B40FF"/>
<path d="M111.174 25.9698H105.372V33.7518H111.174V25.9698Z" fill="#6B40FF"/>
<path opacity="0.1" d="M111.305 25.7455H105.503V33.5274H111.305V25.7455Z" fill="black"/>
<path d="M96.2019 54.2034C96.2019 54.2034 95.5835 55.6617 94.1144 55.8659C92.6454 56.0701 91.7974 56.3954 91.7974 56.3954L95.2782 58.3238L97.1347 58.1241C97.1347 58.1241 97.3656 56.0622 98.1393 55.5966C98.913 55.1311 96.2019 54.2034 96.2019 54.2034Z" fill="#FFD8CC"/>
<path d="M121.345 54.2034C121.345 54.2034 121.964 55.6617 123.433 55.8659C124.902 56.07 125.752 56.3987 125.752 56.3987L122.272 58.3271L120.415 58.1274C120.415 58.1274 120.184 56.0656 119.41 55.6C118.637 55.1345 121.345 54.2034 121.345 54.2034Z" fill="#FFD8CC"/>
<path d="M104.406 41.3004C104.406 41.3004 103.477 41.6998 103.168 42.4974C103.168 42.4974 101.471 42.9629 100.537 44.2272C100.537 44.2272 99.3775 45.2907 99.2222 45.8235C99.067 46.3564 97.2887 49.5524 97.2887 49.5524C97.2887 49.5524 95.5105 54.5399 94.5815 55.0728C94.5815 55.0728 97.5209 54.5399 98.0624 57.0673C98.0624 57.0673 98.7591 57.0673 99.5327 54.7396C100.306 52.4119 102.162 49.5524 102.162 49.5524C102.162 49.5524 102.781 47.5567 103.323 47.2247C103.864 46.8926 104.715 45.3625 105.489 45.7607C106.262 46.1589 111.367 45.6945 111.367 45.6945C111.367 45.6945 114.384 46.8915 114.461 47.6902C114.538 48.4889 115.08 48.554 115.157 49.2192C115.234 49.8845 118.097 55.139 118.097 55.139C118.097 55.139 118.638 56.5973 118.792 56.9339C118.792 56.9339 120.495 53.4091 122.737 55.4037C122.737 55.4037 122.661 54.0733 121.964 53.2723C121.267 52.4713 118.251 46.2218 118.251 46.2218C118.251 46.2218 117.942 45.2907 117.632 45.0248C117.323 44.7589 114.925 42.6309 114.076 42.6309C114.076 42.6309 113.611 41.6325 113.07 41.5001L104.406 41.3004Z" fill="#696880"/>
<path d="M97.4441 57.6618C96.8397 57.8704 96.1827 57.9408 95.5372 57.8661C94.8917 57.7914 94.2798 57.5742 93.761 57.2355C93.257 56.903 92.7048 56.6281 92.1184 56.4178C91.2991 56.1328 90.3167 55.9208 90.0179 56.3987C89.4765 57.2625 96.5934 59.3917 96.5934 59.3917C96.5934 59.3917 97.5211 58.925 97.4441 57.6618Z" fill="#696880"/>
<path d="M120.107 57.6618C120.712 57.8704 121.369 57.9408 122.014 57.8661C122.66 57.7914 123.272 57.5742 123.79 57.2355C124.294 56.903 124.847 56.6281 125.433 56.4178C126.252 56.1328 127.235 55.9208 127.533 56.3987C128.075 57.2625 120.958 59.3917 120.958 59.3917C120.958 59.3917 120.03 58.925 120.107 57.6618Z" fill="#696880"/>
<path d="M106.934 30.3605C106.904 30.5916 106.817 30.8417 106.587 30.9651C106.399 31.0661 106.162 31.0571 105.945 31.0964C105.718 31.1449 105.507 31.2389 105.329 31.3706C105.152 31.5024 105.013 31.6682 104.924 31.8547C104.75 32.2313 104.717 32.6446 104.827 33.0382C104.878 33.2314 104.943 33.4215 105.024 33.607C105.252 34.1589 105.526 34.7052 105.949 35.1652C106.311 35.5295 106.718 35.859 107.162 36.1479C107.438 36.3408 107.722 36.5383 108.061 36.6291C108.292 36.6815 108.529 36.7083 108.767 36.7088C109.061 36.7211 109.373 36.729 109.627 36.6033C110.018 36.4092 110.136 35.9796 110.347 35.6363C110.528 35.3435 110.797 35.0967 110.966 34.7983C111.085 34.5643 111.172 34.3193 111.226 34.068L111.588 32.6871C111.718 32.1868 111.838 31.6214 111.51 31.1917C111.487 31.1563 111.453 31.1265 111.413 31.1054C111.351 31.0836 111.282 31.0774 111.216 31.0874C110.8 31.1115 110.385 31.0299 110.022 30.853C109.965 30.8284 109.914 30.7941 109.872 30.752C109.819 30.681 109.787 30.5996 109.78 30.5153C109.744 30.344 109.688 30.1763 109.613 30.015C109.591 29.9574 109.552 29.9058 109.499 29.8658C109.444 29.8359 109.381 29.8178 109.316 29.8131C108.758 29.7348 108.195 29.6838 107.63 29.6605C107.443 29.6538 107.164 29.5898 107.037 29.73C106.911 29.8703 106.955 30.1922 106.934 30.3605Z" fill="#FFD8CC"/>
<path opacity="0.1" d="M106.934 30.3605C106.904 30.5916 106.817 30.8417 106.587 30.9651C106.399 31.0661 106.162 31.0571 105.945 31.0964C105.718 31.1449 105.507 31.2389 105.329 31.3706C105.152 31.5024 105.013 31.6682 104.924 31.8547C104.75 32.2313 104.717 32.6446 104.827 33.0382C104.878 33.2314 104.943 33.4215 105.024 33.607C105.252 34.1589 105.526 34.7052 105.949 35.1652C106.311 35.5295 106.718 35.859 107.162 36.1479C107.438 36.3408 107.722 36.5383 108.061 36.6291C108.292 36.6815 108.529 36.7083 108.767 36.7088C109.061 36.7211 109.373 36.729 109.627 36.6033C110.018 36.4092 110.136 35.9796 110.347 35.6363C110.528 35.3435 110.797 35.0967 110.966 34.7983C111.085 34.5643 111.172 34.3193 111.226 34.068L111.588 32.6871C111.718 32.1868 111.838 31.6214 111.51 31.1917C111.487 31.1563 111.453 31.1265 111.413 31.1054C111.351 31.0836 111.282 31.0774 111.216 31.0874C110.8 31.1115 110.385 31.0299 110.022 30.853C109.965 30.8284 109.914 30.7941 109.872 30.752C109.819 30.681 109.787 30.5996 109.78 30.5153C109.744 30.344 109.688 30.1763 109.613 30.015C109.591 29.9574 109.552 29.9058 109.499 29.8658C109.444 29.8359 109.381 29.8178 109.316 29.8131C108.758 29.7348 108.195 29.6838 107.63 29.6605C107.443 29.6538 107.164 29.5898 107.037 29.73C106.911 29.8703 106.955 30.1922 106.934 30.3605Z" fill="black"/>
<path d="M105.887 31.1547C105.584 31.0773 105.271 31.0347 104.955 31.0279C104.209 31.0122 103.412 31.2343 102.98 31.7582C102.688 32.1359 102.58 32.5974 102.681 33.0427C102.785 33.4847 103.019 33.8966 103.359 34.2396C103.556 34.4197 103.731 34.6166 103.881 34.8275C104.087 35.164 104.093 35.5656 104.142 35.9493C104.273 36.8591 104.724 37.7161 104.904 38.6203C105.084 39.5245 104.928 40.5745 104.097 41.1511C103.957 41.2475 103.789 41.3485 103.777 41.5022C103.757 41.7479 104.129 41.8533 104.415 41.8758C105.269 41.9464 106.146 42.0149 106.976 41.8253C107.32 41.7468 107.65 41.6245 108 41.5684C108.889 41.4259 109.781 41.7176 110.668 41.8589C111.311 41.9496 111.962 41.995 112.613 41.9947C112.766 42.0063 112.919 41.989 113.062 41.9442C113.133 41.9203 113.193 41.8776 113.234 41.8224C113.275 41.7671 113.294 41.7021 113.289 41.6368C113.261 41.552 113.208 41.4748 113.135 41.4125C112.686 40.9346 112.549 40.3019 112.427 39.6972L112.022 37.6611C111.802 36.5752 111.597 35.3962 112.195 34.4203C112.625 33.7191 113.416 33.2255 113.87 32.5356C114.03 32.3268 114.103 32.077 114.076 31.8278C114.008 31.4811 113.644 31.2332 113.271 31.0874C112.554 30.8117 111.74 30.7864 111.002 31.0167C111.015 31.5024 110.872 31.9938 110.778 32.4751L110.62 33.2603C110.54 33.723 110.422 34.1804 110.268 34.6289C110.21 34.808 110.114 34.9762 109.985 35.1248C109.845 35.2579 109.675 35.3646 109.485 35.4377C109.073 35.6109 108.619 35.6996 108.161 35.6969C107.962 35.7003 107.764 35.6745 107.576 35.6206C107.266 35.5241 107.014 35.3256 106.771 35.1326C106.691 35.0743 106.62 35.008 106.558 34.9352C106.495 34.8415 106.446 34.7407 106.414 34.6356C106.308 34.3614 106.225 34.0809 106.166 33.7965C106.125 33.5789 106.114 33.3579 106.095 33.138C106.038 32.5009 106.039 31.7795 105.887 31.1547Z" fill="#F2F2F2"/>
<path d="M105.101 44.0273C105.101 44.0273 104.792 47.5521 106.725 48.1511C108.659 48.7502 106.958 45.2243 106.958 45.2243L106.339 44.1597L105.101 44.0273Z" fill="#FFD8CC"/>
<path d="M111.676 44.0273C111.676 44.0273 111.986 47.5521 110.052 48.1511C108.119 48.7502 109.82 45.2243 109.82 45.2243L110.438 44.1597L111.676 44.0273Z" fill="#FFD8CC"/>
<path opacity="0.1" d="M103.4 32.2553L102.781 33.1202C102.781 33.1202 103.323 36.1132 103.4 36.6449C103.466 37.0279 103.569 37.4054 103.709 37.7735C103.709 37.7735 103.786 39.3698 103.786 39.9677C103.786 40.5656 104.177 41.564 104.177 41.564C104.231 42.1295 104.363 42.6875 104.569 43.2265C104.878 43.9591 105.188 44.8229 105.188 44.8229C105.188 44.8229 105.58 43.8918 107.122 45.2884C107.294 45.1376 107.391 44.9345 107.391 44.723C107.391 44.5115 107.294 44.3085 107.122 44.1576C107.122 44.1576 106.657 42.3628 106.657 41.4317C106.657 40.5006 105.807 36.047 105.807 36.047C105.807 36.047 105.256 30.991 103.4 32.2553Z" fill="black"/>
<path d="M103.247 32.1892L102.629 33.053C102.629 33.053 103.17 36.0459 103.247 36.5788C103.314 36.9621 103.418 37.34 103.558 37.7085C103.558 37.7085 103.638 39.3048 103.638 39.9049C103.638 40.5051 104.03 41.5013 104.03 41.5013C104.084 42.0667 104.216 42.6246 104.421 43.1638C104.73 43.8952 105.04 44.7601 105.04 44.7601C105.04 44.7601 105.431 43.829 106.973 45.2256C107.146 45.0749 107.243 44.8719 107.243 44.6603C107.243 44.4487 107.146 44.2456 106.973 44.0949C106.973 44.0949 106.509 42.3 106.509 41.3678C106.509 40.4356 105.658 35.9831 105.658 35.9831C105.658 35.9831 105.101 30.9305 103.247 32.1892Z" fill="#F2F2F2"/>
<path opacity="0.1" d="M113.455 31.7224L113.846 32.1184C113.846 32.1184 114.303 34.3833 113.297 37.2428L112.988 39.8375C112.988 39.8375 112.446 42.0318 112.368 42.5646C112.29 43.0975 112.291 43.1626 112.137 43.3622C112.09 43.4089 112.064 43.4686 112.064 43.5305C112.064 43.5924 112.09 43.6522 112.137 43.6988L111.673 45.1627C111.673 45.1627 110.976 44.4313 109.585 45.3624C109.585 45.3624 109.194 44.8296 109.508 44.364C109.823 43.8985 109.817 43.6988 109.74 43.5664C109.663 43.434 110.05 42.7677 110.05 42.6353C110.05 42.5029 110.591 39.4427 110.591 39.4427C110.591 39.4427 110.823 36.4497 111.056 35.4524C111.198 34.8388 111.194 33.4702 111.17 32.5077C111.146 31.5059 112.556 30.9619 113.388 31.6675C113.41 31.682 113.433 31.7022 113.455 31.7224Z" fill="black"/>
<path d="M113.684 31.5899L114.076 31.9859C114.076 31.9859 114.531 34.2497 113.526 37.1103L113.217 39.7039C113.217 39.7039 112.676 41.8993 112.598 42.431C112.519 42.9628 112.521 43.0301 112.365 43.2286C112.319 43.2755 112.293 43.3352 112.293 43.3969C112.293 43.4586 112.319 43.5183 112.365 43.5652L111.902 45.0235C111.902 45.0235 111.205 44.2921 109.815 45.2232C109.815 45.2232 109.423 44.6915 109.738 44.2259C110.052 43.7604 110.047 43.5607 109.969 43.4272C109.89 43.2937 110.279 42.6296 110.279 42.4961C110.279 42.3626 110.821 39.3034 110.821 39.3034C110.821 39.3034 111.053 36.3105 111.284 35.3132C111.515 34.3159 111.362 31.323 111.362 31.323C111.362 31.323 112.604 30.5938 113.684 31.5899Z" fill="#F2F2F2"/>
<path d="M108.505 30.6589C110.214 30.6589 111.599 29.4675 111.599 27.998C111.599 26.5284 110.214 25.337 108.505 25.337C106.796 25.337 105.41 26.5284 105.41 27.998C105.41 29.4675 106.796 30.6589 108.505 30.6589Z" fill="#FFD8CC"/>
<path opacity="0.1" d="M110.119 24.0032C109.97 24.3603 109.698 24.6698 109.339 24.8903C108.98 25.1108 108.552 25.2318 108.11 25.2372C107.669 25.2425 107.237 25.132 106.871 24.9203C106.505 24.7086 106.223 24.4059 106.062 24.0526C107.269 23.6353 108.505 24.0077 108.505 24.0077C109.118 23.8204 109.656 23.8383 110.119 24.0032Z" fill="black"/>
<path d="M108.505 24.1412C108.505 24.1412 102.549 22.3464 104.018 31.0583C104.018 31.0583 105.333 31.7897 106.339 31.3241C106.339 31.3241 105.642 25.2664 108.349 25.5379C111.057 25.8094 110.594 31.1906 110.594 31.1906C110.594 31.1906 112.141 31.59 112.604 30.8541C113.067 30.1182 112.45 22.9432 108.505 24.1412Z" fill="#6B40FF"/>
<path opacity="0.1" d="M108.349 25.1387C106.492 24.9558 106.237 27.748 106.262 29.5193C106.286 27.7592 106.63 25.3686 108.349 25.538C110.283 25.7276 110.599 28.5276 110.622 30.1139C110.643 28.6589 110.458 25.3462 108.349 25.1387Z" fill="black"/>
<path opacity="0.1" d="M104.018 30.6589C103.884 29.8944 103.806 29.1232 103.787 28.3502C103.781 29.2552 103.858 30.1593 104.018 31.0538C104.018 31.0538 105.333 31.7852 106.339 31.3196C106.339 31.3196 106.322 31.176 106.304 30.9348C105.303 31.3791 104.018 30.6589 104.018 30.6589Z" fill="black"/>
<path opacity="0.1" d="M112.604 30.4592C112.172 31.1402 110.801 30.8418 110.614 30.7958C110.605 31.0426 110.594 31.1895 110.594 31.1895C110.594 31.1895 112.141 31.5889 112.604 30.853C112.701 30.7016 112.75 30.2764 112.734 29.7076C112.721 30.079 112.676 30.3459 112.604 30.4592Z" fill="black"/>
<path d="M128.465 73.5072C128.822 72.9384 128.417 72.2407 127.951 71.7336C127.485 71.2266 126.916 70.6982 126.928 70.0509C126.946 69.1221 128.093 68.5735 129.015 68.081C129.696 67.7152 130.323 67.2814 130.885 66.7887C131.12 66.5989 131.314 66.3753 131.459 66.128C131.648 65.7645 131.643 65.3506 131.631 64.9523C131.592 63.6264 131.516 62.3015 131.403 60.9778" stroke="#3F3D56" stroke-width="4" stroke-miterlimit="10"/>
<path d="M133.138 60.906C133.125 60.6632 133.041 60.427 132.894 60.2194C132.747 60.0118 132.542 59.8393 132.297 59.718L131.92 60.3597L131.931 59.5823C131.751 59.537 131.563 59.5177 131.376 59.5251C131.043 59.5385 130.722 59.6365 130.454 59.8066C130.185 59.9768 129.982 60.2116 129.869 60.4812C129.756 60.7508 129.738 61.0432 129.818 61.3214C129.898 61.5996 130.073 61.8511 130.319 62.0442C130.566 62.2372 130.873 62.3631 131.203 62.4059C131.532 62.4488 131.869 62.4066 132.171 62.2848C132.473 62.163 132.726 61.967 132.898 61.7215C133.07 61.4761 133.154 61.1923 133.138 60.906Z" fill="#968DFF"/>
<path d="M130.132 70.7164C129.963 71 129.688 71.2275 129.353 71.3635C129.017 71.4996 128.639 71.5366 128.276 71.4688C127.914 71.4011 127.587 71.2324 127.347 70.9888C127.108 70.7453 126.968 70.4405 126.95 70.1219C126.938 69.9211 126.976 69.7204 127.06 69.5329C127.183 69.2583 127.401 69.0224 127.684 68.8565C127.966 68.6907 128.301 68.6028 128.644 68.6045C128.986 68.6062 129.32 68.6974 129.6 68.8661C129.881 69.0347 130.095 69.2728 130.215 69.5486L129.162 70.2857L130.319 70.0546C130.32 70.2849 130.256 70.5119 130.132 70.7164Z" fill="#968DFF"/>
<path d="M129.3 67.9016C129.079 67.9105 128.857 67.8818 128.649 67.8172C128.441 67.7526 128.249 67.6534 128.086 67.5251C127.922 67.3969 127.789 67.2422 127.695 67.0698C127.601 66.8975 127.547 66.7108 127.537 66.5206C127.524 66.2939 127.574 66.0678 127.683 65.861C127.785 65.6675 127.934 65.4954 128.121 65.3567C128.308 65.2179 128.527 65.1159 128.765 65.0578L128.757 65.6557L129.138 65.0051C129.584 64.9874 130.021 65.123 130.351 65.3819C130.681 65.6409 130.879 66.0021 130.899 66.386C130.909 66.5533 130.885 66.7207 130.827 66.8807C130.726 67.1652 130.524 67.4158 130.251 67.5984C129.978 67.781 129.645 67.8869 129.3 67.9016Z" fill="#968DFF"/>
<path d="M133.392 65.5605C133.171 65.5694 132.95 65.5407 132.742 65.4761C132.534 65.4115 132.342 65.3123 132.178 65.184C132.015 65.0558 131.882 64.901 131.788 64.7287C131.694 64.5563 131.64 64.3697 131.63 64.1795C131.616 63.9429 131.67 63.7069 131.789 63.493C131.888 63.3131 132.028 63.1526 132.202 63.0215C132.376 62.8904 132.58 62.7915 132.8 62.731C133.02 62.6705 133.253 62.6497 133.483 62.6698C133.713 62.6899 133.936 62.7505 134.137 62.8479L133.84 63.5491L134.452 63.0431C134.78 63.3016 134.976 63.6614 134.997 64.0438C135.005 64.178 134.99 64.3124 134.954 64.4431C134.871 64.7501 134.673 65.0252 134.391 65.2268C134.109 65.4285 133.759 65.5456 133.392 65.5605Z" fill="#968DFF"/>
<path opacity="0.1" d="M132.912 61.292C132.521 61.329 132.144 61.4322 131.754 61.4535C131.364 61.4748 130.935 61.3941 130.688 61.1327C130.573 60.9811 130.469 60.8238 130.376 60.6615C130.27 60.5187 130.124 60.4005 129.952 60.3171C129.819 60.5405 129.756 60.79 129.771 61.0407C129.789 61.3927 129.956 61.7269 130.24 61.9808C130.524 62.2347 130.906 62.3909 131.315 62.4202C131.723 62.4495 132.13 62.3498 132.459 62.1399C132.788 61.93 133.017 61.6242 133.103 61.2796C133.039 61.2819 132.975 61.2864 132.912 61.292Z" fill="black"/>
<path opacity="0.1" d="M133.392 65.5603C133.171 65.5692 132.95 65.5405 132.742 65.4759C132.534 65.4113 132.342 65.3121 132.178 65.1838C132.015 65.0556 131.882 64.9009 131.788 64.7285C131.694 64.5562 131.64 64.3696 131.63 64.1793C131.616 63.9427 131.67 63.7067 131.789 63.4928C131.923 63.5703 132.038 63.6694 132.128 63.7845C132.248 63.9404 132.32 64.121 132.462 64.2635C132.723 64.5282 133.173 64.6157 133.58 64.6C133.987 64.5843 134.379 64.4878 134.785 64.4531C134.841 64.4531 134.898 64.4452 134.954 64.4441C134.87 64.7508 134.673 65.0257 134.391 65.2271C134.109 65.4285 133.759 65.5455 133.392 65.5603Z" fill="black"/>
<path opacity="0.1" d="M129.3 67.9017C129.079 67.9106 128.857 67.8819 128.649 67.8173C128.441 67.7527 128.249 67.6534 128.086 67.5252C127.922 67.397 127.789 67.2422 127.695 67.0699C127.601 66.8975 127.547 66.7109 127.537 66.5207C127.524 66.294 127.574 66.0679 127.683 65.8611C127.82 65.9403 127.939 66.0398 128.036 66.155C128.166 66.3143 128.248 66.4915 128.401 66.6441C128.685 66.9167 129.164 67.0121 129.595 67.0042C130.025 66.9964 130.414 66.9077 130.829 66.8808C130.727 67.1654 130.525 67.4161 130.252 67.5988C129.978 67.7814 129.646 67.8872 129.3 67.9017Z" fill="black"/>
<path opacity="0.1" d="M130.133 70.7162C129.963 70.9998 129.688 71.2273 129.353 71.3633C129.017 71.4994 128.639 71.5364 128.276 71.4686C127.914 71.4009 127.587 71.2322 127.347 70.9886C127.108 70.7451 126.968 70.4403 126.95 70.1217C126.938 69.9209 126.976 69.7202 127.06 69.5327C127.199 69.6113 127.323 69.7069 127.429 69.8165C127.59 69.9848 127.69 70.1755 127.881 70.3314C128.225 70.6231 128.782 70.7432 129.277 70.7544C129.563 70.7558 129.848 70.7431 130.133 70.7162Z" fill="black"/>
<path d="M125.923 72.8522C125.923 72.8522 127.253 72.8174 127.655 72.5717C128.056 72.326 129.7 72.0332 129.801 72.427C129.901 72.8207 131.8 74.3857 130.298 74.3958C128.796 74.4059 126.808 74.1949 126.407 73.9852C126.007 73.7754 125.923 72.8522 125.923 72.8522Z" fill="#656380"/>
<path opacity="0.2" d="M130.324 74.2588C128.822 74.2689 126.834 74.0569 126.433 73.8482C126.129 73.6878 126.008 73.1157 125.968 72.851H125.923C125.923 72.851 126.007 73.7742 126.407 73.984C126.808 74.1937 128.796 74.4047 130.298 74.3946C130.731 74.3946 130.881 74.2588 130.873 74.058C130.813 74.1825 130.645 74.2566 130.324 74.2588Z" fill="black"/>
</g>
<defs>
<clipPath id="clip0_7074:4886">
<rect width="135" height="79.2766" fill="white" transform="translate(0 0.265991)"/>
</clipPath>
</defs>
</svg>
