<svg width="18" height="18" viewBox="0 0 18 18" fill="none" xmlns="http://www.w3.org/2000/svg">
<path fill-rule="evenodd" clip-rule="evenodd" d="M8.97923 15.2762C6.54998 15.2762 4.47473 14.9087 4.47473 13.4372C4.47473 11.9657 6.53648 10.6847 8.97923 10.6847C11.4085 10.6847 13.4837 11.9537 13.4837 13.4244C13.4837 14.8952 11.422 15.2762 8.97923 15.2762Z" stroke="#CFCBFF" stroke-width="1.2" stroke-linecap="round" stroke-linejoin="round"/>
<path fill-rule="evenodd" clip-rule="evenodd" d="M8.97934 8.58663C10.5738 8.58663 11.8668 7.29438 11.8668 5.69988C11.8668 4.10538 10.5738 2.81238 8.97934 2.81238C7.38484 2.81238 6.09184 4.10538 6.09184 5.69988C6.08734 7.28838 7.36984 8.58138 8.95909 8.58663H8.97934Z" stroke="#CFCBFF" stroke-width="1.2" stroke-linecap="round" stroke-linejoin="round"/>
<path d="M13.7716 7.79377C14.6994 7.54552 15.3834 6.69952 15.3834 5.69227C15.3834 4.64152 14.6386 3.76402 13.6471 3.56152" stroke="#CFCBFF" stroke-width="1.2" stroke-linecap="round" stroke-linejoin="round"/>
<path d="M14.2073 10.1583C15.5228 10.1583 16.6463 11.0501 16.6463 11.8466C16.6463 12.3153 16.2586 12.8261 15.6706 12.9641" stroke="#CFCBFF" stroke-width="1.2" stroke-linecap="round" stroke-linejoin="round"/>
<path d="M4.18773 7.79377C3.25923 7.54552 2.57523 6.69952 2.57523 5.69227C2.57523 4.64152 3.32073 3.76402 4.31148 3.56152" stroke="#CFCBFF" stroke-width="1.2" stroke-linecap="round" stroke-linejoin="round"/>
<path d="M3.75126 10.1583C2.43576 10.1583 1.31226 11.0501 1.31226 11.8466C1.31226 12.3153 1.70001 12.8261 2.28876 12.9641" stroke="#CFCBFF" stroke-width="1.2" stroke-linecap="round" stroke-linejoin="round"/>
</svg>
