<svg width="11" height="15" viewBox="0 0 11 15" fill="none" xmlns="http://www.w3.org/2000/svg">
<path fill-rule="evenodd" clip-rule="evenodd" d="M5.40284 13.5387C3.09545 13.5387 1.125 13.1796 1.125 11.7416C1.125 10.3037 3.08295 8.9762 5.40284 8.9762C7.71023 8.9762 9.68068 10.2908 9.68068 11.7288C9.68068 13.1662 7.72273 13.5387 5.40284 13.5387Z" stroke="white" stroke-width="1.2" stroke-linecap="round" stroke-linejoin="round"/>
<path fill-rule="evenodd" clip-rule="evenodd" d="M5.39836 6.98352C6.91256 6.98352 8.13983 5.75625 8.13983 4.24205C8.13983 2.72784 6.91256 1.5 5.39836 1.5C3.88415 1.5 2.65631 2.72784 2.65631 4.24205C2.6512 5.75114 3.86995 6.97841 5.37904 6.98352C5.38586 6.98352 5.39211 6.98352 5.39836 6.98352Z" stroke="white" stroke-width="1.2" stroke-linecap="round" stroke-linejoin="round"/>
</svg>
