<svg width="47" height="49" viewBox="0 0 47 49" fill="none" xmlns="http://www.w3.org/2000/svg">
<ellipse cx="23.5" cy="24.1528" rx="23.5" ry="24.1528" fill="url(#paint0_linear)"/>
<path d="M21.4842 24.1102C21.4702 23.5459 21.7679 23.0197 22.2589 22.7412L31.1813 17.6794C32.2217 17.0891 33.5158 17.8214 33.5456 19.0172C33.5603 19.6071 33.2458 20.1561 32.7296 20.4419L23.7551 25.4108C22.7499 25.9673 21.5128 25.2588 21.4842 24.1102Z" fill="white"/>
<path d="M21.4842 24.1102C21.4702 23.5459 21.7679 23.0197 22.2589 22.7412L31.1813 17.6794C32.2217 17.0891 33.5158 17.8214 33.5456 19.0172C33.5603 19.6071 33.2458 20.1561 32.7296 20.4419L23.7551 25.4108C22.7499 25.9673 21.5128 25.2588 21.4842 24.1102Z" fill="url(#paint1_linear)"/>
<path d="M21.6185 29.4923C21.6045 28.928 21.9022 28.4018 22.3932 28.1233L31.3156 23.0615C32.356 22.4712 33.6501 23.2035 33.6799 24.3993C33.6945 24.9891 33.3801 25.5382 32.8639 25.824L23.8894 30.7929C22.8842 31.3494 21.6471 30.6409 21.6185 29.4923Z" fill="white"/>
<path d="M21.6185 29.4923C21.6045 28.928 21.9022 28.4018 22.3932 28.1233L31.3156 23.0615C32.356 22.4712 33.6501 23.2035 33.6799 24.3993C33.6945 24.9891 33.3801 25.5382 32.8639 25.824L23.8894 30.7929C22.8842 31.3494 21.6471 30.6409 21.6185 29.4923Z" fill="url(#paint2_linear)"/>
<path d="M21.7533 34.9151C21.7392 34.3508 22.037 33.8247 22.5279 33.5462L31.4503 28.4843C32.4908 27.8941 33.7849 28.6263 33.8146 29.8222C33.8293 30.412 33.5148 30.9611 32.9986 31.2468L24.0241 36.2157C23.019 36.7722 21.7819 36.0637 21.7533 34.9151Z" fill="white"/>
<path d="M21.7533 34.9151C21.7392 34.3508 22.037 33.8247 22.5279 33.5462L31.4503 28.4843C32.4908 27.8941 33.7849 28.6263 33.8146 29.8222C33.8293 30.412 33.5148 30.9611 32.9986 31.2468L24.0241 36.2157C23.019 36.7722 21.7819 36.0637 21.7533 34.9151Z" fill="url(#paint3_linear)"/>
<path d="M22.172 36.3968C21.6538 36.1145 21.333 35.57 21.3375 34.9799L21.4185 24.2564C21.428 23.006 22.7674 22.2171 23.8655 22.8153C24.4072 23.1103 24.7399 23.682 24.7288 24.2987L24.5364 35.0207C24.5148 36.2216 23.2268 36.9713 22.172 36.3968Z" fill="white"/>
<path d="M22.172 36.3968C21.6538 36.1145 21.333 35.57 21.3375 34.9799L21.4185 24.2564C21.428 23.006 22.7674 22.2171 23.8655 22.8153C24.4072 23.1103 24.7399 23.682 24.7288 24.2987L24.5364 35.0207C24.5148 36.2216 23.2268 36.9713 22.172 36.3968Z" fill="url(#paint4_linear)"/>
<path d="M16.9684 21.6312C16.9543 21.0669 17.2521 20.5407 17.743 20.2622L26.6654 15.2004C27.7059 14.6101 28.9999 15.3424 29.0297 16.5382C29.0444 17.1281 28.7299 17.6771 28.2137 17.9629L19.2392 22.9318C18.234 23.4883 16.997 22.7798 16.9684 21.6312Z" fill="white"/>
<path d="M16.9684 21.6312C16.9543 21.0669 17.2521 20.5407 17.743 20.2622L26.6654 15.2004C27.7059 14.6101 28.9999 15.3424 29.0297 16.5382C29.0444 17.1281 28.7299 17.6771 28.2137 17.9629L19.2392 22.9318C18.234 23.4883 16.997 22.7798 16.9684 21.6312Z" fill="url(#paint5_linear)"/>
<path d="M17.6568 33.9173C17.1386 33.635 16.8179 33.0905 16.8224 32.5004L16.9034 21.7769C16.9129 20.5265 18.2522 19.7377 19.3504 20.3358C19.8921 20.6308 20.2248 21.2025 20.2137 21.8192L20.0213 32.5412C19.9997 33.7421 18.7116 34.4918 17.6568 33.9173Z" fill="white"/>
<path d="M17.6568 33.9173C17.1386 33.635 16.8179 33.0905 16.8224 32.5004L16.9034 21.7769C16.9129 20.5265 18.2522 19.7377 19.3504 20.3358C19.8921 20.6308 20.2248 21.2025 20.2137 21.8192L20.0213 32.5412C19.9997 33.7421 18.7116 34.4918 17.6568 33.9173Z" fill="url(#paint6_linear)"/>
<path d="M12.6124 19.0672C12.5984 18.5029 12.8961 17.9768 13.3871 17.6983L22.3095 12.6364C23.3499 12.0462 24.644 12.7784 24.6737 13.9743C24.6884 14.5641 24.374 15.1132 23.8578 15.3989L14.8833 20.3678C13.8781 20.9243 12.641 20.2158 12.6124 19.0672Z" fill="white"/>
<path d="M12.6124 19.0672C12.5984 18.5029 12.8961 17.9768 13.3871 17.6983L22.3095 12.6364C23.3499 12.0462 24.644 12.7784 24.6737 13.9743C24.6884 14.5641 24.374 15.1132 23.8578 15.3989L14.8833 20.3678C13.8781 20.9243 12.641 20.2158 12.6124 19.0672Z" fill="url(#paint7_linear)"/>
<path d="M13.3001 31.3531C12.782 31.0708 12.4612 30.5263 12.4657 29.9362L12.5467 19.2127C12.5562 17.9623 13.8955 17.1734 14.9937 17.7716C15.5354 18.0666 15.8681 18.6383 15.857 19.2549L15.6646 29.977C15.643 31.1779 14.3549 31.9276 13.3001 31.3531Z" fill="white"/>
<path d="M13.3001 31.3531C12.782 31.0708 12.4612 30.5263 12.4657 29.9362L12.5467 19.2127C12.5562 17.9623 13.8955 17.1734 14.9937 17.7716C15.5354 18.0666 15.8681 18.6383 15.857 19.2549L15.6646 29.977C15.643 31.1779 14.3549 31.9276 13.3001 31.3531Z" fill="url(#paint8_linear)"/>
<defs>
<linearGradient id="paint0_linear" x1="1.66969e-07" y1="24.9856" x2="47" y2="24.9856" gradientUnits="userSpaceOnUse">
<stop stop-color="#B2B0FF"/>
<stop offset="0.489583" stop-color="#A29CFF"/>
<stop offset="1" stop-color="#7F7CE2"/>
</linearGradient>
<linearGradient id="paint1_linear" x1="27.3896" y1="16.5269" x2="27.6373" y2="26.4818" gradientUnits="userSpaceOnUse">
<stop stop-color="white"/>
<stop offset="1" stop-color="white" stop-opacity="0"/>
</linearGradient>
<linearGradient id="paint2_linear" x1="27.5239" y1="21.909" x2="27.7716" y2="31.8638" gradientUnits="userSpaceOnUse">
<stop stop-color="white"/>
<stop offset="1" stop-color="white" stop-opacity="0"/>
</linearGradient>
<linearGradient id="paint3_linear" x1="27.6586" y1="27.3319" x2="27.9063" y2="37.2867" gradientUnits="userSpaceOnUse">
<stop stop-color="white"/>
<stop offset="1" stop-color="white" stop-opacity="0"/>
</linearGradient>
<linearGradient id="paint4_linear" x1="18.3933" y1="27.0868" x2="27.5352" y2="32.0658" gradientUnits="userSpaceOnUse">
<stop stop-color="white"/>
<stop offset="1" stop-color="white" stop-opacity="0"/>
</linearGradient>
<linearGradient id="paint5_linear" x1="22.8737" y1="14.0479" x2="23.1214" y2="24.0028" gradientUnits="userSpaceOnUse">
<stop stop-color="white"/>
<stop offset="1" stop-color="white" stop-opacity="0"/>
</linearGradient>
<linearGradient id="paint6_linear" x1="13.8782" y1="24.6073" x2="23.02" y2="29.5864" gradientUnits="userSpaceOnUse">
<stop stop-color="white"/>
<stop offset="1" stop-color="white" stop-opacity="0"/>
</linearGradient>
<linearGradient id="paint7_linear" x1="18.5177" y1="11.484" x2="18.7655" y2="21.4388" gradientUnits="userSpaceOnUse">
<stop stop-color="white"/>
<stop offset="1" stop-color="white" stop-opacity="0"/>
</linearGradient>
<linearGradient id="paint8_linear" x1="9.52147" y1="22.0431" x2="18.6633" y2="27.0221" gradientUnits="userSpaceOnUse">
<stop stop-color="white"/>
<stop offset="1" stop-color="white" stop-opacity="0"/>
</linearGradient>
</defs>
</svg>
