<svg width="13" height="13" viewBox="0 0 13 13" fill="none" xmlns="http://www.w3.org/2000/svg">
<path fill-rule="evenodd" clip-rule="evenodd" d="M11.9694 12.7124H7.43628C7.17753 12.7124 6.96753 12.5024 6.96753 12.2437C6.96753 11.9849 7.17753 11.7749 7.43628 11.7749H11.9694C12.2282 11.7749 12.4382 11.9849 12.4382 12.2437C12.4382 12.5024 12.2282 12.7124 11.9694 12.7124" fill="white"/>
<mask id="mask0" mask-type="alpha" maskUnits="userSpaceOnUse" x="0" y="0" width="11" height="13">
<path fill-rule="evenodd" clip-rule="evenodd" d="M0.250244 0.875122H10.9881V12.7123H0.250244V0.875122Z" fill="white"/>
</mask>
<g mask="url(#mask0)">
<path fill-rule="evenodd" clip-rule="evenodd" d="M7.19418 2.13554L1.30981 9.49492C1.20293 9.62867 1.16356 9.80117 1.20293 9.96679L1.62856 11.7699L3.52793 11.7462C3.70856 11.7443 3.87543 11.6637 3.98606 11.5262C5.99668 9.01054 9.82981 4.21429 9.93856 4.07367C10.0411 3.90742 10.0811 3.67242 10.0273 3.44617C9.97231 3.21429 9.82793 3.01742 9.61981 2.89179C9.57543 2.86117 8.52231 2.04367 8.48981 2.01804C8.09356 1.70054 7.51543 1.75554 7.19418 2.13554V2.13554ZM1.25854 12.7124C1.04167 12.7124 0.852916 12.5637 0.802291 12.3518L0.290416 10.1824C0.184791 9.73303 0.289791 9.26928 0.577916 8.90928L6.46542 1.54552C6.46792 1.54302 6.46979 1.5399 6.47229 1.5374C7.11792 0.765524 8.28542 0.651774 9.07292 1.28365C9.10417 1.30802 10.1498 2.12052 10.1498 2.12052C10.5298 2.34677 10.8267 2.75115 10.9392 3.2299C11.051 3.70365 10.9698 4.1924 10.7092 4.60553C10.6898 4.63615 10.6729 4.6624 4.71792 12.1124C4.43104 12.4699 4.00104 12.678 3.53917 12.6837L1.26479 12.7124H1.25854Z" fill="white"/>
</g>
<path fill-rule="evenodd" clip-rule="evenodd" d="M9.13964 6.3031C9.03964 6.3031 8.93964 6.27123 8.85401 6.20623L5.44651 3.58873C5.24151 3.43123 5.20276 3.13748 5.36026 2.93123C5.51839 2.72623 5.81214 2.6881 6.01776 2.8456L9.42589 5.46248C9.63089 5.61998 9.66964 5.91435 9.51151 6.11998C9.41964 6.23998 9.28026 6.3031 9.13964 6.3031" fill="white"/>
</svg>
