<svg width="15" height="15" viewBox="0 0 15 15" fill="none" xmlns="http://www.w3.org/2000/svg">
<path fill-rule="evenodd" clip-rule="evenodd" d="M7.40284 13.5388C5.09545 13.5388 3.125 13.1798 3.125 11.7418C3.125 10.3038 5.08295 8.97632 7.40284 8.97632C9.71023 8.97632 11.6807 10.2909 11.6807 11.7289C11.6807 13.1663 9.72273 13.5388 7.40284 13.5388Z" stroke="white" stroke-width="1.2" stroke-linecap="round" stroke-linejoin="round"/>
<path fill-rule="evenodd" clip-rule="evenodd" d="M7.39837 6.98352C8.91258 6.98352 10.1398 5.75625 10.1398 4.24205C10.1398 2.72784 8.91258 1.5 7.39837 1.5C5.88417 1.5 4.65633 2.72784 4.65633 4.24205C4.65121 5.75114 5.86996 6.97841 7.37905 6.98352C7.38587 6.98352 7.39212 6.98352 7.39837 6.98352Z" stroke="white" stroke-width="1.2" stroke-linecap="round" stroke-linejoin="round"/>
</svg>
