<svg width="36" height="37" viewBox="0 0 36 37" fill="none" xmlns="http://www.w3.org/2000/svg">
<ellipse cx="18" cy="18.5" rx="18" ry="18.5" fill="url(#paint0_linear)"/>
<path d="M16.4562 18.4673C16.4455 18.0351 16.6735 17.632 17.0496 17.4187L23.8837 13.5416C24.6807 13.0894 25.6719 13.6503 25.6947 14.5663C25.7059 15.0181 25.4651 15.4386 25.0697 15.6575L18.1956 19.4635C17.4257 19.8898 16.4781 19.3471 16.4562 18.4673Z" fill="white"/>
<path d="M16.4562 18.4673C16.4455 18.0351 16.6735 17.632 17.0496 17.4187L23.8837 13.5416C24.6807 13.0894 25.6719 13.6503 25.6947 14.5663C25.7059 15.0181 25.4651 15.4386 25.0697 15.6575L18.1956 19.4635C17.4257 19.8898 16.4781 19.3471 16.4562 18.4673Z" fill="url(#paint1_linear)"/>
<path d="M16.5589 22.5897C16.5481 22.1575 16.7762 21.7545 17.1522 21.5412L23.9864 17.664C24.7833 17.2119 25.7746 17.7728 25.7973 18.6887C25.8086 19.1405 25.5677 19.5611 25.1724 19.78L18.2983 23.5859C17.5283 24.0122 16.5808 23.4695 16.5589 22.5897Z" fill="white"/>
<path d="M16.5589 22.5897C16.5481 22.1575 16.7762 21.7545 17.1522 21.5412L23.9864 17.664C24.7833 17.2119 25.7746 17.7728 25.7973 18.6887C25.8086 19.1405 25.5677 19.5611 25.1724 19.78L18.2983 23.5859C17.5283 24.0122 16.5808 23.4695 16.5589 22.5897Z" fill="url(#paint2_linear)"/>
<path d="M16.6623 26.7434C16.6515 26.3112 16.8796 25.9082 17.2556 25.6948L24.0898 21.8177C24.8867 21.3656 25.8779 21.9265 25.9007 22.8424C25.912 23.2942 25.6711 23.7148 25.2757 23.9337L18.4017 27.7396C17.6317 28.1659 16.6842 27.6232 16.6623 26.7434Z" fill="white"/>
<path d="M16.6623 26.7434C16.6515 26.3112 16.8796 25.9082 17.2556 25.6948L24.0898 21.8177C24.8867 21.3656 25.8779 21.9265 25.9007 22.8424C25.912 23.2942 25.6711 23.7148 25.2757 23.9337L18.4017 27.7396C17.6317 28.1659 16.6842 27.6232 16.6623 26.7434Z" fill="url(#paint3_linear)"/>
<path d="M16.9829 27.8781C16.586 27.662 16.3403 27.2448 16.3437 26.7929L16.4058 18.5792C16.413 17.6213 17.4389 17.0171 18.2801 17.4753C18.695 17.7012 18.9498 18.1391 18.9413 18.6115L18.7939 26.8241C18.7774 27.744 17.7908 28.3182 16.9829 27.8781Z" fill="white"/>
<path d="M16.9829 27.8781C16.586 27.662 16.3403 27.2448 16.3437 26.7929L16.4058 18.5792C16.413 17.6213 17.4389 17.0171 18.2801 17.4753C18.695 17.7012 18.9498 18.1391 18.9413 18.6115L18.7939 26.8241C18.7774 27.744 17.7908 28.3182 16.9829 27.8781Z" fill="url(#paint4_linear)"/>
<path d="M12.9972 16.5684C12.9865 16.1361 13.2145 15.7331 13.5906 15.5198L20.4248 11.6426C21.2217 11.1905 22.2129 11.7514 22.2357 12.6674C22.2469 13.1192 22.0061 13.5397 21.6107 13.7586L14.7366 17.5646C13.9667 17.9908 13.0191 17.4481 12.9972 16.5684Z" fill="white"/>
<path d="M12.9972 16.5684C12.9865 16.1361 13.2145 15.7331 13.5906 15.5198L20.4248 11.6426C21.2217 11.1905 22.2129 11.7514 22.2357 12.6674C22.2469 13.1192 22.0061 13.5397 21.6107 13.7586L14.7366 17.5646C13.9667 17.9908 13.0191 17.4481 12.9972 16.5684Z" fill="url(#paint5_linear)"/>
<path d="M13.5243 25.9791C13.1273 25.7629 12.8817 25.3458 12.8851 24.8938L12.9472 16.6801C12.9544 15.7223 13.9803 15.1181 14.8215 15.5762C15.2363 15.8022 15.4912 16.2401 15.4827 16.7124L15.3353 24.9251C15.3188 25.8449 14.3322 26.4191 13.5243 25.9791Z" fill="white"/>
<path d="M13.5243 25.9791C13.1273 25.7629 12.8817 25.3458 12.8851 24.8938L12.9472 16.6801C12.9544 15.7223 13.9803 15.1181 14.8215 15.5762C15.2363 15.8022 15.4912 16.2401 15.4827 16.7124L15.3353 24.9251C15.3188 25.8449 14.3322 26.4191 13.5243 25.9791Z" fill="url(#paint6_linear)"/>
<path d="M9.66081 14.6046C9.65006 14.1724 9.87811 13.7694 10.2541 13.556L17.0883 9.67889C17.8853 9.22677 18.8765 9.78767 18.8993 10.7036C18.9105 11.1554 18.6696 11.576 18.2743 11.7949L11.4002 15.6008C10.6303 16.0271 9.6827 15.4844 9.66081 14.6046Z" fill="white"/>
<path d="M9.66081 14.6046C9.65006 14.1724 9.87811 13.7694 10.2541 13.556L17.0883 9.67889C17.8853 9.22677 18.8765 9.78767 18.8993 10.7036C18.9105 11.1554 18.6696 11.576 18.2743 11.7949L11.4002 15.6008C10.6303 16.0271 9.6827 15.4844 9.66081 14.6046Z" fill="url(#paint7_linear)"/>
<path d="M10.1875 24.0151C9.79056 23.7989 9.54489 23.3818 9.5483 22.9298L9.61038 14.7161C9.61761 13.7583 10.6435 13.1541 11.4847 13.6122C11.8996 13.8382 12.1544 14.2761 12.1459 14.7485L11.9985 22.9611C11.982 23.8809 10.9954 24.4551 10.1875 24.0151Z" fill="white"/>
<path d="M10.1875 24.0151C9.79056 23.7989 9.54489 23.3818 9.5483 22.9298L9.61038 14.7161C9.61761 13.7583 10.6435 13.1541 11.4847 13.6122C11.8996 13.8382 12.1544 14.2761 12.1459 14.7485L11.9985 22.9611C11.982 23.8809 10.9954 24.4551 10.1875 24.0151Z" fill="url(#paint8_linear)"/>
<defs>
<linearGradient id="paint0_linear" x1="1.27891e-07" y1="19.1379" x2="36" y2="19.1379" gradientUnits="userSpaceOnUse">
<stop stop-color="#B2B0FF"/>
<stop offset="0.489583" stop-color="#A29CFF"/>
<stop offset="1" stop-color="#7F7CE2"/>
</linearGradient>
<linearGradient id="paint1_linear" x1="20.9795" y1="12.6588" x2="21.1692" y2="20.2838" gradientUnits="userSpaceOnUse">
<stop stop-color="white"/>
<stop offset="1" stop-color="white" stop-opacity="0"/>
</linearGradient>
<linearGradient id="paint2_linear" x1="21.0821" y1="16.7813" x2="21.2719" y2="24.4062" gradientUnits="userSpaceOnUse">
<stop stop-color="white"/>
<stop offset="1" stop-color="white" stop-opacity="0"/>
</linearGradient>
<linearGradient id="paint3_linear" x1="21.1855" y1="20.9349" x2="21.3752" y2="28.5599" gradientUnits="userSpaceOnUse">
<stop stop-color="white"/>
<stop offset="1" stop-color="white" stop-opacity="0"/>
</linearGradient>
<linearGradient id="paint4_linear" x1="14.0886" y1="20.7471" x2="21.0909" y2="24.5608" gradientUnits="userSpaceOnUse">
<stop stop-color="white"/>
<stop offset="1" stop-color="white" stop-opacity="0"/>
</linearGradient>
<linearGradient id="paint5_linear" x1="17.5205" y1="10.7599" x2="17.7102" y2="18.3849" gradientUnits="userSpaceOnUse">
<stop stop-color="white"/>
<stop offset="1" stop-color="white" stop-opacity="0"/>
</linearGradient>
<linearGradient id="paint6_linear" x1="10.63" y1="18.848" x2="17.6322" y2="22.6618" gradientUnits="userSpaceOnUse">
<stop stop-color="white"/>
<stop offset="1" stop-color="white" stop-opacity="0"/>
</linearGradient>
<linearGradient id="paint7_linear" x1="14.184" y1="8.79615" x2="14.3738" y2="16.4211" gradientUnits="userSpaceOnUse">
<stop stop-color="white"/>
<stop offset="1" stop-color="white" stop-opacity="0"/>
</linearGradient>
<linearGradient id="paint8_linear" x1="7.29316" y1="16.8841" x2="14.2954" y2="20.6978" gradientUnits="userSpaceOnUse">
<stop stop-color="white"/>
<stop offset="1" stop-color="white" stop-opacity="0"/>
</linearGradient>
</defs>
</svg>
