<svg width="255" height="224" viewBox="0 0 255 224" fill="none" xmlns="http://www.w3.org/2000/svg">
<g clip-path="url(#clip0)">
<path d="M222.159 215.894V193.696C222.159 193.696 230.81 209.433 222.159 215.894Z" fill="#F1F1F1"/>
<path d="M222.693 215.89L206.341 200.878C206.341 200.878 223.784 205.148 222.693 215.89Z" fill="#F1F1F1"/>
<path d="M32.6681 215.894V193.696C32.6681 193.696 24.0172 209.433 32.6681 215.894Z" fill="#F1F1F1"/>
<path d="M32.1336 215.89L48.486 200.878C48.486 200.878 31.0425 205.148 32.1336 215.89Z" fill="#F1F1F1"/>
<path d="M181.279 51.2594H180.094V18.7915C180.094 16.3238 179.608 13.8802 178.663 11.6003C177.719 9.32043 176.335 7.24887 174.59 5.50392C172.845 3.75896 170.773 2.37479 168.493 1.43042C166.213 0.486061 163.77 2.01487e-06 161.302 0H92.5131C90.0453 -5.23852e-06 87.6017 0.486046 85.3217 1.4304C83.0418 2.37476 80.9702 3.75893 79.2252 5.50388C77.4802 7.24883 76.096 9.32038 75.1517 11.6003C74.2073 13.8802 73.7212 16.3237 73.7212 18.7915V196.913C73.7212 201.897 75.701 206.676 79.2252 210.2C82.7493 213.724 87.5291 215.704 92.513 215.704H161.302C166.286 215.704 171.065 213.724 174.59 210.2C178.114 206.676 180.094 201.897 180.094 196.913V74.3706H181.279V51.2594Z" fill="#3F3D56"/>
<path d="M162.06 4.88893H153.081C153.494 5.90128 153.651 6.99965 153.54 8.08727C153.428 9.17489 153.051 10.2184 152.441 11.1258C151.831 12.0333 151.008 12.7768 150.043 13.2909C149.078 13.8051 148.001 14.074 146.908 14.0741H107.5C106.406 14.074 105.33 13.8051 104.365 13.2909C103.4 12.7768 102.576 12.0333 101.966 11.1258C101.357 10.2184 100.979 9.17488 100.868 8.08726C100.756 6.99964 100.914 5.90127 101.327 4.88892H92.94C89.2181 4.88891 85.6486 6.36741 83.0168 8.99916C80.385 11.6309 78.9065 15.2003 78.9065 18.9222V196.782C78.9065 198.625 79.2695 200.45 79.9747 202.152C80.68 203.855 81.7137 205.402 83.0168 206.705C84.3199 208.008 85.867 209.042 87.5696 209.747C89.2722 210.452 91.0971 210.815 92.94 210.815H162.06C163.903 210.815 165.728 210.452 167.43 209.747C169.133 209.042 170.68 208.008 171.983 206.705C173.286 205.402 174.32 203.855 175.025 202.152C175.731 200.45 176.094 198.625 176.094 196.782V18.9222C176.094 17.0793 175.731 15.2545 175.025 13.5519C174.32 11.8493 173.286 10.3023 171.983 8.99917C170.68 7.69606 169.133 6.66237 167.43 5.95714C165.728 5.2519 163.903 4.88892 162.06 4.88893Z" fill="white"/>
<path d="M160.328 207.761H94.6713C87.1271 207.761 80.9895 202.283 80.9895 195.55V186.709C80.9895 181.342 85.8774 176.976 91.8855 176.976H163.114C169.122 176.976 174.01 181.342 174.01 186.709V195.55C174.01 202.283 167.873 207.761 160.328 207.761Z" fill="#E5E5E5"/>
<path d="M101.573 59.1751H86.9276C86.6652 59.1748 86.4137 59.0705 86.2282 58.885C86.0427 58.6994 85.9383 58.4479 85.938 58.1856V43.5402C85.9383 43.2779 86.0427 43.0263 86.2282 42.8408C86.4137 42.6553 86.6652 42.551 86.9276 42.5507H101.573C101.836 42.551 102.087 42.6553 102.273 42.8408C102.458 43.0263 102.562 43.2779 102.563 43.5402V58.1856C102.562 58.4479 102.458 58.6994 102.273 58.885C102.087 59.0705 101.836 59.1748 101.573 59.1751Z" fill="#6B40FF"/>
<path d="M123.74 59.1751H109.094C108.832 59.1748 108.58 59.0705 108.395 58.885C108.209 58.6994 108.105 58.4479 108.104 58.1856V43.5402C108.105 43.2779 108.209 43.0263 108.395 42.8408C108.58 42.6553 108.832 42.551 109.094 42.5507H123.74C124.002 42.551 124.254 42.6553 124.439 42.8408C124.625 43.0263 124.729 43.2779 124.729 43.5402V58.1856C124.729 58.4479 124.625 58.6994 124.439 58.885C124.254 59.0705 124.002 59.1748 123.74 59.1751Z" fill="#E5E5E5"/>
<path d="M145.906 59.1751H131.26C130.998 59.1748 130.746 59.0705 130.561 58.885C130.375 58.6994 130.271 58.4479 130.271 58.1856V43.5402C130.271 43.2779 130.375 43.0263 130.561 42.8408C130.746 42.6553 130.998 42.551 131.26 42.5507H145.906C146.168 42.551 146.42 42.6553 146.605 42.8408C146.791 43.0263 146.895 43.2779 146.895 43.5402V58.1856C146.895 58.4479 146.791 58.6994 146.605 58.885C146.42 59.0705 146.168 59.1748 145.906 59.1751Z" fill="#E5E5E5"/>
<path d="M168.072 59.1751H153.427C153.164 59.1748 152.913 59.0705 152.727 58.885C152.542 58.6994 152.437 58.4479 152.437 58.1856V43.5402C152.437 43.2779 152.542 43.0263 152.727 42.8408C152.913 42.6553 153.164 42.551 153.427 42.5507H168.072C168.335 42.551 168.586 42.6553 168.772 42.8408C168.957 43.0263 169.061 43.2779 169.062 43.5402V58.1856C169.061 58.4479 168.957 58.6994 168.772 58.885C168.586 59.0705 168.335 59.1748 168.072 59.1751Z" fill="#E5E5E5"/>
<path d="M101.521 86.2889H86.8753C86.613 86.2886 86.3614 86.1842 86.1759 85.9987C85.9904 85.8132 85.886 85.5617 85.8857 85.2993V70.654C85.886 70.3916 85.9904 70.1401 86.1759 69.9546C86.3614 69.7691 86.613 69.6647 86.8753 69.6644H101.521C101.783 69.6647 102.035 69.7691 102.22 69.9546C102.406 70.1401 102.51 70.3916 102.51 70.654V85.2993C102.51 85.5617 102.406 85.8132 102.22 85.9987C102.035 86.1842 101.783 86.2886 101.521 86.2889Z" fill="#E5E5E5"/>
<path d="M123.687 86.2889H109.042C108.779 86.2886 108.528 86.1842 108.342 85.9987C108.157 85.8132 108.052 85.5617 108.052 85.2993V70.654C108.052 70.3916 108.157 70.1401 108.342 69.9546C108.528 69.7691 108.779 69.6647 109.042 69.6644H123.687C123.95 69.6647 124.201 69.7691 124.387 69.9546C124.572 70.1401 124.676 70.3916 124.677 70.654V85.2993C124.676 85.5617 124.572 85.8132 124.387 85.9987C124.201 86.1842 123.95 86.2886 123.687 86.2889Z" fill="#E5E5E5"/>
<path d="M145.854 86.2889H131.208C130.946 86.2886 130.694 86.1842 130.509 85.9987C130.323 85.8132 130.219 85.5617 130.219 85.2993V70.654C130.219 70.3916 130.323 70.1401 130.509 69.9546C130.694 69.7691 130.946 69.6647 131.208 69.6644H145.854C146.116 69.6647 146.368 69.7691 146.553 69.9546C146.739 70.1401 146.843 70.3916 146.843 70.654V85.2993C146.843 85.5617 146.739 85.8132 146.553 85.9987C146.368 86.1842 146.116 86.2886 145.854 86.2889Z" fill="#6B40FF"/>
<path d="M168.02 86.2889H153.374C153.112 86.2886 152.86 86.1842 152.675 85.9987C152.489 85.8132 152.385 85.5617 152.385 85.2993V70.654C152.385 70.3916 152.489 70.1401 152.675 69.9546C152.86 69.7691 153.112 69.6647 153.374 69.6644H168.02C168.282 69.6647 168.534 69.7691 168.719 69.9546C168.905 70.1401 169.009 70.3916 169.01 70.654V85.2993C169.009 85.5617 168.905 85.8132 168.719 85.9987C168.534 86.1842 168.282 86.2886 168.02 86.2889Z" fill="#6B40FF"/>
<path d="M101.468 113.403H86.8228C86.5605 113.402 86.3089 113.298 86.1234 113.112C85.9379 112.927 85.8336 112.675 85.8333 112.413V97.7676C85.8336 97.5053 85.9379 97.2538 86.1234 97.0683C86.3089 96.8827 86.5605 96.7784 86.8228 96.7781H101.468C101.731 96.7784 101.982 96.8827 102.168 97.0683C102.353 97.2538 102.458 97.5053 102.458 97.7676V112.413C102.458 112.675 102.353 112.927 102.168 113.112C101.982 113.298 101.731 113.402 101.468 113.403Z" fill="#E5E5E5"/>
<path d="M123.635 113.403H108.989C108.727 113.402 108.475 113.298 108.29 113.112C108.104 112.927 108 112.675 108 112.413V97.7676C108 97.5053 108.104 97.2538 108.29 97.0683C108.475 96.8827 108.727 96.7784 108.989 96.7781H123.635C123.897 96.7784 124.149 96.8827 124.334 97.0683C124.52 97.2538 124.624 97.5053 124.625 97.7676V112.413C124.624 112.675 124.52 112.927 124.334 113.112C124.149 113.298 123.897 113.402 123.635 113.403Z" fill="#E5E5E5"/>
<path d="M145.801 113.403H131.156C130.893 113.402 130.642 113.298 130.456 113.112C130.271 112.927 130.166 112.675 130.166 112.413V97.7676C130.166 97.5053 130.271 97.2538 130.456 97.0683C130.642 96.8827 130.893 96.7784 131.156 96.7781H145.801C146.064 96.7784 146.315 96.8827 146.501 97.0683C146.686 97.2538 146.79 97.5053 146.791 97.7676V112.413C146.79 112.675 146.686 112.927 146.501 113.112C146.315 113.298 146.064 113.402 145.801 113.403Z" fill="#E5E5E5"/>
<path d="M167.967 113.403H153.322C153.059 113.402 152.808 113.298 152.622 113.112C152.437 112.927 152.333 112.675 152.332 112.413V97.7676C152.333 97.5053 152.437 97.2538 152.622 97.0683C152.808 96.8827 153.059 96.7784 153.322 96.7781H167.967C168.23 96.7784 168.481 96.8827 168.667 97.0683C168.852 97.2538 168.957 97.5053 168.957 97.7676V112.413C168.957 112.675 168.852 112.927 168.667 113.112C168.481 113.298 168.23 113.402 167.967 113.403Z" fill="#E5E5E5"/>
<path d="M101.416 140.516H86.7706C86.5082 140.516 86.2567 140.412 86.0712 140.226C85.8857 140.041 85.7813 139.789 85.781 139.527V124.881C85.7813 124.619 85.8857 124.368 86.0712 124.182C86.2567 123.997 86.5082 123.892 86.7706 123.892H101.416C101.679 123.892 101.93 123.997 102.116 124.182C102.301 124.368 102.405 124.619 102.406 124.881V139.527C102.405 139.789 102.301 140.041 102.116 140.226C101.93 140.412 101.679 140.516 101.416 140.516Z" fill="#E5E5E5"/>
<path d="M123.582 140.516H108.937C108.674 140.516 108.423 140.412 108.237 140.226C108.052 140.041 107.948 139.789 107.947 139.527V124.881C107.948 124.619 108.052 124.368 108.237 124.182C108.423 123.997 108.674 123.892 108.937 123.892H123.582C123.845 123.892 124.096 123.997 124.282 124.182C124.467 124.368 124.572 124.619 124.572 124.881V139.527C124.572 139.789 124.467 140.041 124.282 140.226C124.096 140.412 123.845 140.516 123.582 140.516Z" fill="#E5E5E5"/>
<path d="M145.749 140.516H131.103C130.841 140.516 130.589 140.412 130.404 140.226C130.218 140.041 130.114 139.789 130.114 139.527V124.881C130.114 124.619 130.218 124.368 130.404 124.182C130.589 123.997 130.841 123.892 131.103 123.892H145.749C146.011 123.892 146.263 123.997 146.448 124.182C146.634 124.368 146.738 124.619 146.739 124.881V139.527C146.738 139.789 146.634 140.041 146.448 140.226C146.263 140.412 146.011 140.516 145.749 140.516Z" fill="#E5E5E5"/>
<path d="M167.915 140.516H153.27C153.007 140.516 152.756 140.412 152.57 140.226C152.385 140.041 152.28 139.789 152.28 139.527V124.881C152.28 124.619 152.385 124.368 152.57 124.182C152.756 123.997 153.007 123.892 153.27 123.892H167.915C168.178 123.892 168.429 123.997 168.615 124.182C168.8 124.368 168.904 124.619 168.905 124.881V139.527C168.904 139.789 168.8 140.041 168.615 140.226C168.429 140.412 168.178 140.516 167.915 140.516Z" fill="#E5E5E5"/>
<path d="M101.573 201.077H86.9276C86.6652 201.077 86.4137 200.972 86.2282 200.787C86.0427 200.601 85.9383 200.35 85.938 200.087V185.442C85.9383 185.18 86.0427 184.928 86.2282 184.743C86.4137 184.557 86.6652 184.453 86.9276 184.453H101.573C101.836 184.453 102.087 184.557 102.273 184.743C102.458 184.928 102.562 185.18 102.563 185.442V200.087C102.562 200.35 102.458 200.601 102.273 200.787C102.087 200.972 101.836 201.077 101.573 201.077Z" fill="white"/>
<path d="M123.74 201.077H109.094C108.832 201.077 108.58 200.972 108.395 200.787C108.209 200.601 108.105 200.35 108.104 200.087V185.442C108.105 185.18 108.209 184.928 108.395 184.743C108.58 184.557 108.832 184.453 109.094 184.453H123.74C124.002 184.453 124.254 184.557 124.439 184.743C124.625 184.928 124.729 185.18 124.729 185.442V200.087C124.729 200.35 124.625 200.601 124.439 200.787C124.254 200.972 124.002 201.077 123.74 201.077Z" fill="white"/>
<path d="M145.906 201.077H131.26C130.998 201.077 130.746 200.972 130.561 200.787C130.375 200.601 130.271 200.35 130.271 200.087V185.442C130.271 185.18 130.375 184.928 130.561 184.743C130.746 184.557 130.998 184.453 131.26 184.453H145.906C146.168 184.453 146.42 184.557 146.605 184.743C146.791 184.928 146.895 185.18 146.895 185.442V200.087C146.895 200.35 146.791 200.601 146.605 200.787C146.42 200.972 146.168 201.077 145.906 201.077Z" fill="white"/>
<path d="M168.072 201.077H153.427C153.164 201.077 152.913 200.972 152.727 200.787C152.542 200.601 152.437 200.35 152.437 200.087V185.442C152.437 185.18 152.542 184.928 152.727 184.743C152.913 184.557 153.164 184.453 153.427 184.453H168.072C168.335 184.453 168.586 184.557 168.772 184.743C168.957 184.928 169.061 185.18 169.062 185.442V200.087C169.061 200.35 168.957 200.601 168.772 200.787C168.586 200.972 168.335 201.077 168.072 201.077Z" fill="white"/>
<path d="M120.323 170.203C121.416 170.203 122.302 169.317 122.302 168.224C122.302 167.131 121.416 166.245 120.323 166.245C119.23 166.245 118.344 167.131 118.344 168.224C118.344 169.317 119.23 170.203 120.323 170.203Z" fill="#E5E5E5"/>
<path d="M127.448 170.203C128.541 170.203 129.427 169.317 129.427 168.224C129.427 167.131 128.541 166.245 127.448 166.245C126.355 166.245 125.469 167.131 125.469 168.224C125.469 169.317 126.355 170.203 127.448 170.203Z" fill="#E5E5E5"/>
<path d="M134.573 170.203C135.666 170.203 136.552 169.317 136.552 168.224C136.552 167.131 135.666 166.245 134.573 166.245C133.48 166.245 132.594 167.131 132.594 168.224C132.594 169.317 133.48 170.203 134.573 170.203Z" fill="#E5E5E5"/>
<path d="M254.693 216.025H0.306859C0.225475 216.025 0.147424 215.993 0.0898767 215.935C0.0323295 215.878 0 215.8 0 215.718C0 215.637 0.0323295 215.559 0.0898767 215.501C0.147424 215.444 0.225475 215.411 0.306859 215.411H254.693C254.775 215.411 254.853 215.444 254.91 215.501C254.968 215.559 255 215.637 255 215.718C255 215.8 254.968 215.878 254.91 215.935C254.853 215.993 254.775 216.025 254.693 216.025Z" fill="#CBCBCB"/>
<path d="M100.148 155.606C100.562 155.192 100.88 154.693 101.08 154.143C101.28 153.592 101.357 153.005 101.306 152.422C101.254 151.839 101.076 151.274 100.782 150.768C100.489 150.261 100.088 149.825 99.6079 149.49L103.473 135.795L96.4262 138.036L93.8362 150.697C93.327 151.541 93.1451 152.543 93.3249 153.512C93.5047 154.481 94.0337 155.35 94.8117 155.955C95.5897 156.56 96.5626 156.859 97.5461 156.795C98.5296 156.73 99.4553 156.307 100.148 155.606Z" fill="#FFB7B7"/>
<path d="M102.151 147.212C102.026 147.236 101.898 147.247 101.769 147.244L95.0094 147.109C94.755 147.104 94.5046 147.045 94.2748 146.935C94.0451 146.826 93.8413 146.669 93.677 146.474C93.5127 146.28 93.3917 146.053 93.322 145.808C93.2523 145.564 93.2355 145.307 93.2727 145.055L100.13 98.7231C100.335 97.3829 101.012 96.1602 102.04 95.2758C103.067 94.3913 104.377 93.9035 105.733 93.9004C106.589 93.9025 107.433 94.0991 108.202 94.4754C108.971 94.8516 109.644 95.3977 110.171 96.0722C110.698 96.7468 111.065 97.5323 111.244 98.3694C111.423 99.2065 111.409 100.073 111.204 100.904L106.343 120.591L103.587 145.649C103.547 146.029 103.386 146.386 103.127 146.667C102.869 146.949 102.527 147.14 102.151 147.212Z" fill="#3F3D56"/>
<path d="M104.978 220.353H108.74L110.53 205.843L104.978 205.843L104.978 220.353Z" fill="#FFB7B7"/>
<path d="M104.019 219.125L111.427 219.125H111.428C112.68 219.125 113.881 219.622 114.766 220.508C115.652 221.393 116.149 222.594 116.149 223.846V224L104.019 224L104.019 219.125Z" fill="#2F2E41"/>
<path d="M121.02 219.131L124.758 219.551L128.154 205.33L122.636 204.711L121.02 219.131Z" fill="#FFB7B7"/>
<path d="M120.203 217.804L127.565 218.629L127.566 218.629C128.81 218.769 129.948 219.397 130.729 220.376C131.511 221.354 131.871 222.603 131.732 223.848L131.714 224L119.66 222.649L120.203 217.804Z" fill="#2F2E41"/>
<path d="M101.447 139.605C101.447 139.605 96.2896 151.022 100.844 158.438L103.558 216.179H109.788L115.832 169.537L126.572 183.345L120.029 215.573L127.649 216.001L138.233 183.345C138.233 183.345 130.102 147.336 127.416 146.469L125.652 138.238L101.447 139.605Z" fill="#2F2E41"/>
<path d="M99.1517 149.629C99.1517 149.629 94.5053 154.961 106.78 156.802C119.054 158.643 131.942 155.882 132.249 152.199C132.556 148.517 99.1517 149.629 99.1517 149.629Z" fill="#CBCBCB"/>
<path d="M160.682 83.4805C160.663 84.001 160.53 84.511 160.293 84.9747C160.055 85.4383 159.719 85.8442 159.308 86.1638C158.896 86.4834 158.42 86.7089 157.912 86.8245C157.404 86.9401 156.877 86.9429 156.368 86.8328L151.728 93.5236L146.975 91.6958L153.659 82.3392C153.901 81.4962 154.444 80.7711 155.184 80.3014C155.925 79.8317 156.812 79.65 157.678 79.7907C158.543 79.9313 159.327 80.3847 159.881 81.0647C160.435 81.7448 160.72 82.6043 160.682 83.4805Z" fill="#FFB7B7"/>
<path d="M121.444 92.0888L114.884 89.1212L106.479 89.722C106.479 89.722 96.3466 101.569 100.336 112.922L97.8809 152.506C113.531 156.802 120.645 148.745 131.942 152.199L128.453 108.206L121.444 92.0888Z" fill="#3F3D56"/>
<path d="M117.06 94.9712L121.444 92.0889C121.444 92.0889 127.534 91.1683 129.968 93.5301C129.968 93.5301 138.231 94.2216 140.226 96.2841L142.424 96.7794L149.723 87.3278L154.19 89.7547L147.746 107.245L128.453 108.206L117.06 94.9712Z" fill="#3F3D56"/>
<path d="M118.572 85.7923C123.59 83.0492 125.434 76.7577 122.691 71.7397C119.948 66.7218 113.657 64.8776 108.638 67.6207C103.62 70.3637 101.776 76.6553 104.519 81.6732C107.262 86.6912 113.554 88.5353 118.572 85.7923Z" fill="#FFB7B7"/>
<path d="M104.649 68.611C106.497 65.2867 108.807 63.1342 112.61 63.2119C116.413 63.2896 119.702 63.1392 121.413 66.5363C121.866 65.6896 122.092 64.7407 122.071 63.781C122.588 64.1164 122.995 64.5957 123.242 65.1598C123.49 65.7238 123.567 66.348 123.464 66.9553C123.797 66.7604 124.075 66.485 124.274 66.1545C124.473 65.824 124.585 65.4488 124.602 65.0635C125.871 65.4858 126.201 67.2744 125.559 68.4477C124.916 69.6211 123.657 70.2995 122.449 70.8731C121.24 71.4467 121.798 74.4802 121.009 75.5603C120.458 76.314 120.206 77.2378 119.835 78.0943C119.82 78.1282 119.793 78.1558 119.76 78.1728C118.909 78.6472 118.372 79.4949 118.522 80.4574C118.54 80.5296 118.536 80.6054 118.51 80.6751C117.433 82.7044 116.271 84.8275 114.318 86.0383C112.751 86.9844 110.875 87.2744 109.096 86.8456C107.1 86.3684 105.375 85.0453 104.131 83.4136C102.887 81.7819 102.087 79.8533 101.485 77.8915C100.952 76.1512 100.564 74.2905 100.987 72.5201C101.41 70.7498 102.842 69.1104 104.658 68.9736" fill="#2F2E41"/>
</g>
<defs>
<clipPath id="clip0">
<rect width="255" height="224" fill="white"/>
</clipPath>
</defs>
</svg>
