<svg width="241" height="156" viewBox="0 0 241 156" fill="none" xmlns="http://www.w3.org/2000/svg">
<path d="M219.817 155.539L212.934 134.801C212.934 134.801 220.505 142.359 220.505 148.561L219.146 134.219C219.146 134.219 223.029 139.452 222.641 147.399C222.252 155.345 219.817 155.539 219.817 155.539Z" fill="#E6E6E6"/>
<path d="M72.0015 136.656L65.2837 116.416C65.2837 116.416 72.6728 123.793 72.6728 129.846L71.3465 115.849C71.3465 115.849 75.1358 120.956 74.7569 128.711C74.378 136.467 72.0015 136.656 72.0015 136.656Z" fill="#E6E6E6"/>
<path d="M176.853 145.995C176.865 159.309 150.415 155.214 118.034 155.242C85.6533 155.27 59.6036 159.41 59.592 146.096C59.5805 132.782 86.0207 129.864 118.401 129.836C150.782 129.808 176.842 132.681 176.853 145.995Z" fill="#E6E6E6"/>
<path d="M241 155.234H0V155.843H241V155.234Z" fill="#3F3D56"/>
<path d="M154.159 128.015H149.926L147.911 111.713H154.159V128.015Z" fill="#E6B4BB"/>
<path d="M146.432 126.807H155.067V131.939H141.762V131.47C141.762 130.233 142.254 129.047 143.13 128.173C144.006 127.299 145.194 126.807 146.432 126.807V126.807Z" fill="#2F2E41"/>
<path d="M185.276 152.075H181.042L179.028 135.774H185.276V152.075Z" fill="#E6B4BB"/>
<path d="M177.548 150.868H186.183V156H172.878V155.531C172.878 154.294 173.37 153.108 174.246 152.234C175.122 151.359 176.31 150.868 177.548 150.868V150.868Z" fill="#2F2E41"/>
<path d="M204.803 103.646C205.095 103.291 205.307 102.877 205.422 102.433C205.537 101.988 205.553 101.523 205.468 101.072C205.384 100.62 205.202 100.193 204.934 99.819C204.666 99.4454 204.32 99.1349 203.919 98.9095L194.087 58.9225L187.8 61.6229L199.495 100.287C199.16 100.984 199.093 101.78 199.307 102.523C199.521 103.267 200 103.906 200.654 104.32C201.309 104.734 202.092 104.894 202.857 104.77C203.621 104.645 204.314 104.246 204.803 103.646V103.646Z" fill="#E6B4BB"/>
<path d="M197.134 22.8312C196.783 22.465 196.356 22.18 195.883 21.9964C195.41 21.8128 194.902 21.735 194.396 21.7684C193.889 21.8019 193.396 21.9458 192.951 22.1901C192.507 22.4344 192.121 22.773 191.821 23.1822L176.603 24.9265L178.918 30.7867L192.758 28.2007C193.48 28.6574 194.345 28.834 195.188 28.6968C196.032 28.5596 196.796 28.1183 197.335 27.4564C197.875 26.7945 198.152 25.9581 198.115 25.1057C198.078 24.2532 197.729 23.444 197.134 22.8312V22.8312Z" fill="#E6B4BB"/>
<path d="M172.056 99.4989L178.696 149.257L186.961 147.558C186.961 147.558 185.746 111.32 189.879 106.952C194.011 102.583 184.563 94.9304 184.563 94.9304L172.056 99.4989Z" fill="#2F2E41"/>
<path d="M174.801 85.7934L171.751 90.3619C171.751 90.3619 148.261 80.6161 148.261 96.1486C148.261 111.681 146.917 122.222 146.43 122.95C145.944 123.678 152.055 125.568 154.972 125.082C154.972 125.082 158.571 100.041 158.328 98.5851C158.328 98.5851 181.37 109.864 185.746 108.893C190.122 107.923 191.156 104.486 191.885 102.544C192.614 100.603 191.58 85.1843 191.58 85.1843L176.995 80.7406L174.801 85.7934Z" fill="#2F2E41"/>
<path d="M175.213 58.3643L174.343 57.3226C174.343 57.3226 164.605 35.4463 168.431 29.5432C172.257 23.6401 188.952 22.772 189.473 23.1192C189.995 23.4665 188.227 27.9748 189.444 30.0583C189.444 30.0583 176.512 32.8576 175.642 33.2049C174.773 33.5521 182.343 46.3845 182.343 46.3845L181.474 54.1974L175.213 58.3643Z" fill="#CCCCCC"/>
<path d="M192.256 47.5999C192.256 47.5999 183.213 48.6416 182.865 48.6416C182.517 48.6416 182.343 46.3845 182.343 46.3845L174.343 57.3226C174.343 57.3226 170.402 89.0555 171.446 88.5346C172.489 88.0137 191.734 91.0051 191.908 89.6161C192.082 88.2272 191.734 81.2823 192.256 80.9351C192.777 80.5878 201.299 59.0589 201.299 59.0589C201.299 59.0589 200.429 54.5447 197.473 52.9821C194.516 51.4195 192.256 47.5999 192.256 47.5999Z" fill="#CCCCCC"/>
<path d="M198.516 56.1073L201.299 59.0588C201.299 59.0588 205.433 92.975 203.172 94.0167C200.911 95.0585 196.461 94.9304 196.461 94.9304L192.082 78.8516L198.516 56.1073Z" fill="#CCCCCC"/>
<path d="M183.566 45.452C187.987 45.452 191.57 41.8741 191.57 37.4606C191.57 33.0471 187.987 29.4692 183.566 29.4692C179.145 29.4692 175.561 33.0471 175.561 37.4606C175.561 41.8741 179.145 45.452 183.566 45.452Z" fill="#E6B4BB"/>
<path d="M181.687 38.7077C181.579 37.0495 179.484 36.9927 177.82 36.977C176.155 36.9613 174.165 37.0206 173.224 35.6505C172.601 34.745 172.72 33.488 173.234 32.5172C173.749 31.5464 174.594 30.7997 175.426 30.0814C177.574 28.227 179.788 26.3873 182.367 25.2003C184.946 24.0134 187.968 23.5337 190.643 24.4866C193.928 25.657 198.37 31.6822 198.753 35.1438C199.137 38.6054 197.751 42.1343 195.415 44.7211C193.08 47.3078 187.733 46.2641 184.369 47.1844C186.414 44.2942 185.066 39.0426 181.789 37.693L181.687 38.7077Z" fill="#2F2E41"/>
<path d="M110.348 142.077C120.961 142.077 129.564 133.488 129.564 122.893C129.564 112.298 120.961 103.709 110.348 103.709C99.7355 103.709 91.1323 112.298 91.1323 122.893C91.1323 133.488 99.7355 142.077 110.348 142.077Z" fill="#8E84FF"/>
<path d="M97.5154 102.345C94.8522 102.346 92.2461 101.575 90.0124 100.127C87.7788 98.6793 86.0134 96.6161 84.9299 94.1873L54.4381 25.6325C53.4281 23.3616 52.8939 20.9085 52.8684 18.4239C52.8429 15.9393 53.3266 13.4758 54.2898 11.1847C55.2531 8.89366 56.6754 6.82346 58.4695 5.10138C60.2636 3.3793 62.3915 2.04173 64.7224 1.17088C67.0533 0.300025 69.538 -0.0857076 72.0238 0.0373927C74.5095 0.160493 76.9437 0.789824 79.1769 1.8867C81.41 2.98358 83.3949 4.52483 85.0095 6.41572C86.624 8.3066 87.8342 10.5072 88.5656 12.8822L110.645 84.5802C111.277 86.6324 111.419 88.804 111.058 90.9207C110.697 93.0373 109.843 95.0398 108.566 96.7675C107.29 98.4952 105.625 99.8998 103.705 100.869C101.786 101.837 99.666 102.343 97.5154 102.345H97.5154Z" fill="#8E84FF"/>
</svg>
