<svg width="20" height="20" viewBox="0 0 20 20" fill="none" xmlns="http://www.w3.org/2000/svg">
<g id="&#236;&#130;&#173;&#236;&#160;&#156; &#235;&#178;&#132;&#237;&#138;&#188;">
<g id="Delete">
<path id="Fill 1" fill-rule="evenodd" clip-rule="evenodd" d="M10.2055 18.3333C9.07633 18.3333 7.9755 18.3208 6.88633 18.2983C5.493 18.2708 4.52883 17.3674 4.37133 15.9408C4.10883 13.5741 3.65967 7.99575 3.6555 7.93992C3.62717 7.59575 3.88383 7.29409 4.228 7.26659C4.56717 7.25742 4.87383 7.49575 4.90133 7.83909C4.9055 7.89575 5.35383 13.4549 5.61383 15.8033C5.703 16.6141 6.1405 17.0324 6.91217 17.0483C8.9955 17.0924 11.1213 17.0949 13.413 17.0533C14.233 17.0374 14.6763 16.6274 14.768 15.7974C15.0263 13.4691 15.4763 7.89575 15.4813 7.83909C15.5088 7.49575 15.813 7.25575 16.1538 7.26659C16.498 7.29492 16.7547 7.59575 16.7272 7.93992C16.7222 7.99659 16.2705 13.5891 16.0105 15.9349C15.8488 17.3908 14.8872 18.2766 13.4355 18.3033C12.3247 18.3224 11.253 18.3333 10.2055 18.3333Z" fill="#A8A8A8"/>
<path id="Fill 3" fill-rule="evenodd" clip-rule="evenodd" d="M17.2567 5.82434H3.125C2.78 5.82434 2.5 5.54434 2.5 5.19934C2.5 4.85434 2.78 4.57434 3.125 4.57434H17.2567C17.6017 4.57434 17.8817 4.85434 17.8817 5.19934C17.8817 5.54434 17.6017 5.82434 17.2567 5.82434Z" fill="#A8A8A8"/>
<path id="Fill 5" fill-rule="evenodd" clip-rule="evenodd" d="M14.5337 5.82437C13.5853 5.82437 12.762 5.14854 12.5753 4.21854L12.3728 3.2052C12.3303 3.05104 12.1545 2.91687 11.9545 2.91687H8.42701C8.22701 2.91687 8.05118 3.05104 8.00034 3.24354L7.80618 4.21854C7.62034 5.14854 6.79618 5.82437 5.84784 5.82437C5.50284 5.82437 5.22284 5.54437 5.22284 5.19937C5.22284 4.85437 5.50284 4.57437 5.84784 4.57437C6.20284 4.57437 6.51118 4.32104 6.58118 3.9727L6.78368 2.95937C6.98951 2.1827 7.66201 1.66687 8.42701 1.66687H11.9545C12.7195 1.66687 13.392 2.1827 13.5895 2.92187L13.8012 3.9727C13.8703 4.32104 14.1787 4.57437 14.5337 4.57437C14.8787 4.57437 15.1587 4.85437 15.1587 5.19937C15.1587 5.54437 14.8787 5.82437 14.5337 5.82437Z" fill="#A8A8A8"/>
</g>
</g>
</svg>
