<svg width="20" height="20" viewBox="0 0 20 20" fill="none" xmlns="http://www.w3.org/2000/svg">
<g id="&#236;&#130;&#173;&#236;&#160;&#156; &#235;&#178;&#132;&#237;&#138;&#188;">
<g id="Delete">
<path id="Fill 1" fill-rule="evenodd" clip-rule="evenodd" d="M10.2055 18.3333C9.07629 18.3333 7.97546 18.3208 6.88629 18.2983C5.49296 18.2708 4.52879 17.3674 4.37129 15.9408C4.10879 13.5741 3.65962 7.99575 3.65546 7.93992C3.62712 7.59575 3.88379 7.29409 4.22796 7.26659C4.56712 7.25742 4.87379 7.49575 4.90129 7.83909C4.90546 7.89575 5.35379 13.4549 5.61379 15.8033C5.70296 16.6141 6.14046 17.0324 6.91212 17.0483C8.99546 17.0924 11.1213 17.0949 13.413 17.0533C14.233 17.0374 14.6763 16.6274 14.768 15.7974C15.0263 13.4691 15.4763 7.89575 15.4813 7.83909C15.5088 7.49575 15.813 7.25575 16.1538 7.26659C16.498 7.29492 16.7546 7.59575 16.7271 7.93992C16.7221 7.99659 16.2705 13.5891 16.0105 15.9349C15.8488 17.3908 14.8871 18.2766 13.4355 18.3033C12.3246 18.3224 11.253 18.3333 10.2055 18.3333Z" fill="#A8A8A8"/>
<path id="Fill 3" fill-rule="evenodd" clip-rule="evenodd" d="M17.2567 5.82434H3.125C2.78 5.82434 2.5 5.54434 2.5 5.19934C2.5 4.85434 2.78 4.57434 3.125 4.57434H17.2567C17.6017 4.57434 17.8817 4.85434 17.8817 5.19934C17.8817 5.54434 17.6017 5.82434 17.2567 5.82434Z" fill="#A8A8A8"/>
<path id="Fill 5" fill-rule="evenodd" clip-rule="evenodd" d="M14.5337 5.82437C13.5854 5.82437 12.7621 5.14854 12.5754 4.21854L12.3729 3.2052C12.3304 3.05104 12.1546 2.91687 11.9546 2.91687H8.42707C8.22707 2.91687 8.05123 3.05104 8.0004 3.24354L7.80623 4.21854C7.6204 5.14854 6.79623 5.82437 5.8479 5.82437C5.5029 5.82437 5.2229 5.54437 5.2229 5.19937C5.2229 4.85437 5.5029 4.57437 5.8479 4.57437C6.2029 4.57437 6.51123 4.32104 6.58123 3.9727L6.78373 2.95937C6.98957 2.1827 7.66207 1.66687 8.42707 1.66687H11.9546C12.7196 1.66687 13.3921 2.1827 13.5896 2.92187L13.8012 3.9727C13.8704 4.32104 14.1787 4.57437 14.5337 4.57437C14.8787 4.57437 15.1587 4.85437 15.1587 5.19937C15.1587 5.54437 14.8787 5.82437 14.5337 5.82437Z" fill="#A8A8A8"/>
</g>
</g>
</svg>
