<svg width="32" height="32" viewBox="0 0 32 32" fill="none" xmlns="http://www.w3.org/2000/svg">
<path d="M2.71088 18.9826L16.5996 5.26532C16.8564 5.01173 17.1692 4.82212 17.5128 4.71181L21.215 3.52334C22.0271 3.26262 22.9169 3.47277 23.5265 4.0693L25.5058 6.00587L27.636 8.13283C28.2893 8.78512 28.4892 9.76479 28.1438 10.6209L26.7408 14.0988C26.6233 14.39 26.4474 14.654 26.224 14.8747L12.2676 28.6588C11.3638 29.5514 9.90759 29.5424 9.01498 28.6386L2.69068 22.2352C1.79807 21.3314 1.80711 19.8752 2.71088 18.9826Z" stroke="#BBA7FF" stroke-width="1.4"/>
<circle cx="22.6214" cy="8.62138" r="1.1536" transform="rotate(44.8985 22.6214 8.62138)" stroke="#BBA7FF" stroke-width="1.4"/>
<rect x="4.99001" y="20.7279" width="14.9149" height="8.113" rx="1.3" transform="rotate(-45 4.99001 20.7279)" stroke="#BBA7FF" stroke-width="1.4"/>
</svg>
