<svg width="8" height="9" viewBox="0 0 8 9" fill="none" xmlns="http://www.w3.org/2000/svg">
<path d="M0.515599 0C0.652351 0 0.783502 0.0543246 0.8802 0.151023C0.976899 0.247722 1.03122 0.378873 1.03122 0.515625L1.04344 4.87507C1.04344 5.05741 1.11587 5.23227 1.2448 5.3612C1.37373 5.49014 1.5486 5.56257 1.73094 5.56257H5.47049L4.46008 4.55218C4.36338 4.45548 4.30905 4.32432 4.30905 4.18757C4.30905 4.05081 4.36338 3.91966 4.46008 3.82296C4.55678 3.72626 4.68793 3.67194 4.82469 3.67194C4.96144 3.67194 5.0926 3.72626 5.1893 3.82296L7.07992 5.71358C7.12781 5.76146 7.16579 5.81831 7.1917 5.88087C7.21762 5.94343 7.23096 6.01048 7.23096 6.07819C7.23096 6.14591 7.21762 6.21296 7.1917 6.27552C7.16579 6.33808 7.12781 6.39492 7.07992 6.44281L5.1893 8.33343C5.0926 8.43013 4.96144 8.48446 4.82469 8.48446C4.68793 8.48446 4.55678 8.43013 4.46008 8.33343C4.36338 8.23673 4.30905 8.10557 4.30905 7.96882C4.30905 7.83206 4.36338 7.70091 4.46008 7.60421L5.47049 6.59382H1.73094C1.50523 6.59382 1.28173 6.54936 1.0732 6.46299C0.864673 6.37661 0.675199 6.25001 0.515599 6.09041C0.355998 5.93081 0.229396 5.74133 0.143021 5.53281C0.0566454 5.32428 0.0121884 5.10078 0.0121884 4.87507L-2.6226e-05 0.515625C-2.6226e-05 0.378873 0.0542987 0.247722 0.150997 0.151023C0.247696 0.0543246 0.378847 0 0.515599 0Z" fill="#797979"/>
</svg>
