<svg width="20" height="20" viewBox="0 0 20 20" fill="none" xmlns="http://www.w3.org/2000/svg">
<g id="&#236;&#136;&#152;&#236;&#160;&#149; &#235;&#178;&#132;&#237;&#138;&#188;">
<g id="Edit">
<path id="Fill 1" fill-rule="evenodd" clip-rule="evenodd" d="M17.2923 18.2831H11.2482C10.9032 18.2831 10.6232 18.0031 10.6232 17.6581C10.6232 17.3131 10.9032 17.0331 11.2482 17.0331H17.2923C17.6373 17.0331 17.9173 17.3131 17.9173 17.6581C17.9173 18.0031 17.6373 18.2831 17.2923 18.2831Z" fill="#968DFF"/>
<g id="Group 5">
<mask id="mask0" mask-type="alpha" maskUnits="userSpaceOnUse" x="1" y="2" width="15" height="17">
<path id="Clip 4" fill-rule="evenodd" clip-rule="evenodd" d="M1.66693 2.50012H15.9841V18.2831H1.66693V2.50012Z" fill="white"/>
</mask>
<g mask="url(#mask0)">
<path id="Fill 3" fill-rule="evenodd" clip-rule="evenodd" d="M10.9255 4.18066L3.07968 13.9932C2.93718 14.1715 2.88468 14.4015 2.93718 14.6223L3.50468 17.0265L6.03718 16.9948C6.27802 16.9923 6.50051 16.8848 6.64802 16.7015C9.32885 13.3473 14.4397 6.95232 14.5847 6.76482C14.7213 6.54316 14.7747 6.22982 14.703 5.92816C14.6297 5.61899 14.4372 5.35649 14.1597 5.18899C14.1005 5.14816 12.6963 4.05816 12.653 4.02399C12.1247 3.60066 11.3538 3.67399 10.9255 4.18066ZM3.01133 18.2832C2.72216 18.2832 2.4705 18.0848 2.403 17.8023L1.7205 14.9098C1.57966 14.3107 1.71966 13.6923 2.10383 13.2123L9.95383 3.39399C9.95716 3.39066 9.95966 3.38649 9.963 3.38316C10.8238 2.35399 12.3805 2.20232 13.4305 3.04482C13.4722 3.07732 14.8663 4.16066 14.8663 4.16066C15.373 4.46232 15.7688 5.00149 15.9188 5.63983C16.068 6.27149 15.9597 6.92316 15.6122 7.47399C15.5863 7.51483 15.5638 7.54983 7.62383 17.4832C7.24133 17.9598 6.668 18.2373 6.05216 18.2448L3.01966 18.2832H3.01133Z" fill="#968DFF"/>
</g>
</g>
<path id="Fill 6" fill-rule="evenodd" clip-rule="evenodd" d="M13.5195 9.73735C13.3861 9.73735 13.2528 9.69485 13.1386 9.60818L8.59532 6.11818C8.32198 5.90818 8.27032 5.51652 8.48032 5.24152C8.69115 4.96818 9.08282 4.91735 9.35698 5.12735L13.9011 8.61651C14.1745 8.82651 14.2261 9.21901 14.0153 9.49318C13.8928 9.65318 13.707 9.73735 13.5195 9.73735Z" fill="#968DFF"/>
</g>
</g>
</svg>
