<svg width="14" height="14" viewBox="0 0 14 14" fill="none" xmlns="http://www.w3.org/2000/svg">
<path d="M6.7568 9.79155V8.14905" stroke="white" stroke-width="1.2" stroke-linecap="round" stroke-linejoin="round"/>
<path d="M12.462 6.64215L12.4439 6.65528C10.9301 7.58778 8.93136 8.1509 6.75386 8.1509C4.57636 8.1509 2.58323 7.58778 1.07011 6.65528L1.05136 6.64215" stroke="white" stroke-width="1.2" stroke-linecap="round" stroke-linejoin="round"/>
<path fill-rule="evenodd" clip-rule="evenodd" d="M1 7.81279C1 3.96779 2.43938 2.68591 6.75688 2.68591C11.075 2.68591 12.5138 3.96779 12.5138 7.81279C12.5138 11.6578 11.075 12.9397 6.75688 12.9397C2.43938 12.9397 1 11.6578 1 7.81279Z" stroke="white" stroke-width="1.2" stroke-linecap="round" stroke-linejoin="round"/>
<path d="M8.79595 2.82438V2.43063C8.79595 1.64063 8.21908 1 7.50845 1H6.00533C5.2947 1 4.71783 1.64063 4.71783 2.43063V2.82438" stroke="white" stroke-width="1.2" stroke-linecap="round" stroke-linejoin="round"/>
</svg>
