<svg width="29" height="29" viewBox="0 0 29 29" fill="none" xmlns="http://www.w3.org/2000/svg">
<path fill-rule="evenodd" clip-rule="evenodd" d="M14.4665 24.6118C10.5527 24.6118 7.20929 24.0197 7.20929 21.6489C7.20929 19.2782 10.531 17.2144 14.4665 17.2144C18.3803 17.2144 21.7238 19.2589 21.7238 21.6284C21.7238 23.9979 18.4021 24.6118 14.4665 24.6118Z" stroke="#ADCAE6" stroke-width="1.5" stroke-linecap="round" stroke-linejoin="round"/>
<path fill-rule="evenodd" clip-rule="evenodd" d="M14.4667 13.834C17.0357 13.834 19.1188 11.752 19.1188 9.18309C19.1188 6.61417 17.0357 4.53101 14.4667 4.53101C11.8978 4.53101 9.81466 6.61417 9.81466 9.18309C9.80741 11.7423 11.8737 13.8255 14.4341 13.834H14.4667Z" stroke="#ADCAE6" stroke-width="1.5" stroke-linecap="round" stroke-linejoin="round"/>
<path d="M22.1876 12.5567C23.6823 12.1567 24.7843 10.7937 24.7843 9.17091C24.7843 7.47804 23.5844 6.06429 21.987 5.73804" stroke="#ADCAE6" stroke-width="1.5" stroke-linecap="round" stroke-linejoin="round"/>
<path d="M22.8896 16.366C25.009 16.366 26.8191 17.8027 26.8191 19.0859C26.8191 19.8411 26.1944 20.664 25.247 20.8863" stroke="#ADCAE6" stroke-width="1.5" stroke-linecap="round" stroke-linejoin="round"/>
<path d="M6.7469 12.5567C5.25099 12.1567 4.14899 10.7937 4.14899 9.17091C4.14899 7.47804 5.35007 6.06429 6.94628 5.73804" stroke="#ADCAE6" stroke-width="1.5" stroke-linecap="round" stroke-linejoin="round"/>
<path d="M6.0437 16.366C3.92428 16.366 2.1142 17.8027 2.1142 19.0859C2.1142 19.8411 2.73891 20.664 3.68745 20.8863" stroke="#ADCAE6" stroke-width="1.5" stroke-linecap="round" stroke-linejoin="round"/>
</svg>
