<svg width="18" height="18" viewBox="0 0 18 18" fill="none" xmlns="http://www.w3.org/2000/svg">
<path fill-rule="evenodd" clip-rule="evenodd" d="M8.88341 16.2464C6.11455 16.2464 3.75 15.8156 3.75 14.09C3.75 12.3644 6.09955 10.7714 8.88341 10.7714C11.6523 10.7714 14.0168 12.3489 14.0168 14.0745C14.0168 15.7994 11.6673 16.2464 8.88341 16.2464Z" stroke="#BAC8FF" stroke-width="1.2" stroke-linecap="round" stroke-linejoin="round"/>
<path fill-rule="evenodd" clip-rule="evenodd" d="M8.87803 8.38022C10.6951 8.38022 12.1678 6.90749 12.1678 5.09044C12.1678 3.2734 10.6951 1.79999 8.87803 1.79999C7.06098 1.79999 5.58757 3.2734 5.58757 5.09044C5.58144 6.90135 7.04394 8.37408 8.85485 8.38022C8.86303 8.38022 8.87053 8.38022 8.87803 8.38022Z" stroke="#BAC8FF" stroke-width="1.2" stroke-linecap="round" stroke-linejoin="round"/>
</svg>
