<svg width="17" height="16" viewBox="0 0 17 16" fill="none" xmlns="http://www.w3.org/2000/svg">
<path d="M8.08041 10.8512V9.0061" stroke="white" stroke-width="1.2" stroke-linecap="round" stroke-linejoin="round"/>
<path d="M14.3447 7.31323L14.3248 7.32798C12.6627 8.37551 10.4682 9.00811 8.07744 9.00811C5.68667 9.00811 3.49832 8.37551 1.83699 7.32798L1.81641 7.31323" stroke="white" stroke-width="1.2" stroke-linecap="round" stroke-linejoin="round"/>
<path fill-rule="evenodd" clip-rule="evenodd" d="M1.75977 8.62824C1.75977 4.30891 3.34012 2.8689 8.0805 2.8689C12.8216 2.8689 14.4012 4.30891 14.4012 8.62824C14.4012 12.9476 12.8216 14.3876 8.0805 14.3876C3.34012 14.3876 1.75977 12.9476 1.75977 8.62824Z" stroke="white" stroke-width="1.2" stroke-linecap="round" stroke-linejoin="round"/>
<path d="M10.3194 3.02453V2.58221C10.3194 1.69475 9.68598 0.975098 8.90575 0.975098H7.2554C6.47517 0.975098 5.8418 1.69475 5.8418 2.58221V3.02453" stroke="white" stroke-width="1.2" stroke-linecap="round" stroke-linejoin="round"/>
</svg>
