<svg width="18" height="18" viewBox="0 0 18 18" fill="none" xmlns="http://www.w3.org/2000/svg">
<path d="M8.99991 12.7813V10.5802" stroke="#AFADFF" stroke-width="1.2" stroke-linecap="round" stroke-linejoin="round"/>
<path d="M16.9281 8.56079L16.9029 8.57838C14.7993 9.82799 12.0218 10.5826 8.9958 10.5826C5.96986 10.5826 3.20012 9.82799 1.09742 8.57838L1.07137 8.56079" stroke="#AFADFF" stroke-width="1.2" stroke-linecap="round" stroke-linejoin="round"/>
<path fill-rule="evenodd" clip-rule="evenodd" d="M1 10.1296C1 4.97708 3.00022 3.25928 9 3.25928C15.0007 3.25928 17 4.97708 17 10.1296C17 15.2822 15.0007 17 9 17C3.00022 17 1 15.2822 1 10.1296Z" stroke="#AFADFF" stroke-width="1.2" stroke-linecap="round" stroke-linejoin="round"/>
<path d="M11.8336 3.44479V2.91714C11.8336 1.85848 11.0319 1 10.0444 1H7.95562C6.96811 1 6.16646 1.85848 6.16646 2.91714V3.44479" stroke="#AFADFF" stroke-width="1.2" stroke-linecap="round" stroke-linejoin="round"/>
</svg>
